<?xml version="1.0" standalone="no"?>
<!DOCTYPE svg PUBLIC "-//W3C//DTD SVG 1.1//EN" "http://www.w3.org/Graphics/SVG/1.1/DTD/svg11.dtd" >
<svg>
<metadata>
Created by FontForge 20120731 at Wed Aug 28 20:55:23 2019
 By www
Copyright (c) 2016 by Jonas Hecksher, Playtype Foundry. All rights reserved.
</metadata>
<defs>
<font id="BerlingskeSerifText-Regular" horiz-adv-x="541" >
  <font-face 
    font-family="Berlingske Serif Text"
    font-weight="400"
    font-stretch="normal"
    units-per-em="1000"
    panose-1="2 0 5 3 6 0 0 2 0 4"
    ascent="750"
    descent="-250"
    x-height="510"
    cap-height="690"
    bbox="-188 -236 1163 940"
    underline-thickness="50"
    underline-position="-50"
    unicode-range="U+0020-FB02"
  />
<missing-glyph horiz-adv-x="773" 
d="M498 213v-67h30v67l60 89h-35l-38 -64l-39 64h-35zM250 277v-131h30v131h52v25h-134v-25h52zM211 544v-157h30v57h34q27 0 42 13.5t15 37.5q0 23 -15 36t-42 13h-64zM466 544v-157h98v27h-68v130h-30zM272 468h-31v51h31q15 0 23 -6.5t8 -18.5t-8 -19t-23 -7zM738 0h-690
v690h690v-690z" />
    <glyph glyph-name=".notdef" horiz-adv-x="773" 
d="M498 213v-67h30v67l60 89h-35l-38 -64l-39 64h-35zM250 277v-131h30v131h52v25h-134v-25h52zM211 544v-157h30v57h34q27 0 42 13.5t15 37.5q0 23 -15 36t-42 13h-64zM466 544v-157h98v27h-68v130h-30zM272 468h-31v51h31q15 0 23 -6.5t8 -18.5t-8 -19t-23 -7zM738 0h-690
v690h690v-690z" />
    <glyph glyph-name=".null" horiz-adv-x="0" 
 />
    <glyph glyph-name="nonmarkingreturn" horiz-adv-x="333" 
 />
    <glyph glyph-name="space" unicode=" " horiz-adv-x="200" 
 />
    <glyph glyph-name="exclam" unicode="!" horiz-adv-x="280" 
d="M200 52q0 -28 -17 -46t-43 -18t-43 18t-17 46q0 27 17.5 45t42.5 18t42.5 -18t17.5 -45zM152 193h-26q-2 30 -5.5 64.5t-11.5 103.5q-16 129 -20.5 197.5t-4.5 131.5h111q0 -59 -4.5 -125t-20.5 -192q-9 -76 -12.5 -112.5t-5.5 -67.5z" />
    <glyph glyph-name="quotedbl" unicode="&#x22;" horiz-adv-x="373" 
d="M116 446h-21q-1 22 -6 50t-17 80q-9 36 -11.5 50t-2.5 23q0 23 14 39t33 16q20 0 34 -16t14 -39q0 -9 -2.5 -23.5t-11.5 -51.5q-13 -52 -17.5 -79t-5.5 -49zM277 446h-21q-1 22 -6 50t-17 80q-9 36 -11.5 50t-2.5 23q0 23 14 39t33 16q20 0 34 -16t14 -39
q0 -9 -2.5 -23.5t-11.5 -51.5q-13 -52 -17.5 -79t-5.5 -49z" />
    <glyph glyph-name="numbersign" unicode="#" 
d="M138 0h-51l43 219h-65v51h75l29 149h-104v51h114l43 220h51l-43 -220h129l43 220h51l-43 -220h65v-51h-75l-29 -149h104v-51h-114l-43 -219h-51l43 219h-129zM220 419l-29 -149h129l29 149h-129z" />
    <glyph glyph-name="dollar" unicode="$" 
d="M295 -84h-45v69q-45 1 -94.5 13t-78.5 29l-13 148h24q34 -68 73 -102t89 -37v269q-66 43 -84.5 57.5t-32.5 27.5q-30 29 -44 61t-14 68q0 70 53.5 122t131.5 61v52h45v-51q31 -2 68.5 -12.5t76.5 -27.5v-125h-24q-28 54 -56 80t-65 32v-250q104 -64 137.5 -110.5
t33.5 -102.5q0 -76 -50.5 -130.5t-130.5 -67.5v-73zM164 559q0 -34 22 -64.5t74 -65.5v223q-41 -4 -68.5 -30.5t-27.5 -62.5zM295 274v-234q38 10 61 37.5t23 64.5q0 36 -20 67.5t-64 64.5z" />
    <glyph glyph-name="percent" unicode="%" horiz-adv-x="868" 
d="M219 -46h-58l407 673h-2q-26 -19 -53 -30t-49 -11q-16 0 -33.5 3.5t-33.5 10.5q3 -14 4.5 -27t1.5 -24q0 -88 -49.5 -164t-117.5 -76q-63 0 -103.5 45t-40.5 114q0 86 56.5 159.5t129.5 73.5q23 0 42.5 -6.5t50.5 -27.5q30 -21 49 -27.5t42 -6.5q46 0 91 24t83 70h50z
M178 444q0 -37 16.5 -62.5t44.5 -25.5q53 0 90 61.5t37 136.5q0 39 -20.5 69.5t-52.5 30.5q-49 0 -82 -64.5t-33 -145.5zM764 233q0 -95 -49 -170t-121 -75q-61 0 -101 44t-40 111q0 90 57 163t134 73q54 0 87 -40.5t33 -105.5zM539 123q0 -35 17.5 -61t43.5 -26
q53 0 90.5 61.5t37.5 135.5q0 39 -20.5 69.5t-51.5 30.5q-50 0 -83.5 -64t-33.5 -146z" />
    <glyph glyph-name="ampersand" unicode="&#x26;" horiz-adv-x="754" 
d="M240 -15q-82 0 -136.5 56t-54.5 133q0 57 41 104.5t140 98.5q-32 40 -48.5 79.5t-16.5 75.5q0 71 53.5 121.5t134.5 50.5q66 0 108 -36t42 -93q0 -56 -37.5 -102t-119.5 -88l153 -181q59 77 58.5 116t-58.5 45v18h235v-18q-28 -8 -54.5 -27.5t-59.5 -55.5
q-11 -12 -24 -27t-69 -84l12 -14q61 -71 97 -99t92 -40v-18h-184l-82 94q-54 -58 -105.5 -83.5t-116.5 -25.5zM142 205q0 -60 44 -107t104 -47q36 0 71.5 19t73.5 57l-177 216q-62 -34 -89 -66.5t-27 -71.5zM244 568q0 -31 18.5 -68.5t56.5 -82.5q64 39 86 70t22 77
q0 44 -26.5 71t-67.5 27q-39 0 -64 -26.5t-25 -67.5z" />
    <glyph glyph-name="quotesingle" unicode="'" horiz-adv-x="213" 
d="M116 446h-21q-1 22 -6 50t-17 80q-9 36 -11.5 50t-2.5 23q0 23 14 39t33 16q20 0 34 -16t14 -39q0 -9 -2.5 -23.5t-11.5 -51.5q-13 -52 -17.5 -79t-5.5 -49z" />
    <glyph glyph-name="parenleft" unicode="(" horiz-adv-x="380" 
d="M314 -177h-29q-82 82 -142 215.5t-60 258.5q0 116 58 240t144 214h29q-66 -106 -102 -226t-36 -238q0 -125 35.5 -243.5t102.5 -220.5z" />
    <glyph glyph-name="parenright" unicode=")" horiz-adv-x="380" 
d="M93 -177h-29q68 103 103.5 221t35.5 243q0 118 -36 237.5t-103 226.5h29q86 -88 145 -213t59 -241q0 -127 -61 -260.5t-143 -213.5z" />
    <glyph glyph-name="asterisk" unicode="*" horiz-adv-x="370" 
d="M183 501l-60 -132l-62 45l101 102l-136 18l24 78l121 -71l-20 149h69l-22 -148l118 70l25 -78l-135 -20l99 -100l-61 -45z" />
    <glyph glyph-name="plus" unicode="+" 
d="M312 68h-81v175h-154v76h154v176h81v-176h152v-76h-152v-175z" />
    <glyph glyph-name="comma" unicode="," horiz-adv-x="212" 
d="M53 -146h-24q22 29 36 65.5t14 61.5q0 6 -2.5 12.5t-10.5 18.5q-11 16 -14.5 26.5t-3.5 21.5q0 26 15.5 41.5t39.5 15.5q25 0 41 -17.5t16 -46.5q0 -47 -33 -107.5t-74 -91.5z" />
    <glyph glyph-name="hyphen" unicode="-" horiz-adv-x="334" 
d="M308 262h-282v70h282v-70z" />
    <glyph glyph-name="period" unicode="." horiz-adv-x="212" 
d="M170 53q0 -27 -19.5 -46t-46.5 -19t-46 19t-19 46t19 46.5t46 19.5t46.5 -19.5t19.5 -46.5z" />
    <glyph glyph-name="slash" unicode="/" horiz-adv-x="386" 
d="M67 -15h-61l308 719h63z" />
    <glyph glyph-name="zero" unicode="0" 
d="M491 343q0 -154 -63 -256t-160 -102t-159.5 100t-62.5 254q0 155 64 260t160 105q97 0 159 -102.5t62 -258.5zM147 338q0 -158 30 -229.5t91 -71.5t91 70.5t30 230.5q0 156 -30.5 235t-90.5 79t-90.5 -79t-30.5 -235z" />
    <glyph glyph-name="one" unicode="1" 
d="M419 0h-270v18q63 14 80.5 33.5t17.5 76.5v412h-1q-16 -9 -48.5 -20.5t-83.5 -25.5l-4 33q52 20 107 63.5t109 107.5h13v-570q0 -55 14.5 -75.5t65.5 -34.5v-18z" />
    <glyph glyph-name="two" unicode="2" 
d="M461 0h-393v34l177 217q66 81 98.5 148t32.5 120q0 55 -40 92.5t-98 37.5q-43 0 -69.5 -8t-44.5 -27h3.5h3.5q30 -2 46.5 -19t16.5 -46q0 -28 -18 -46.5t-45 -18.5q-31 0 -48 18t-17 52q0 28 21.5 59t57.5 53q29 19 64 28.5t72 9.5q85 0 140.5 -50.5t55.5 -131.5
q0 -51 -33 -109.5t-133 -172.5l-131 -150h281v-90z" />
    <glyph glyph-name="three" unicode="3" 
d="M480 232q0 -109 -76 -178t-189 -69q-72 0 -121 33t-49 82q0 29 19 48t47 19t45 -17t17 -45q0 -22 -10 -37t-32 -26q26 -12 45.5 -16t39.5 -4q73 0 120 49t47 132q0 72 -48.5 109t-140.5 37h-17v41l148 206h-259v94h375v-15l-171 -232q93 -11 151.5 -68t58.5 -143z" />
    <glyph glyph-name="four" unicode="4" 
d="M493 0h-266v18q63 14 80.5 33.5t17.5 76.5v58h-290v50q82 122 161 236.5t156 224.5h62v-446h72v-65h-72v-58q0 -55 14.5 -75.5t64.5 -34.5v-18zM110 251h215v313q-42 -59 -89.5 -128.5t-125.5 -184.5z" />
    <glyph glyph-name="five" unicode="5" 
d="M412 56q-34 -33 -81 -52t-92 -19q-70 0 -122 35.5t-52 83.5q0 29 18 47t47 18q28 0 45 -17t17 -45q0 -21 -11.5 -37t-32.5 -24q14 -11 36.5 -17.5t48.5 -6.5q68 0 107.5 51.5t39.5 138.5q0 80 -37.5 123.5t-102.5 43.5q-34 0 -68 -11.5t-58 -30.5h-27l43 353h306v-86
h-262l-26 -214q31 22 66 33.5t71 11.5q85 0 140 -55.5t55 -149.5q0 -53 -17.5 -97t-50.5 -77z" />
    <glyph glyph-name="six" unicode="6" 
d="M495 227q0 -106 -62 -174t-157 -68q-100 0 -164.5 74t-64.5 188q0 177 112.5 304t283.5 153v-39q-106 -31 -181 -103.5t-101 -170.5q31 23 64 34.5t70 11.5q91 0 145.5 -56t54.5 -154zM146 266q0 -116 33 -172.5t100 -56.5q55 0 90.5 47t35.5 117q0 85 -40 132.5
t-108 47.5q-24 0 -54 -7t-50 -18q-4 -20 -5.5 -42t-1.5 -48z" />
    <glyph glyph-name="seven" unicode="7" 
d="M232 0h-102q34 114 107.5 268t176.5 330h-363v92h432v-24q-76 -135 -143.5 -315.5t-107.5 -350.5z" />
    <glyph glyph-name="eight" unicode="8" 
d="M495 184q0 -85 -69 -142t-160 -57q-94 0 -157 48.5t-63 129.5q0 54 34.5 97.5t116.5 84.5v4q-74 40 -103 82.5t-29 100.5q0 71 59 121t147 50q87 0 142.5 -47t55.5 -114q0 -45 -29 -82.5t-102 -76.5v-4q88 -46 122.5 -91.5t34.5 -103.5zM136 165q0 -56 38 -92t100 -36
q58 0 96 35t38 89q0 41 -41 80t-146 91q-37 -27 -61 -72.5t-24 -94.5zM210 451q14 -10 32.5 -20.5t69.5 -36.5q31 27 49 65t18 75q0 52 -32.5 84.5t-83.5 32.5q-53 0 -84 -29.5t-31 -78.5q0 -26 15 -48t47 -44z" />
    <glyph glyph-name="nine" unicode="9" 
d="M493 411q0 -155 -116 -278t-280 -148v43q110 29 189.5 102.5t98.5 170.5q-32 -18 -68 -28t-71 -10q-88 0 -144 55.5t-56 147.5q0 100 62.5 169t153.5 69q100 0 165.5 -83t65.5 -210zM136 493q0 -84 43 -131t119 -47q21 0 46.5 5.5t45.5 14.5q3 20 4 33t1 32
q0 121 -36 186.5t-103 65.5q-56 0 -88 -43.5t-32 -115.5z" />
    <glyph glyph-name="colon" unicode=":" horiz-adv-x="212" 
d="M170 53q0 -27 -19.5 -46t-46.5 -19t-46 19t-19 46t19 46.5t46 19.5t46.5 -19.5t19.5 -46.5zM170 394q0 -27 -19.5 -46t-46.5 -19t-46 19t-19 46t19 46.5t46 19.5t46.5 -19.5t19.5 -46.5z" />
    <glyph glyph-name="semicolon" unicode=";" horiz-adv-x="212" 
d="M53 -146h-24q22 29 36 65.5t14 61.5q0 6 -2.5 12.5t-10.5 18.5q-11 16 -14.5 26.5t-3.5 21.5q0 26 15.5 41.5t39.5 15.5q25 0 41 -17.5t16 -46.5q0 -47 -33 -107.5t-74 -91.5zM170 394q0 -27 -19.5 -46t-46.5 -19t-46 19t-19 46t19 46.5t46 19.5t46.5 -19.5t19.5 -46.5z
" />
    <glyph glyph-name="less" unicode="&#x3c;" 
d="M463 146v-77l-386 182v62l386 180v-77l-286 -133z" />
    <glyph glyph-name="equal" unicode="=" 
d="M464 143h-387v76h387v-76zM464 343h-387v76h387v-76z" />
    <glyph glyph-name="greater" unicode="&#x3e;" 
d="M463 251l-386 -182v77l286 137l-286 133v77l386 -180v-62z" />
    <glyph glyph-name="question" unicode="?" horiz-adv-x="447" 
d="M223 193h-27q0 46 11.5 87t47.5 103q29 51 38 79.5t9 59.5q0 62 -33 97.5t-85 35.5q-24 0 -51.5 -8t-44.5 -20h2.5h2.5q32 0 50 -15.5t18 -42.5t-17 -44t-44 -17t-43.5 17.5t-16.5 47.5q0 55 52 93t132 38q76 0 125 -47.5t49 -124.5q0 -45 -18 -85t-74 -103
q-49 -55 -65 -86.5t-18 -64.5zM268 52q0 -28 -17 -46t-43 -18t-43 18t-17 46q0 27 17.5 45t42.5 18t42.5 -18t17.5 -45z" />
    <glyph glyph-name="at" unicode="@" horiz-adv-x="836" 
d="M426 -123q-82 0 -151 24.5t-120 71.5q-54 50 -83 118.5t-29 144.5q0 79 31 149.5t88 123.5q55 51 127 78t154 27q153 0 251.5 -87t98.5 -222q0 -52 -16 -96.5t-47 -78.5q-34 -38 -79.5 -59.5t-87.5 -21.5q-37 0 -56.5 19t-20.5 54q-32 -33 -73.5 -55t-76.5 -22
q-45 0 -73 29.5t-28 81.5q0 45 20.5 95t56.5 92q38 44 84 68.5t93 24.5q21 0 42.5 -5t49.5 -18l44 18h14l-81 -302q-8 -27 -2 -40.5t26 -13.5q29 0 66 22t62 58q22 30 33.5 67.5t11.5 80.5q0 125 -89 204.5t-222 79.5q-143 0 -235 -97t-92 -245q0 -147 87.5 -242.5
t232.5 -95.5q55 0 107 15t112 49l28 -15q-67 -42 -128 -60.5t-130 -18.5zM310 158q0 -38 14 -58t40 -20q29 0 66 26.5t64 61.5l56 206q-17 19 -38 30.5t-41 11.5q-59 0 -110 -86.5t-51 -171.5z" />
    <glyph glyph-name="A" unicode="A" horiz-adv-x="709" 
d="M226 0h-218v18q34 13 50.5 33t36.5 65q9 21 20.5 51.5t27.5 75.5l159 447h117l157 -454q48 -138 67.5 -171t57.5 -47v-18h-235v18q33 8 44.5 20t11.5 35t-9.5 59t-33.5 106l-10 28h-252l-9 -27q-24 -71 -32.5 -104t-8.5 -60q0 -22 11.5 -34t47.5 -23v-18zM343 633
l-107 -313h215z" />
    <glyph glyph-name="B" unicode="B" horiz-adv-x="608" 
d="M317 0h-280v18q51 14 65.5 35.5t14.5 75.5v432q0 54 -14.5 75.5t-65.5 35.5v18h268q115 0 168 -42t53 -131q0 -54 -29 -92t-86 -59v-1q67 -12 110.5 -57.5t43.5 -107.5q0 -96 -65.5 -148t-182.5 -52zM214 331v-280h100q73 0 112 33.5t39 97.5q0 68 -46.5 108.5
t-118.5 40.5h-86zM214 639v-260h76q67 0 103.5 36t36.5 102q0 61 -36.5 91.5t-109.5 30.5h-70z" />
    <glyph glyph-name="C" unicode="C" horiz-adv-x="662" 
d="M401 -15q-161 0 -261 94.5t-100 254.5q0 81 25.5 148.5t75.5 117.5t119 77t145 27q46 0 108 -12.5t90 -26.5v-132h-23q-28 62 -68.5 91t-117.5 29q-108 0 -176 -84t-68 -222q0 -140 72 -225.5t185 -85.5q77 0 120.5 31t73.5 98h23l-16 -138q-29 -17 -91 -29.5t-116 -12.5
z" />
    <glyph glyph-name="D" unicode="D" horiz-adv-x="743" 
d="M337 0h-300v18q47 13 63.5 37.5t16.5 83.5v412q0 59 -16.5 83.5t-63.5 37.5v18h309q159 0 259 -90t100 -239q0 -168 -99.5 -264.5t-268.5 -96.5zM215 639v-588h125q116 0 186 84.5t70 221.5q0 117 -72 199.5t-173 82.5h-136z" />
    <glyph glyph-name="E" unicode="E" horiz-adv-x="566" 
d="M510 0h-467v18q50 14 64.5 35.5t14.5 75.5v432q0 54 -14.5 75.5t-64.5 35.5v18h440v-141h-22q-19 29 -30.5 46.5t-14.5 21.5q-12 13 -24 17.5t-50 4.5h-123v-259h122q24 0 39 9t40 45h20v-161h-20q-28 39 -42.5 48t-36.5 9h-122v-279h150q35 0 49.5 6.5t32.5 25.5
q5 6 19 24t38 49h21z" />
    <glyph glyph-name="F" unicode="F" horiz-adv-x="544" 
d="M306 0h-268v18q50 14 64.5 35.5t14.5 75.5v432q0 54 -14.5 75.5t-64.5 35.5v18h448v-141h-24q-43 68 -58.5 79t-64.5 11h-125v-268h130q23 0 38 9t41 46h20v-165h-20q-30 43 -44.5 51.5t-34.5 8.5h-130v-192q0 -55 16.5 -76t75.5 -35v-18z" />
    <glyph glyph-name="G" unicode="G" horiz-adv-x="718" 
d="M399 -15q-156 0 -257.5 98.5t-101.5 258.5q0 80 27.5 146.5t80.5 115.5q52 48 122 74t145 26q47 0 107 -11.5t90 -25.5v-143h-25q-33 67 -75 98t-106 31q-116 0 -186 -81.5t-70 -224.5q0 -144 72 -225t194 -81q28 0 60 6.5t64 19.5v144q0 59 -16.5 83.5t-63.5 37.5v18
h233v-18q-40 -15 -51 -39t-11 -82v-181h-4q-22 -5 -101 -25t-127 -20z" />
    <glyph glyph-name="H" unicode="H" horiz-adv-x="783" 
d="M298 0h-255v18q51 14 65.5 35t14.5 76v432q0 55 -14.5 76t-65.5 35v18h255v-18q-50 -14 -64.5 -35.5t-14.5 -75.5v-179h345v179q0 55 -14.5 76t-66.5 35v18h257v-18q-51 -14 -65.5 -35t-14.5 -76v-432q0 -55 14.5 -76t65.5 -35v-18h-257v18q52 14 66.5 35t14.5 76v198
h-345v-198q0 -54 14.5 -75.5t64.5 -35.5v-18z" />
    <glyph glyph-name="I" unicode="I" horiz-adv-x="343" 
d="M300 0h-257v18q52 14 66.5 35.5t14.5 75.5v432q0 54 -14.5 75.5t-66.5 35.5v18h257v-18q-51 -14 -65.5 -35.5t-14.5 -75.5v-432q0 -54 14.5 -75.5t65.5 -35.5v-18z" />
    <glyph glyph-name="J" unicode="J" horiz-adv-x="339" 
d="M42 -206l-14 20q47 33 70.5 86t23.5 124v537q0 54 -14.5 75.5t-66.5 35.5v18h257v-18q-51 -14 -65.5 -35.5t-14.5 -75.5v-498q0 -90 -46.5 -159.5t-129.5 -109.5z" />
    <glyph glyph-name="K" unicode="K" horiz-adv-x="691" 
d="M292 0h-255v18q51 14 65.5 35t14.5 76v432q0 55 -14.5 76t-65.5 35v18h255v-18q-50 -14 -64 -35t-14 -76v-248h1l182 207q35 41 49 64t14 40q0 15 -12.5 26.5t-38.5 21.5v18h252v-18q-53 -18 -87.5 -45t-115.5 -115l-82 -89l163 -244q55 -81 87.5 -113.5t77.5 -47.5v-18
h-261v18q29 6 37.5 12.5t8.5 16.5q0 16 -15.5 46.5t-49.5 79.5l-118 175l-92 -99v-120q0 -55 14 -76t64 -35v-18z" />
    <glyph glyph-name="L" unicode="L" horiz-adv-x="530" 
d="M485 0h-448v18q47 13 63 37.5t16 83.5v412q0 59 -16 83.5t-63 37.5v18h255v-18q-47 -13 -63 -37t-16 -84v-500h148q32 0 53 19t72 87h18z" />
    <glyph glyph-name="M" unicode="M" horiz-adv-x="939" 
d="M245 0h-225v18q40 12 58 49t26 148l22 297q1 17 2 32.5t1 29.5q0 44 -13.5 64.5t-50.5 33.5v18h214l193 -565l196 565h198v-18q-37 -15 -50 -36t-13 -65v-12.5t2 -42.5l20 -302q7 -112 20.5 -143.5t57.5 -52.5v-18h-239v18q43 18 55.5 37.5t12.5 66.5q0 16 -0.5 35.5
t-2.5 42.5l-24 407h-1l-211 -607h-80l-211 615h-1l-25 -400q-2 -22 -2.5 -41t-0.5 -35q0 -57 15 -82t57 -39v-18z" />
    <glyph glyph-name="N" unicode="N" horiz-adv-x="798" 
d="M692 -10h-66l-451 586h-1v-376q0 -40 1.5 -65.5t4.5 -42.5q6 -31 19.5 -46.5t49.5 -27.5v-18h-217v18q37 12 50 27.5t18 46.5q3 17 4.5 42.5t1.5 65.5v396q0 26 -23.5 45.5t-69.5 30.5v18h199l411 -531h2v331q0 39 -1.5 65t-4.5 43q-6 31 -19.5 46.5t-48.5 27.5v18h215
v-18q-36 -13 -49.5 -28.5t-18.5 -45.5q-3 -18 -4.5 -43.5t-1.5 -64.5v-500z" />
    <glyph glyph-name="O" unicode="O" horiz-adv-x="758" 
d="M718 347q0 -161 -95 -261.5t-244 -100.5t-244 99t-95 260q0 156 97.5 258t241.5 102t241.5 -100.5t97.5 -256.5zM149 344q0 -133 64 -220.5t166 -87.5t165.5 87.5t63.5 220.5q0 135 -63 222t-166 87t-166.5 -87t-63.5 -222z" />
    <glyph glyph-name="P" unicode="P" horiz-adv-x="577" 
d="M306 0h-269v18q51 14 65 35t14 76v432q0 55 -14 76t-65 35v18h297q103 0 157 -46.5t54 -135.5q0 -96 -60.5 -151.5t-159.5 -55.5h-112v-172q0 -55 17 -76t76 -35v-18zM213 643v-295h97q64 0 100 43t36 113q0 64 -33.5 101.5t-94.5 37.5h-105z" />
    <glyph glyph-name="Q" unicode="Q" horiz-adv-x="759" 
d="M932 -236q-65 0 -182 43t-228 115l-101 65l-24 -1.5t-15 -0.5q-149 0 -244 99t-95 260q0 156 97.5 258t241.5 102t241.5 -102t97.5 -258q0 -126 -59.5 -216.5t-164.5 -124.5q172 -81 290.5 -113t242.5 -32q32 0 66 3.5t67 9.5v-12q-33 -39 -97 -67t-134 -28zM152 344
q0 -133 64 -220.5t166 -87.5t165.5 87.5t63.5 220.5q0 135 -63 222t-166 87t-166.5 -87t-63.5 -222z" />
    <glyph glyph-name="R" unicode="R" horiz-adv-x="618" 
d="M291 0h-254v18q51 14 65 34.5t14 76.5v432q0 56 -14 76.5t-65 34.5v18h288q103 0 157.5 -45.5t54.5 -132.5q0 -66 -43.5 -113t-121.5 -68l143 -209q37 -54 57 -73t64 -31v-18h-63q-64 0 -91.5 13.5t-68.5 77.5l-140 217h-60v-179q0 -56 14 -76.5t64 -34.5v-18zM213 643
v-289h81q63 0 103 40.5t40 108.5q0 61 -35.5 100.5t-90.5 39.5h-98z" />
    <glyph glyph-name="S" unicode="S" horiz-adv-x="499" 
d="M458 187q0 -87 -65 -144.5t-159 -57.5q-44 0 -94 12t-81 30l-13 148h24q36 -72 77.5 -105.5t97.5 -33.5q49 0 82.5 30.5t33.5 75.5q0 42 -27 78t-116 94q-48 31 -70.5 48t-38.5 34q-26 28 -39 58.5t-13 64.5q0 77 63.5 131t147.5 54q35 0 78.5 -11t85.5 -30v-125h-24
q-33 63 -67 89t-87 26q-45 0 -76.5 -27.5t-31.5 -66.5q0 -38 26.5 -71t113.5 -87q51 -32 75 -50t41 -35q28 -29 42 -61t14 -68z" />
    <glyph glyph-name="T" unicode="T" horiz-adv-x="620" 
d="M439 0h-257v18q51 14 65 35t14 76v510h-100q-27 0 -45 -19t-51 -71h-28l12 141h522l12 -141h-28q-33 52 -51 71t-45 19h-100v-510q0 -55 14.5 -76t65.5 -35v-18z" />
    <glyph glyph-name="U" unicode="U" horiz-adv-x="749" 
d="M367 -15q-116 0 -183 53.5t-67 149.5v373q0 55 -14.5 76t-65.5 35v18h256v-18q-50 -14 -64 -35t-14 -76v-379q0 -62 44 -97.5t123 -35.5q90 0 141 38.5t51 107.5v295q0 40 -1.5 66t-5.5 43q-5 30 -19 45.5t-50 27.5v18h218v-18q-37 -13 -50 -28t-19 -46q-3 -17 -4.5 -43
t-1.5 -65v-302q0 -93 -76 -148t-198 -55z" />
    <glyph glyph-name="V" unicode="V" horiz-adv-x="681" 
d="M389 0h-109l-140 417q-47 140 -73 187.5t-63 67.5v18h235v-18q-33 -8 -44.5 -20t-11.5 -35q0 -21 12.5 -68t38.5 -125l119 -352l115 354q32 99 41 134t9 55q0 22 -11.5 34t-47.5 23v18h218v-18q-44 -23 -70 -71t-73 -183z" />
    <glyph glyph-name="W" unicode="W" horiz-adv-x="986" 
d="M357 0h-113l-112 417q-13 49 -23 83t-19 59q-17 47 -33.5 70.5t-52.5 42.5v18h236v-18q-27 -11 -36.5 -24t-9.5 -41q0 -23 7.5 -61.5t28.5 -122.5l87 -349l96 352q17 62 25 101t8 65q0 29 -12.5 46.5t-47.5 33.5v18h214v-18q-29 -12 -40 -26.5t-11 -39.5q0 -24 8 -66
t28 -117l92 -331l101 334q20 66 29.5 108.5t9.5 66.5q0 27 -10.5 42t-40.5 29v18h216v-18q-34 -17 -50 -40t-36 -74q-9 -22 -20 -55t-28 -85l-137 -418h-102l-121 455z" />
    <glyph glyph-name="X" unicode="X" horiz-adv-x="649" 
d="M224 0h-224v18q40 13 68 42t98 131l109 159l-135 212q-34 53 -56.5 74.5t-63.5 35.5v18h253v-19q-33 -9 -43.5 -17.5t-10.5 -21.5q0 -11 6.5 -25.5t19.5 -35.5l101 -159l64 97q31 47 46 79t15 48q0 10 -10 17.5t-44 17.5v19h219v-18q-39 -14 -68 -44.5t-95 -128.5
l-94 -140l153 -239q29 -46 51.5 -67.5t61.5 -34.5v-18h-261v19q35 7 49 17t14 26q0 10 -6 23.5t-18 33.5l-114 178l-75 -116q-32 -50 -47.5 -81t-15.5 -46q0 -11 10 -18.5t43 -16.5v-19z" />
    <glyph glyph-name="Y" unicode="Y" horiz-adv-x="576" 
d="M416 0h-256v18q50 14 64.5 35.5t14.5 75.5v161l-94 196q-50 105 -77 141.5t-60 44.5v18h215v-18q-24 -6 -33 -14.5t-9 -24.5q0 -19 27 -75.5t31 -64.5l65 -138l62 139q29 66 39.5 96.5t10.5 46.5t-9.5 24t-33.5 11v18h195v-18q-39 -9 -67.5 -48.5t-73.5 -136.5l-91 -195
v-163q0 -54 14.5 -75.5t65.5 -35.5v-18z" />
    <glyph glyph-name="Z" unicode="Z" horiz-adv-x="538" 
d="M490 0h-464v21l352 615h-204q-24 0 -38.5 -9.5t-73.5 -77.5h-22l17 141h442v-21l-347 -615h215q33 0 55.5 20.5t65.5 81.5h21z" />
    <glyph glyph-name="bracketleft" unicode="[" horiz-adv-x="380" 
d="M308 -180h-199v896h199v-42h-117v-812h117v-42z" />
    <glyph glyph-name="backslash" unicode="\" horiz-adv-x="386" 
d="M377 -15h-63l-308 720h61z" />
    <glyph glyph-name="bracketright" unicode="]" horiz-adv-x="380" 
d="M271 -180h-199v42h117v812h-117v42h199v-896z" />
    <glyph glyph-name="asciicircum" unicode="^" horiz-adv-x="406" 
d="M86 445h-20l98 242h70l100 -242h-20l-114 180z" />
    <glyph glyph-name="underscore" unicode="_" horiz-adv-x="437" 
d="M397 -141h-360v71h360v-71z" />
    <glyph glyph-name="grave" unicode="`" horiz-adv-x="300" 
d="M255 595l-11 -20l-199 85l36 65z" />
    <glyph glyph-name="a" unicode="a" horiz-adv-x="505" 
d="M319 54q-38 -33 -74.5 -49.5t-70.5 -16.5q-57 0 -96.5 36t-39.5 89q0 82 69 125t211 53v62q0 55 -31.5 84.5t-90.5 29.5q-22 0 -48 -4.5t-40 -10.5v-5q22 -8 32.5 -20t10.5 -30q0 -21 -14 -34.5t-36 -13.5q-21 0 -35 14t-14 36q0 45 66.5 84t136.5 39q71 0 111 -37.5
t40 -103.5v-261q0 -24 4 -40t13 -25q8 -8 20.5 -12t43.5 -7v-18q-18 -8 -52 -17t-53 -9q-26 0 -43 16.5t-20 45.5zM129 143q0 -41 27.5 -65.5t73.5 -24.5q22 0 42.5 6t45.5 20v162q-7 1 -27 3t-31 2q-67 0 -99 -25t-32 -78z" />
    <glyph glyph-name="b" unicode="b" horiz-adv-x="592" 
d="M461 74q-43 -41 -99.5 -63.5t-114.5 -22.5q-35 0 -86.5 8t-78.5 18v564q0 60 -12.5 79.5t-66.5 39.5v17q37 2 84.5 13.5t78.5 26.5h6v-294q35 26 81 44t84 18q92 0 152 -65.5t60 -170.5q0 -63 -22.5 -117t-65.5 -95zM254 40q86 0 140.5 60.5t54.5 161.5q0 95 -41 143.5
t-122 48.5q-27 0 -61 -9t-53 -21v-359q20 -12 41 -18.5t41 -6.5z" />
    <glyph glyph-name="c" unicode="c" horiz-adv-x="453" 
d="M255 -12q-93 0 -152.5 70.5t-59.5 188.5q0 127 67 201t174 74q61 0 98 -25.5t37 -67.5q0 -27 -16.5 -45.5t-41.5 -18.5q-24 0 -38 14t-14 38q0 15 4.5 26t14.5 21q-11 3 -23.5 5t-23.5 2q-70 0 -107.5 -49.5t-37.5 -143.5q0 -103 44.5 -161t117.5 -58q31 0 65 14t55 33
l14 -13q-34 -49 -80 -77t-97 -28z" />
    <glyph glyph-name="d" unicode="d" horiz-adv-x="596" 
d="M236 -12q-79 0 -136 70.5t-57 174.5q0 131 76.5 210t189.5 79q22 0 47 -3.5t55 -11.5v71q0 60 -14 79.5t-75 39.5v17q40 2 92 14t81 26h6v-589q0 -60 12.5 -79.5t67.5 -39.5v-13q-39 -4 -73.5 -12.5t-91.5 -30.5h-5v79q-37 -36 -84.5 -58.5t-90.5 -22.5zM138 259
q0 -88 43.5 -145.5t104.5 -57.5q29 0 57 8.5t68 31.5v334q-26 20 -54 30t-57 10q-74 0 -118 -56.5t-44 -154.5z" />
    <glyph glyph-name="e" unicode="e" horiz-adv-x="496" 
d="M262 -12q-99 0 -159 68.5t-60 185.5q0 125 66 202.5t163 77.5q90 0 134 -53.5t44 -162.5v-17t-1 -12h-313v-2.5v-2.5q0 -101 45 -157t122 -56q43 0 80 14t64 40l13 -10q-23 -46 -79 -80.5t-119 -34.5zM263 470q-59 0 -90 -37t-37 -113l225 10q-1 72 -24.5 106t-73.5 34z
" />
    <glyph glyph-name="f" unicode="f" horiz-adv-x="316" 
d="M271 0h-237v18q44 14 56.5 35.5t12.5 74.5v324h-83v58h83v54q0 89 51.5 139.5t135.5 50.5q51 0 80 -19.5t29 -54.5q0 -24 -14.5 -38.5t-39.5 -14.5q-23 0 -36 11.5t-13 32.5q0 12 5.5 23t20.5 25q-3 0 -9.5 0.5t-17.5 0.5q-53 0 -77.5 -34.5t-24.5 -108.5v-67h112v-58
h-112v-324q0 -55 14 -75.5t64 -34.5v-18z" />
    <glyph glyph-name="g" unicode="g" horiz-adv-x="506" 
d="M484 -41q0 -86 -81.5 -140t-196.5 -54q-85 0 -142.5 31.5t-57.5 83.5q0 37 29 69t84 56q-20 10 -30.5 28.5t-10.5 41.5q0 29 18 57.5t51 51.5q-47 25 -70.5 63t-23.5 89q0 84 51 135t131 51q26 0 53.5 -7.5t51.5 -21.5l150 29h4l-8 -75l-106 8q20 -21 31 -49t11 -60
q0 -80 -52.5 -132t-130.5 -52q-17 0 -33.5 3t-34.5 9q-14 -16 -21 -29t-7 -24q0 -18 12.5 -30.5t34.5 -13.5l170 -9q63 -3 93.5 -30t30.5 -79zM88 -99q0 -41 38.5 -62t112.5 -21q73 0 121 28t48 70q0 32 -21.5 49t-64.5 19l-133 6q-16 1 -27.5 2.5t-17.5 3.5
q-27 -20 -41.5 -44.5t-14.5 -50.5zM149 340q0 -65 22 -98t66 -33q45 0 67 32.5t22 98.5q0 65 -22 97.5t-67 32.5q-44 0 -66 -32.5t-22 -97.5z" />
    <glyph glyph-name="h" unicode="h" horiz-adv-x="607" 
d="M264 0h-228v18q44 14 56.5 35.5t12.5 74.5v450q0 60 -12.5 79.5t-66.5 39.5v17q37 2 84.5 13.5t78.5 26.5h6v-306q34 28 83 51t84 23q68 0 107 -45t39 -127v-222q0 -54 12.5 -75t55.5 -35v-18h-223v18q43 14 55 34.5t12 75.5v217q0 53 -26.5 81t-78.5 28
q-27 0 -58.5 -9.5t-61.5 -27.5v-289q0 -53 12.5 -74.5t56.5 -35.5v-18z" />
    <glyph glyph-name="i" unicode="i" horiz-adv-x="295" 
d="M264 0h-225v18q44 14 56.5 35t12.5 75v217q0 61 -12.5 80.5t-66.5 37.5v18q34 2 76.5 13t81.5 28h9v-394q0 -54 12.5 -75t55.5 -35v-18zM200 678q0 -27 -16.5 -44t-42.5 -17q-25 0 -41.5 17t-16.5 44t16.5 44t41.5 17q26 0 42.5 -17t16.5 -44z" />
    <glyph glyph-name="j" unicode="j" horiz-adv-x="294" 
d="M34 -235l-9 12q37 23 59 73.5t22 112.5v382q0 61 -12.5 80.5t-67.5 37.5v18q34 2 79 13.5t82 27.5h9v-520q0 -86 -40.5 -145.5t-121.5 -91.5zM198 678q0 -27 -16.5 -44t-42.5 -17q-25 0 -41.5 17t-16.5 44t16.5 44t41.5 17q26 0 42.5 -17t16.5 -44z" />
    <glyph glyph-name="k" unicode="k" horiz-adv-x="566" 
d="M568 0h-94q-38 0 -61 13.5t-57 61.5l-133 187l92 100q25 28 36 47t11 34q0 17 -15.5 28.5t-45.5 17.5v21h250v-18q-29 -7 -64.5 -32t-75.5 -68l-96 -100l131 -173q38 -50 63 -71.5t59 -29.5v-18zM264 0h-228v18q44 14 56.5 35.5t12.5 74.5v450q0 60 -12.5 79.5
t-66.5 39.5v17q37 2 84.5 13.5t78.5 26.5h6v-626q0 -53 12.5 -74.5t56.5 -35.5v-18z" />
    <glyph glyph-name="l" unicode="l" horiz-adv-x="294" 
d="M263 0h-228v18q45 14 57.5 35t12.5 75v450q0 60 -12.5 79.5t-66.5 39.5v17q37 2 84.5 13.5t78.5 26.5h6v-626q0 -54 12.5 -75t55.5 -35v-18z" />
    <glyph glyph-name="m" unicode="m" horiz-adv-x="917" 
d="M265 0h-225v18q43 14 55.5 35t12.5 75v217q0 61 -12.5 80.5t-66.5 37.5v18q33 2 74.5 13t81.5 28h9v-76q32 27 84 51.5t88 24.5q45 0 77.5 -21.5t48.5 -62.5q54 40 101.5 62t81.5 22q67 0 105 -44.5t38 -127.5v-222q0 -54 12.5 -75t55.5 -35v-18h-224v18q43 14 55.5 35
t12.5 75v217q0 54 -25.5 81.5t-76.5 27.5q-28 0 -61.5 -11.5t-66.5 -33.5q4 -20 5.5 -32.5t1.5 -26.5v-222q0 -54 12.5 -75t55.5 -35v-18h-224v18q43 14 55.5 35t12.5 75v217q0 55 -25 82t-75 27q-28 0 -61 -10t-62 -27v-289q0 -53 12.5 -74.5t56.5 -35.5v-18z" />
    <glyph glyph-name="n" unicode="n" horiz-adv-x="614" 
d="M265 0h-225v18q43 14 55.5 35t12.5 75v217q0 61 -12.5 80.5t-66.5 37.5v18q33 2 74.5 13t81.5 28h9v-74q30 26 83 50t89 24q68 0 108.5 -45t40.5 -127v-222q0 -54 12.5 -75t55.5 -35v-18h-224v18q43 14 55.5 35t12.5 75v217q0 53 -28 81t-80 28q-29 0 -60.5 -9.5
t-62.5 -27.5v-289q0 -53 12.5 -74.5t56.5 -35.5v-18z" />
    <glyph glyph-name="o" unicode="o" horiz-adv-x="579" 
d="M536 257q0 -119 -70 -194t-177 -75q-106 0 -176 75t-70 194q0 118 70 191.5t176 73.5q107 0 177 -73.5t70 -191.5zM144 256q0 -105 37 -160.5t108 -55.5t108 55.5t37 160.5t-37 159.5t-108 54.5t-108 -54.5t-37 -159.5z" />
    <glyph glyph-name="p" unicode="p" horiz-adv-x="601" 
d="M262 -225h-237v18q44 13 56 33.5t12 76.5v442q0 61 -12.5 80.5t-65.5 37.5v18q34 2 77.5 13.5t81.5 27.5h10v-62q30 25 75.5 43.5t86.5 18.5q90 0 151 -68t61 -173q0 -138 -76 -216t-207 -78q-21 0 -48 3.5t-43 8.5v-96q0 -57 14 -77t64 -33v-18zM285 40q85 0 128.5 55.5
t43.5 161.5q0 91 -45.5 145.5t-117.5 54.5q-26 0 -59 -9t-51 -21v-359q15 -11 45.5 -19.5t55.5 -8.5z" />
    <glyph glyph-name="q" unicode="q" horiz-adv-x="591" 
d="M568 -225h-236v18q50 13 63.5 33.5t13.5 76.5v167q-30 -36 -77.5 -59t-97.5 -23q-79 0 -135 70t-56 175q0 133 77 211t197 78q27 0 64 -5t65 -12l39 17h15v-619q0 -55 12 -75.5t56 -34.5v-18zM138 259q0 -87 42 -143t104 -56q31 0 59.5 8t65.5 28v333q-21 18 -48.5 29.5
t-52.5 11.5q-80 0 -125 -55.5t-45 -155.5z" />
    <glyph glyph-name="r" unicode="r" horiz-adv-x="394" 
d="M273 0h-233v18q43 14 55 35t12 75v217q0 61 -12.5 80.5t-65.5 37.5v18q33 2 74.5 13t81.5 28h10v-76q27 29 67.5 52.5t68.5 23.5q26 0 42 -17.5t16 -45.5q0 -26 -14.5 -41t-39.5 -15q-15 0 -25 6t-20 23q-6 10 -9.5 13t-8.5 3q-13 0 -32 -8.5t-45 -27.5v-284
q0 -55 14 -75.5t64 -34.5v-18z" />
    <glyph glyph-name="s" unicode="s" horiz-adv-x="404" 
d="M372 152q0 -72 -53.5 -118t-138.5 -46q-36 0 -73.5 7.5t-67.5 20.5v121h21q29 -53 63 -79.5t72 -26.5q40 0 66 25t26 63q0 32 -21 55t-90 52q-82 34 -108 66t-26 78q0 67 49 109.5t124 42.5q31 0 65.5 -7t58.5 -19v-96h-22q-22 42 -47 60.5t-59 18.5q-39 0 -63 -21.5
t-24 -56.5q0 -30 20.5 -51.5t88.5 -49.5q85 -35 112 -67.5t27 -80.5z" />
    <glyph glyph-name="t" unicode="t" horiz-adv-x="351" 
d="M199 -8q-58 0 -83 32t-25 101v327h-70v20l37 28q26 19 46.5 42.5t57.5 84.5h17v-117h147v-58h-147v-330q0 -30 19.5 -48t53.5 -18q21 0 51 6.5t45 15.5v-24q-26 -26 -67.5 -44t-81.5 -18z" />
    <glyph glyph-name="u" unicode="u" horiz-adv-x="607" 
d="M240 -12q-70 0 -108 41t-38 120v196q0 68 -11.5 85t-59.5 33v18q35 2 76.5 13.5t76.5 27.5h6v-374q0 -41 24 -66.5t64 -25.5q37 0 75.5 11.5t68.5 30.5v247q0 60 -12.5 79.5t-66.5 38.5v18q36 2 83 14t78 27h6v-357q0 -56 11 -74t69 -39v-19q-42 -4 -75 -12.5t-83 -32.5
h-6v85q-40 -36 -89 -60.5t-89 -24.5z" />
    <glyph glyph-name="v" unicode="v" horiz-adv-x="524" 
d="M298 0h-92l-104 311q-39 117 -53.5 143t-44.5 38v18h202v-18q-25 -9 -34 -19.5t-9 -29.5q0 -18 7.5 -49t27.5 -98l71 -227l79 257q3 10 9 29t9 28q7 22 9.5 35.5t2.5 22.5q0 19 -11.5 30.5t-39.5 20.5v18h193v-18q-37 -16 -57.5 -49.5t-54.5 -131.5z" />
    <glyph glyph-name="w" unicode="w" horiz-adv-x="858" 
d="M284 0h-93l-80 311q-25 99 -45.5 136t-57.5 45v18h220v-18q-30 -9 -39 -19t-9 -31t6 -55.5t19 -90.5l49 -212l140 426h87l122 -445l75 261q12 44 17.5 69.5t5.5 39.5q0 27 -10 38t-40 19v18h199v-18q-34 -7 -56 -41t-57 -140l-102 -311h-98l-116 414z" />
    <glyph glyph-name="x" unicode="x" horiz-adv-x="564" 
d="M204 0h-201v18q36 10 70 41t92 107l71 94l-99 141q-25 36 -51 59t-52 32v18h231v-18q-27 -4 -39 -12t-12 -22q0 -10 6.5 -24t21.5 -36l62 -88l23 34q31 45 44.5 72.5t13.5 43.5q0 13 -9.5 21t-30.5 11v18h198v-18q-35 -10 -67.5 -40t-90.5 -108l-54 -72l109 -154
q35 -50 57 -70t55 -30v-18h-228v18q30 8 40 15t10 17q0 8 -6 20t-21 34l-83 116l-38 -54q-33 -48 -46.5 -74t-13.5 -41q0 -13 9 -21t29 -12v-18z" />
    <glyph glyph-name="y" unicode="y" horiz-adv-x="536" 
d="M105 -235q-32 0 -53.5 19.5t-21.5 47.5q0 25 16.5 42t39.5 17q24 0 39.5 -15.5t15.5 -41.5v-8.5t-1 -4.5q33 12 56.5 46.5t42.5 94.5l12 38h-41l-86 274q-42 133 -62 168.5t-58 49.5v18h224v-19q-29 -9 -39 -19.5t-10 -29.5t7 -51.5t27 -102.5l65 -224l72 226
q18 57 25.5 88t7.5 52q0 26 -11.5 40t-41.5 21v19h202v-18q-41 -26 -61.5 -63.5t-62.5 -154.5l-121 -340q-30 -85 -75 -127t-107 -42z" />
    <glyph glyph-name="z" unicode="z" horiz-adv-x="481" 
d="M431 0h-396v40l295 414h-161q-29 0 -51.5 -14.5t-52.5 -49.5h-16l18 120h375v-39l-289 -415h172q31 0 54.5 17t54.5 55h16z" />
    <glyph glyph-name="braceleft" unicode="{" horiz-adv-x="380" 
d="M303 -168v-18q-52 5 -80.5 15.5t-45.5 28.5q-19 20 -28 52t-9 78v115q0 87 -19.5 117.5t-65.5 35.5v25q46 5 65.5 36t19.5 118v106q0 85 32.5 124t130.5 49v-18q-46 -11 -63.5 -44.5t-17.5 -111.5v-97q0 -61 -29 -105t-85 -69q56 -24 85 -68.5t29 -105.5v-106
q0 -79 17.5 -113t63.5 -44z" />
    <glyph glyph-name="bar" unicode="|" horiz-adv-x="241" 
d="M141 -114h-41v868h41v-868z" />
    <glyph glyph-name="braceright" unicode="}" horiz-adv-x="380" 
d="M181 -142q-17 -18 -45.5 -28.5t-80.5 -15.5v18q46 10 63.5 44t17.5 113v106q0 61 29 105.5t85 68.5q-56 25 -85 69t-29 105v97q0 78 -17.5 111.5t-63.5 44.5v18q98 -10 130.5 -49t32.5 -124v-106q0 -87 19.5 -118t65.5 -36v-25q-46 -5 -65.5 -35.5t-19.5 -117.5v-115
q0 -46 -9 -78t-28 -52z" />
    <glyph glyph-name="asciitilde" unicode="~" 
d="M162 282q-21 0 -38.5 -12t-25.5 -30l-36 4q18 54 49 82.5t72 28.5q18 0 42 -5.5t74 -22.5q38 -12 53.5 -16t25.5 -4q19 0 37 12.5t25 29.5l36 -4q-18 -53 -49 -82t-71 -29q-17 0 -40 5t-70 22q-40 13 -56.5 17t-27.5 4z" />
    <glyph glyph-name="exclamdown" unicode="&#xa1;" horiz-adv-x="241" 
d="M180 458q0 28 -17 46t-43 18t-43 -18t-17 -46q0 -27 17.5 -45t42.5 -18t42.5 18t17.5 45zM132 317h-26q-2 -30 -5.5 -64.5t-11.5 -103.5q-16 -129 -20.5 -197.5t-4.5 -131.5h111q0 59 -4.5 125t-20.5 192q-9 76 -12.5 112.5t-5.5 67.5z" />
    <glyph glyph-name="cent" unicode="&#xa2;" 
d="M332 -15h-56v84q-110 13 -175 81.5t-65 174.5q0 110 66.5 183t173.5 88v94h56v-90q35 -1 83 -12t69 -21v-103h-29q-20 43 -51 66.5t-72 26.5v-448q48 2 82 26.5t56 72.5h30l-12 -106q-22 -13 -68 -23.5t-88 -11.5v-82zM138 335q0 -85 37.5 -143.5t100.5 -76.5v438
q-62 -14 -100 -73t-38 -145z" />
    <glyph glyph-name="sterling" unicode="&#xa3;" 
d="M389 0h-342v32q47 36 61.5 49t25.5 25q23 25 34 50t11 52q0 26 -5.5 55t-18.5 72h-100v52h84q-9 31 -13 57t-4 50q0 93 57.5 151.5t144.5 58.5q70 0 114.5 -28.5t44.5 -70.5q0 -27 -17.5 -44.5t-42.5 -17.5q-26 0 -42 15t-16 40q0 17 11.5 30.5t28.5 18.5
q-22 10 -35 12.5t-31 2.5q-60 0 -90 -31.5t-30 -93.5q0 -25 4.5 -52.5t24.5 -97.5h172v-52h-160q4 -19 5.5 -35t1.5 -31q0 -46 -30.5 -95.5t-82.5 -90.5h207q48 0 66.5 9t26.5 42h24q0 -4 0.5 -11.5t0.5 -20.5q0 -47 -26 -74.5t-64 -27.5z" />
    <glyph glyph-name="currency" unicode="&#xa4;" 
d="M144 181l-44 -44l-41 41l44 44q-20 28 -31 60.5t-11 66.5q0 35 11 67t31 59l-45 45l41 41l45 -45q28 21 60 31.5t66 10.5t66 -11.5t60 -32.5l46 46l41 -41l-46 -46q20 -28 31 -59.5t11 -64.5q0 -34 -10.5 -66t-31.5 -60l45 -45l-41 -41l-45 45q-27 -20 -59 -31t-67 -11
t-67 10.5t-59 30.5zM121 349q0 -62 44 -108t105 -46t104.5 46t43.5 108t-43.5 107.5t-104.5 45.5t-105 -45.5t-44 -107.5z" />
    <glyph glyph-name="yen" unicode="&#xa5;" 
d="M398 0h-251v18q50 14 64.5 35t14.5 75v31h-128v50h128v77h-128v51h110l-66 146q-46 101 -73.5 141.5t-56.5 47.5v18h206v-18q-22 -6 -31 -14.5t-9 -23.5q0 -19 11.5 -52.5t37.5 -91.5l62 -136l58 137q27 63 35 89t8 42q0 19 -13 30.5t-44 19.5v18h205v-18
q-28 -5 -56.5 -43.5t-78.5 -144.5l-69 -147h105v-51h-120v-77h120v-50h-120v-31q0 -55 14.5 -75.5t64.5 -34.5v-18z" />
    <glyph glyph-name="brokenbar" unicode="&#xa6;" horiz-adv-x="241" 
d="M141 -114h-41v373h41v-373zM141 378h-41v376h41v-376z" />
    <glyph glyph-name="section" unicode="&#xa7;" 
d="M443 59q0 -62 -52.5 -104.5t-123.5 -42.5q-76 0 -126.5 36t-50.5 88q0 25 19 43t46 18t44 -16.5t17 -42.5q0 -21 -12.5 -36.5t-36.5 -25.5q18 -11 45 -18t52 -7q40 0 68 22t28 55q0 36 -17 58.5t-60 46.5l-144 80q-37 20 -57.5 50.5t-20.5 64.5q0 37 25.5 71.5t70.5 58.5
q-30 23 -44.5 50.5t-14.5 60.5q0 58 48 96.5t124 38.5q64 0 104.5 -29.5t40.5 -71.5q0 -27 -17.5 -44.5t-42.5 -17.5q-26 0 -42 15t-16 40q0 20 11.5 34.5t31.5 18.5q-15 8 -38 13t-42 5q-36 0 -62 -21.5t-26 -51.5q0 -29 20.5 -52t70.5 -49l111 -57q48 -25 73 -57t25 -68
q0 -38 -25.5 -72.5t-71.5 -59.5q35 -24 51.5 -53.5t16.5 -66.5zM191 284l160 -89q19 19 29 40t10 42q0 26 -15.5 48t-44.5 38l-153 81q-16 -17 -25 -38.5t-9 -43.5q0 -25 12.5 -45t35.5 -33z" />
    <glyph glyph-name="dieresis" unicode="&#xa8;" horiz-adv-x="300" 
d="M125 650q0 -24 -15 -39.5t-38 -15.5q-22 0 -37 15.5t-15 39.5t15 39.5t37 15.5q23 0 38 -15.5t15 -39.5zM280 650q0 -24 -15 -39.5t-38 -15.5q-22 0 -37 15.5t-15 39.5t15 39.5t37 15.5q23 0 38 -15.5t15 -39.5z" />
    <glyph glyph-name="copyright" unicode="&#xa9;" horiz-adv-x="807" 
d="M416 123q-91 0 -155 62t-64 159t66 160t157 63q31 0 64.5 -9t71.5 -28v-79h-21q-19 38 -49 58t-68 20q-62 0 -101.5 -50t-39.5 -132q0 -84 41.5 -135t105.5 -51q40 0 72.5 21t50.5 61h22l-10 -83q-26 -15 -66.5 -26t-76.5 -11zM89 344q0 -135 91.5 -229t222.5 -94
q132 0 223.5 94t91.5 229t-92 229.5t-223 94.5t-222.5 -94.5t-91.5 -229.5zM764 344q0 -149 -105.5 -254t-255.5 -105q-149 0 -254.5 105t-105.5 254t105.5 254.5t254.5 105.5t255 -105.5t106 -254.5z" />
    <glyph glyph-name="ordfeminine" unicode="&#xaa;" horiz-adv-x="350" 
d="M208 383q-18 -18 -41.5 -29t-46.5 -11q-39 0 -65 25t-26 64q0 56 50.5 83.5t127.5 21.5v55q0 29 -20.5 46t-51.5 17q-14 0 -25.5 -2.5t-17.5 -6.5q11 -5 16 -15.5t5 -25.5q0 -18 -10.5 -28.5t-28.5 -10.5q-16 0 -26 11.5t-10 30.5q0 30 45.5 56t91.5 26t73.5 -25
t27.5 -69v-165q0 -25 10.5 -37t46.5 -16v-14q-9 -4 -35.5 -11.5t-41.5 -7.5q-18 0 -29.5 8.5t-18.5 29.5zM100 440q0 -23 16.5 -37t41.5 -14q9 0 24.5 4t24.5 8v104q-6 1 -11 1.5t-9 0.5q-45 0 -66 -16.5t-21 -50.5zM328 245h-299v54h299v-54z" />
    <glyph glyph-name="guillemotleft" unicode="&#xab;" horiz-adv-x="456" 
d="M259 88h-44l-189 177l189 178h44l-125 -178zM417 120l-37 1l-149 144l149 145h37l-91 -145z" />
    <glyph glyph-name="logicalnot" unicode="&#xac;" 
d="M464 68h-81v175h-306v76h387v-251z" />
    <glyph glyph-name="uni00AD" unicode="&#xad;" horiz-adv-x="500" 
 />
    <glyph glyph-name="registered" unicode="&#xae;" horiz-adv-x="394" 
d="M200 467h-80v7q14 5 18.5 11.5t4.5 24.5v85q0 17 -4 24t-19 12v7h88q28 0 42.5 -11.5t14.5 -33.5q0 -16 -13 -29t-33 -18l32 -45q11 -15 16 -20t10 -8v-6h-10q-24 0 -32 5t-20 24l-31 46h-7v-32q0 -18 4.5 -24.5t18.5 -11.5v-7zM177 622v-66h16q15 0 26 10t11 25t-6.5 23
t-18.5 8h-28zM76 555q0 -50 36.5 -88.5t85.5 -38.5q47 0 83.5 38.5t36.5 88.5t-36.5 88t-83.5 38q-48 0 -85 -38t-37 -88zM348 555q0 -60 -46 -105t-104 -45q-59 0 -105.5 45t-46.5 105q0 59 46.5 104t105.5 45q58 0 104 -45t46 -104z" />
    <glyph glyph-name="macron" unicode="&#xaf;" horiz-adv-x="300" 
d="M280 619h-260v62h260v-62z" />
    <glyph glyph-name="degree" unicode="&#xb0;" horiz-adv-x="388" 
d="M348 537q0 -66 -46.5 -113.5t-109.5 -47.5t-109.5 47.5t-46.5 113.5t46.5 113.5t109.5 47.5t109.5 -47.5t46.5 -113.5zM95 537q0 -45 27 -75.5t69 -30.5t69.5 30t27.5 76q0 45 -27.5 75t-69.5 30q-41 0 -68.5 -30.5t-27.5 -74.5z" />
    <glyph glyph-name="plusminus" unicode="&#xb1;" 
d="M312 118h-81v125h-154v76h154v176h81v-176h152v-76h-152v-125zM464 0h-387v76h387v-76z" />
    <glyph glyph-name="twosuperior" unicode="&#xb2;" horiz-adv-x="374" 
d="M322 260h-267v32l122 132q36 38 55 77.5t19 73.5q0 37 -21.5 58.5t-58.5 21.5q-14 0 -27.5 -3.5t-21.5 -8.5q16 -6 25 -19t9 -31q0 -23 -14.5 -37t-36.5 -14q-23 0 -38.5 15.5t-15.5 37.5q0 40 42 71.5t101 31.5q61 0 101.5 -32.5t40.5 -84.5q0 -36 -21 -72.5t-89 -100.5
l-79 -75h175v-73z" />
    <glyph glyph-name="threesuperior" unicode="&#xb3;" horiz-adv-x="374" 
d="M343 405q0 -72 -49 -114.5t-122 -42.5q-51 0 -85 22t-34 57q0 23 15 37t39 14q22 0 34.5 -12.5t12.5 -34.5q0 -11 -4 -20.5t-14 -22.5q8 -4 18.5 -6.5t21.5 -2.5q37 0 60.5 28.5t23.5 76.5q0 47 -25 70t-76 23h-18v33l76 105h-151v75h250v-12l-96 -130q58 -10 90.5 -47.5
t32.5 -95.5z" />
    <glyph glyph-name="acute" unicode="&#xb4;" horiz-adv-x="300" 
d="M255 660l-199 -85l-11 20l174 130z" />
    <glyph glyph-name="mu" unicode="&#xb5;" horiz-adv-x="603" 
d="M191 -180q0 -23 -13.5 -39t-32.5 -16q-24 0 -37.5 15t-13.5 43v522q0 68 -11.5 85t-59.5 33v18q35 2 76.5 13.5t76.5 27.5h6v-374q0 -41 24 -66.5t64 -25.5q37 0 75.5 11.5t68.5 30.5v247q0 60 -12.5 79.5t-66.5 38.5v18q36 2 83 14t78 27h6v-357q0 -56 11 -74t69 -39
v-19q-42 -4 -75 -12.5t-83 -32.5h-6v85q-40 -36 -89 -60.5t-89 -24.5q-39 0 -68.5 13t-48.5 39q3 -11 8.5 -26t17.5 -50q26 -67 34 -96.5t8 -47.5z" />
    <glyph glyph-name="paragraph" unicode="&#xb6;" horiz-adv-x="567" 
d="M240 -225h-62v613q-67 3 -107.5 45.5t-40.5 106.5q0 67 37 108.5t101 41.5h349v-14q-21 -10 -30.5 -24t-9.5 -36v-841h-62v862h-175v-862z" />
    <glyph glyph-name="periodcentered" unicode="&#xb7;" horiz-adv-x="212" 
d="M164 355q0 -24 -18 -41.5t-42 -17.5t-41.5 17.5t-17.5 41.5t17.5 42t41.5 18t42 -18t18 -42z" />
    <glyph glyph-name="cedilla" unicode="&#xb8;" horiz-adv-x="300" 
d="M146 -215q-25 0 -48 7.5t-41 21.5l17 17q15 -7 31 -10.5t30 -3.5q19 0 33.5 11t14.5 28q0 18 -30 31.5t-65 14.5l72 98h30l-33 -50q36 -5 61 -28t25 -56q0 -37 -28.5 -59t-68.5 -22z" />
    <glyph glyph-name="onesuperior" unicode="&#xb9;" horiz-adv-x="295" 
d="M265 260h-213v14q46 15 57 34t11 70v223h-2q-20 -9 -42.5 -15.5t-42.5 -10.5l-9 25q39 12 76.5 33t87.5 60h14v-315q0 -54 10 -72t53 -32v-14z" />
    <glyph glyph-name="ordmasculine" unicode="&#xba;" horiz-adv-x="385" 
d="M352 518q0 -72 -47 -123.5t-114 -51.5t-114 51t-47 124t47 122.5t114 49.5t114 -50t47 -122zM110 518q0 -65 20.5 -100t60.5 -35q39 0 59 35t20 100q0 61 -20.5 96.5t-58.5 35.5q-39 0 -60 -35t-21 -97zM343 245h-305v54h305v-54z" />
    <glyph glyph-name="guillemotright" unicode="&#xbb;" horiz-adv-x="456" 
d="M63 121l-37 -1l91 145l-91 145h37l149 -145zM228 88h-44l125 177l-125 178h44l189 -178z" />
    <glyph glyph-name="onequarter" unicode="&#xbc;" horiz-adv-x="768" 
d="M265 260h-213v14q46 15 57 34t11 70v223h-2q-20 -9 -42.5 -15.5t-42.5 -10.5l-9 25q39 12 76.5 33t87.5 60h14v-315q0 -54 10 -72t53 -32v-14zM198 -46h-62l440 773h63zM740 0h-201v14q45 13 57 30t12 63v9h-195v19q52 75 110 151t124 154h38v-274h55v-50h-55v-8
q0 -51 9.5 -66.5t45.5 -27.5v-14zM478 166h130v175q-31 -36 -70 -88t-60 -87z" />
    <glyph glyph-name="onehalf" unicode="&#xbd;" horiz-adv-x="808" 
d="M756 0h-267v32l122 132q36 38 55 77.5t19 73.5q0 37 -21.5 58.5t-58.5 21.5q-14 0 -27.5 -3.5t-21.5 -8.5q16 -6 25 -19t9 -31q0 -23 -14.5 -37t-36.5 -14q-23 0 -38.5 15.5t-15.5 37.5q0 40 42 71.5t101 31.5q61 0 101.5 -32.5t40.5 -84.5q0 -36 -21 -72.5t-89 -100.5
l-79 -75h175v-73zM265 260h-213v14q46 15 57 34t11 70v223h-2q-20 -9 -42.5 -15.5t-42.5 -10.5l-9 25q39 12 76.5 33t87.5 60h14v-315q0 -54 10 -72t53 -32v-14zM198 -46h-62l440 773h63z" />
    <glyph glyph-name="threequarters" unicode="&#xbe;" horiz-adv-x="828" 
d="M343 405q0 -72 -49 -114.5t-122 -42.5q-51 0 -85 22t-34 57q0 23 15 37t39 14q22 0 34.5 -12.5t12.5 -34.5q0 -11 -4 -20.5t-14 -22.5q8 -4 18.5 -6.5t21.5 -2.5q37 0 60.5 28.5t23.5 76.5q0 47 -25 70t-76 23h-18v33l76 105h-151v75h250v-12l-96 -130q58 -10 90.5 -47.5
t32.5 -95.5zM258 -46h-62l440 773h63zM800 0h-201v14q45 13 57 30t12 63v9h-195v19q52 75 110 151t124 154h38v-274h55v-50h-55v-8q0 -51 9.5 -66.5t45.5 -27.5v-14zM538 166h130v175q-31 -36 -70 -88t-60 -87z" />
    <glyph glyph-name="questiondown" unicode="&#xbf;" horiz-adv-x="447" 
d="M224 317h27q0 -46 -11.5 -87t-47.5 -103q-29 -51 -38 -79.5t-9 -59.5q0 -62 33 -97.5t85 -35.5q24 0 51.5 8t44.5 20h-2.5h-2.5q-32 0 -50 15.5t-18 42.5t17 44t44 17t43.5 -17.5t16.5 -47.5q0 -55 -52 -93t-132 -38q-76 0 -125 47.5t-49 124.5q0 45 18 85t74 103
q49 55 65 86.5t18 64.5zM179 458q0 28 17 46t43 18t43 -18t17 -46q0 -27 -17.5 -45t-42.5 -18t-42.5 18t-17.5 45z" />
    <glyph glyph-name="Agrave" unicode="&#xc0;" horiz-adv-x="709" 
d="M226 0h-218v18q34 13 50.5 33t36.5 65q9 21 20.5 51.5t27.5 75.5l159 447h117l157 -454q48 -138 67.5 -171t57.5 -47v-18h-235v18q33 8 44.5 20t11.5 35t-9.5 59t-33.5 106l-10 28h-252l-9 -27q-24 -71 -32.5 -104t-8.5 -60q0 -22 11.5 -34t47.5 -23v-18zM343 633
l-107 -313h215zM425 765l-11 -20l-199 85l36 65z" />
    <glyph glyph-name="Aacute" unicode="&#xc1;" horiz-adv-x="709" 
d="M226 0h-218v18q34 13 50.5 33t36.5 65q9 21 20.5 51.5t27.5 75.5l159 447h117l157 -454q48 -138 67.5 -171t57.5 -47v-18h-235v18q33 8 44.5 20t11.5 35t-9.5 59t-33.5 106l-10 28h-252l-9 -27q-24 -71 -32.5 -104t-8.5 -60q0 -22 11.5 -34t47.5 -23v-18zM343 633
l-107 -313h215zM505 830l-199 -85l-11 20l174 130z" />
    <glyph glyph-name="Acircumflex" unicode="&#xc2;" horiz-adv-x="709" 
d="M226 0h-218v18q34 13 50.5 33t36.5 65q9 21 20.5 51.5t27.5 75.5l159 447h117l157 -454q48 -138 67.5 -171t57.5 -47v-18h-235v18q33 8 44.5 20t11.5 35t-9.5 59t-33.5 106l-10 28h-252l-9 -27q-24 -71 -32.5 -104t-8.5 -60q0 -22 11.5 -34t47.5 -23v-18zM343 633
l-107 -313h215zM254 744h-29l85 142h90l85 -142h-29l-101 86z" />
    <glyph glyph-name="Atilde" unicode="&#xc3;" horiz-adv-x="709" 
d="M226 0h-218v18q34 13 50.5 33t36.5 65q9 21 20.5 51.5t27.5 75.5l159 447h117l157 -454q48 -138 67.5 -171t57.5 -47v-18h-235v18q33 8 44.5 20t11.5 35t-9.5 59t-33.5 106l-10 28h-252l-9 -27q-24 -71 -32.5 -104t-8.5 -60q0 -22 11.5 -34t47.5 -23v-18zM343 633
l-107 -313h215zM275 811q-18 0 -29 -8t-18 -29l-27 4q3 34 32 64t64 30q13 0 30 -3.5t50 -14.5q26 -9 38 -11.5t20 -2.5q18 0 28 6.5t18 27.5l28 -2q-3 -34 -32.5 -65t-64.5 -31q-14 0 -31.5 4t-50.5 16q-25 9 -36 12t-19 3z" />
    <glyph glyph-name="Adieresis" unicode="&#xc4;" horiz-adv-x="709" 
d="M226 0h-218v18q34 13 50.5 33t36.5 65q9 21 20.5 51.5t27.5 75.5l159 447h117l157 -454q48 -138 67.5 -171t57.5 -47v-18h-235v18q33 8 44.5 20t11.5 35t-9.5 59t-33.5 106l-10 28h-252l-9 -27q-24 -71 -32.5 -104t-8.5 -60q0 -22 11.5 -34t47.5 -23v-18zM343 633
l-107 -313h215zM330 820q0 -24 -15 -39.5t-38 -15.5q-22 0 -37 15.5t-15 39.5t15 39.5t37 15.5q23 0 38 -15.5t15 -39.5zM485 820q0 -24 -15 -39.5t-38 -15.5q-22 0 -37 15.5t-15 39.5t15 39.5t37 15.5q23 0 38 -15.5t15 -39.5z" />
    <glyph glyph-name="Aring" unicode="&#xc5;" horiz-adv-x="709" 
d="M226 0h-218v18q34 13 50.5 33t36.5 65q9 21 20.5 51.5t27.5 75.5l155 435q-24 15 -38 39.5t-14 52.5q0 45 33 77.5t79 32.5q45 0 78.5 -32.5t33.5 -77.5q0 -27 -12.5 -50.5t-35.5 -39.5l154 -444q48 -138 67.5 -171t57.5 -47v-18h-235v18q33 8 44.5 20t11.5 35t-9.5 59
t-33.5 106l-10 28h-252l-9 -27q-24 -71 -32.5 -104t-8.5 -60q0 -22 11.5 -34t47.5 -23v-18zM293 770q0 -27 19.5 -47t45.5 -20t45.5 20t19.5 47t-19 47t-46 20q-26 0 -45.5 -20t-19.5 -47zM343 633l-107 -313h215z" />
    <glyph glyph-name="AE" unicode="&#xc6;" horiz-adv-x="910" 
d="M225 0h-226v18q51 26 93 79.5t109 171.5l144 254q38 66 26 99.5t-84 48.5v19h540v-141h-22q-19 29 -30.5 46.5t-14.5 21.5q-12 13 -24 17.5t-50 4.5h-113v-259h110q25 0 41 9.5t40 44.5h20v-161h-20q-26 38 -42 47.5t-39 9.5h-110v-279h140q35 0 49.5 6.5t32.5 25.5
q5 6 19 24t38 49h21l-19 -156h-457v18q50 14 64.5 35.5t14.5 75.5v137h-209l-12 -22q-30 -54 -42.5 -78.5t-20.5 -41.5q-21 -47 -16 -67.5t49 -38.5v-18zM472 639l-175 -319h179v319h-4z" />
    <glyph glyph-name="Ccedilla" unicode="&#xc7;" horiz-adv-x="662" 
d="M487 -134q0 -37 -28.5 -59t-68.5 -22q-25 0 -48 7.5t-41 21.5l17 17q15 -7 31 -10.5t30 -3.5q19 0 33.5 11t14.5 28q0 18 -30 31.5t-65 14.5l61 83q-158 2 -255.5 96.5t-97.5 252.5q0 81 25.5 148.5t75.5 117.5t119 77t145 27q46 0 108 -12.5t90 -26.5v-132h-23
q-28 62 -68.5 91t-117.5 29q-108 0 -176 -84t-68 -222q0 -140 72 -225.5t185 -85.5q77 0 120.5 31t73.5 98h23l-16 -138q-26 -15 -79 -27t-104 -14l-24 -36q36 -5 61 -28t25 -56z" />
    <glyph glyph-name="Egrave" unicode="&#xc8;" horiz-adv-x="566" 
d="M510 0h-467v18q50 14 64.5 35.5t14.5 75.5v432q0 54 -14.5 75.5t-64.5 35.5v18h440v-141h-22q-19 29 -30.5 46.5t-14.5 21.5q-12 13 -24 17.5t-50 4.5h-123v-259h122q24 0 39 9t40 45h20v-161h-20q-28 39 -42.5 48t-36.5 9h-122v-279h150q35 0 49.5 6.5t32.5 25.5
q5 6 19 24t38 49h21zM395 765l-11 -20l-199 85l36 65z" />
    <glyph glyph-name="Eacute" unicode="&#xc9;" horiz-adv-x="566" 
d="M510 0h-467v18q50 14 64.5 35.5t14.5 75.5v432q0 54 -14.5 75.5t-64.5 35.5v18h440v-141h-22q-19 29 -30.5 46.5t-14.5 21.5q-12 13 -24 17.5t-50 4.5h-123v-259h122q24 0 39 9t40 45h20v-161h-20q-28 39 -42.5 48t-36.5 9h-122v-279h150q35 0 49.5 6.5t32.5 25.5
q5 6 19 24t38 49h21zM425 830l-199 -85l-11 20l174 130z" />
    <glyph glyph-name="Ecircumflex" unicode="&#xca;" horiz-adv-x="566" 
d="M510 0h-467v18q50 14 64.5 35.5t14.5 75.5v432q0 54 -14.5 75.5t-64.5 35.5v18h440v-141h-22q-19 29 -30.5 46.5t-14.5 21.5q-12 13 -24 17.5t-50 4.5h-123v-259h122q24 0 39 9t40 45h20v-161h-20q-28 39 -42.5 48t-36.5 9h-122v-279h150q35 0 49.5 6.5t32.5 25.5
q5 6 19 24t38 49h21zM199 744h-29l85 142h90l85 -142h-29l-101 86z" />
    <glyph glyph-name="Edieresis" unicode="&#xcb;" horiz-adv-x="566" 
d="M510 0h-467v18q50 14 64.5 35.5t14.5 75.5v432q0 54 -14.5 75.5t-64.5 35.5v18h440v-141h-22q-19 29 -30.5 46.5t-14.5 21.5q-12 13 -24 17.5t-50 4.5h-123v-259h122q24 0 39 9t40 45h20v-161h-20q-28 39 -42.5 48t-36.5 9h-122v-279h150q35 0 49.5 6.5t32.5 25.5
q5 6 19 24t38 49h21zM275 820q0 -24 -15 -39.5t-38 -15.5q-22 0 -37 15.5t-15 39.5t15 39.5t37 15.5q23 0 38 -15.5t15 -39.5zM430 820q0 -24 -15 -39.5t-38 -15.5q-22 0 -37 15.5t-15 39.5t15 39.5t37 15.5q23 0 38 -15.5t15 -39.5z" />
    <glyph glyph-name="Igrave" unicode="&#xcc;" horiz-adv-x="343" 
d="M300 0h-257v18q52 14 66.5 35.5t14.5 75.5v432q0 54 -14.5 75.5t-66.5 35.5v18h257v-18q-51 -14 -65.5 -35.5t-14.5 -75.5v-432q0 -54 14.5 -75.5t65.5 -35.5v-18zM277 765l-11 -20l-199 85l36 65z" />
    <glyph glyph-name="Iacute" unicode="&#xcd;" horiz-adv-x="343" 
d="M300 0h-257v18q52 14 66.5 35.5t14.5 75.5v432q0 54 -14.5 75.5t-66.5 35.5v18h257v-18q-51 -14 -65.5 -35.5t-14.5 -75.5v-432q0 -54 14.5 -75.5t65.5 -35.5v-18zM272 830l-199 -85l-11 20l174 130z" />
    <glyph glyph-name="Icircumflex" unicode="&#xce;" horiz-adv-x="343" 
d="M300 0h-257v18q52 14 66.5 35.5t14.5 75.5v432q0 54 -14.5 75.5t-66.5 35.5v18h257v-18q-51 -14 -65.5 -35.5t-14.5 -75.5v-432q0 -54 14.5 -75.5t65.5 -35.5v-18zM71 744h-29l85 142h90l85 -142h-29l-101 86z" />
    <glyph glyph-name="Idieresis" unicode="&#xcf;" horiz-adv-x="343" 
d="M300 0h-257v18q52 14 66.5 35.5t14.5 75.5v432q0 54 -14.5 75.5t-66.5 35.5v18h257v-18q-51 -14 -65.5 -35.5t-14.5 -75.5v-432q0 -54 14.5 -75.5t65.5 -35.5v-18zM147 820q0 -24 -15 -39.5t-38 -15.5q-22 0 -37 15.5t-15 39.5t15 39.5t37 15.5q23 0 38 -15.5t15 -39.5z
M302 820q0 -24 -15 -39.5t-38 -15.5q-22 0 -37 15.5t-15 39.5t15 39.5t37 15.5q23 0 38 -15.5t15 -39.5z" />
    <glyph glyph-name="Eth" unicode="&#xd0;" horiz-adv-x="733" 
d="M337 0h-300v18q47 13 63.5 37.5t16.5 83.5v190h-71v50h71v172q0 59 -16.5 83.5t-63.5 37.5v18h309q159 0 259 -90t100 -239q0 -168 -99.5 -264.5t-268.5 -96.5zM215 51h125q116 0 186 84.5t70 221.5q0 117 -72 199.5t-173 82.5h-136v-260h121v-50h-121v-278z" />
    <glyph glyph-name="Ntilde" unicode="&#xd1;" horiz-adv-x="798" 
d="M692 -10h-66l-451 586h-1v-376q0 -40 1.5 -65.5t4.5 -42.5q6 -31 19.5 -46.5t49.5 -27.5v-18h-217v18q37 12 50 27.5t18 46.5q3 17 4.5 42.5t1.5 65.5v396q0 26 -23.5 45.5t-69.5 30.5v18h199l411 -531h2v331q0 39 -1.5 65t-4.5 43q-6 31 -19.5 46.5t-48.5 27.5v18h215
v-18q-36 -13 -49.5 -28.5t-18.5 -45.5q-3 -18 -4.5 -43.5t-1.5 -64.5v-500zM320 811q-18 0 -29 -8t-18 -29l-27 4q3 34 32 64t64 30q13 0 30 -3.5t50 -14.5q26 -9 38 -11.5t20 -2.5q18 0 28 6.5t18 27.5l28 -2q-3 -34 -32.5 -65t-64.5 -31q-14 0 -31.5 4t-50.5 16
q-25 9 -36 12t-19 3z" />
    <glyph glyph-name="Ograve" unicode="&#xd2;" horiz-adv-x="758" 
d="M718 347q0 -161 -95 -261.5t-244 -100.5t-244 99t-95 260q0 156 97.5 258t241.5 102t241.5 -100.5t97.5 -256.5zM149 344q0 -133 64 -220.5t166 -87.5t165.5 87.5t63.5 220.5q0 135 -63 222t-166 87t-166.5 -87t-63.5 -222zM445 765l-11 -20l-199 85l36 65z" />
    <glyph glyph-name="Oacute" unicode="&#xd3;" horiz-adv-x="758" 
d="M718 347q0 -161 -95 -261.5t-244 -100.5t-244 99t-95 260q0 156 97.5 258t241.5 102t241.5 -100.5t97.5 -256.5zM149 344q0 -133 64 -220.5t166 -87.5t165.5 87.5t63.5 220.5q0 135 -63 222t-166 87t-166.5 -87t-63.5 -222zM515 830l-199 -85l-11 20l174 130z" />
    <glyph glyph-name="Ocircumflex" unicode="&#xd4;" horiz-adv-x="758" 
d="M718 347q0 -161 -95 -261.5t-244 -100.5t-244 99t-95 260q0 156 97.5 258t241.5 102t241.5 -100.5t97.5 -256.5zM149 344q0 -133 64 -220.5t166 -87.5t165.5 87.5t63.5 220.5q0 135 -63 222t-166 87t-166.5 -87t-63.5 -222zM279 744h-29l85 142h90l85 -142h-29l-101 86z
" />
    <glyph glyph-name="Otilde" unicode="&#xd5;" horiz-adv-x="758" 
d="M718 347q0 -161 -95 -261.5t-244 -100.5t-244 99t-95 260q0 156 97.5 258t241.5 102t241.5 -100.5t97.5 -256.5zM149 344q0 -133 64 -220.5t166 -87.5t165.5 87.5t63.5 220.5q0 135 -63 222t-166 87t-166.5 -87t-63.5 -222zM300 811q-18 0 -29 -8t-18 -29l-27 4
q3 34 32 64t64 30q13 0 30 -3.5t50 -14.5q26 -9 38 -11.5t20 -2.5q18 0 28 6.5t18 27.5l28 -2q-3 -34 -32.5 -65t-64.5 -31q-14 0 -31.5 4t-50.5 16q-25 9 -36 12t-19 3z" />
    <glyph glyph-name="Odieresis" unicode="&#xd6;" horiz-adv-x="758" 
d="M718 347q0 -161 -95 -261.5t-244 -100.5t-244 99t-95 260q0 156 97.5 258t241.5 102t241.5 -100.5t97.5 -256.5zM149 344q0 -133 64 -220.5t166 -87.5t165.5 87.5t63.5 220.5q0 135 -63 222t-166 87t-166.5 -87t-63.5 -222zM355 820q0 -24 -15 -39.5t-38 -15.5
q-22 0 -37 15.5t-15 39.5t15 39.5t37 15.5q23 0 38 -15.5t15 -39.5zM510 820q0 -24 -15 -39.5t-38 -15.5q-22 0 -37 15.5t-15 39.5t15 39.5t37 15.5q23 0 38 -15.5t15 -39.5z" />
    <glyph glyph-name="multiply" unicode="&#xd7;" 
d="M269 226l-144 -144l-54 54l144 144l-144 145l54 54l144 -145l146 146l54 -54l-146 -146l146 -145l-54 -54z" />
    <glyph glyph-name="Oslash" unicode="&#xd8;" horiz-adv-x="761" 
d="M149 344q0 -74 21 -136t58 -104l276 505q-26 21 -57.5 32.5t-67.5 11.5q-103 0 -166.5 -87t-63.5 -222zM379 36q102 0 165.5 87.5t63.5 220.5q0 69 -17 127t-49 99l-273 -501q24 -16 51.5 -24.5t58.5 -8.5zM379 -15q-38 0 -74 7t-67 20l-36 -65l-47 24l36 66
q-70 45 -110.5 124.5t-40.5 182.5q0 156 97.5 258t241.5 102q43 0 82.5 -9.5t74.5 -27.5l36 66l47 -23l-39 -71q63 -46 100.5 -122t37.5 -170q0 -161 -95 -261.5t-244 -100.5z" />
    <glyph glyph-name="Ugrave" unicode="&#xd9;" horiz-adv-x="749" 
d="M367 -15q-116 0 -183 53.5t-67 149.5v373q0 55 -14.5 76t-65.5 35v18h256v-18q-50 -14 -64 -35t-14 -76v-379q0 -62 44 -97.5t123 -35.5q90 0 141 38.5t51 107.5v295q0 40 -1.5 66t-5.5 43q-5 30 -19 45.5t-50 27.5v18h218v-18q-37 -13 -50 -28t-19 -46q-3 -17 -4.5 -43
t-1.5 -65v-302q0 -93 -76 -148t-198 -55zM455 765l-11 -20l-199 85l36 65z" />
    <glyph glyph-name="Uacute" unicode="&#xda;" horiz-adv-x="749" 
d="M367 -15q-116 0 -183 53.5t-67 149.5v373q0 55 -14.5 76t-65.5 35v18h256v-18q-50 -14 -64 -35t-14 -76v-379q0 -62 44 -97.5t123 -35.5q90 0 141 38.5t51 107.5v295q0 40 -1.5 66t-5.5 43q-5 30 -19 45.5t-50 27.5v18h218v-18q-37 -13 -50 -28t-19 -46q-3 -17 -4.5 -43
t-1.5 -65v-302q0 -93 -76 -148t-198 -55zM545 830l-199 -85l-11 20l174 130z" />
    <glyph glyph-name="Ucircumflex" unicode="&#xdb;" horiz-adv-x="749" 
d="M367 -15q-116 0 -183 53.5t-67 149.5v373q0 55 -14.5 76t-65.5 35v18h256v-18q-50 -14 -64 -35t-14 -76v-379q0 -62 44 -97.5t123 -35.5q90 0 141 38.5t51 107.5v295q0 40 -1.5 66t-5.5 43q-5 30 -19 45.5t-50 27.5v18h218v-18q-37 -13 -50 -28t-19 -46q-3 -17 -4.5 -43
t-1.5 -65v-302q0 -93 -76 -148t-198 -55zM294 744h-29l85 142h90l85 -142h-29l-101 86z" />
    <glyph glyph-name="Udieresis" unicode="&#xdc;" horiz-adv-x="749" 
d="M367 -15q-116 0 -183 53.5t-67 149.5v373q0 55 -14.5 76t-65.5 35v18h256v-18q-50 -14 -64 -35t-14 -76v-379q0 -62 44 -97.5t123 -35.5q90 0 141 38.5t51 107.5v295q0 40 -1.5 66t-5.5 43q-5 30 -19 45.5t-50 27.5v18h218v-18q-37 -13 -50 -28t-19 -46q-3 -17 -4.5 -43
t-1.5 -65v-302q0 -93 -76 -148t-198 -55zM370 820q0 -24 -15 -39.5t-38 -15.5q-22 0 -37 15.5t-15 39.5t15 39.5t37 15.5q23 0 38 -15.5t15 -39.5zM525 820q0 -24 -15 -39.5t-38 -15.5q-22 0 -37 15.5t-15 39.5t15 39.5t37 15.5q23 0 38 -15.5t15 -39.5z" />
    <glyph glyph-name="Yacute" unicode="&#xdd;" horiz-adv-x="576" 
d="M416 0h-256v18q50 14 64.5 35.5t14.5 75.5v161l-94 196q-50 105 -77 141.5t-60 44.5v18h215v-18q-24 -6 -33 -14.5t-9 -24.5q0 -19 27 -75.5t31 -64.5l65 -138l62 139q29 66 39.5 96.5t10.5 46.5t-9.5 24t-33.5 11v18h195v-18q-39 -9 -67.5 -48.5t-73.5 -136.5l-91 -195
v-163q0 -54 14.5 -75.5t65.5 -35.5v-18zM440 830l-199 -85l-11 20l174 130z" />
    <glyph glyph-name="Thorn" unicode="&#xde;" horiz-adv-x="577" 
d="M307 0h-270v14q46 13 62.5 38.5t16.5 86.5v412q0 61 -16.5 86.5t-62.5 38.5v14h256v-14q-46 -13 -62.5 -38.5t-16.5 -86.5v-11h110q104 0 156.5 -45.5t52.5 -135.5q0 -94 -59 -147t-159 -53h-101v-20q0 -61 19.5 -86.5t73.5 -38.5v-14zM214 499v-299h86q65 0 100.5 43
t35.5 117q0 62 -34 100.5t-94 38.5h-94z" />
    <glyph glyph-name="germandbls" unicode="&#xdf;" horiz-adv-x="589" 
d="M562 199q0 -94 -72 -152.5t-180 -58.5v29q76 6 119.5 47t43.5 109q0 62 -55.5 116.5t-147.5 88.5v16q66 35 100 84.5t34 110.5q0 57 -24 88.5t-66 31.5q-62 0 -90.5 -49.5t-28.5 -154.5v-377q0 -54 12.5 -75t55.5 -35v-18h-225v18q44 14 56.5 35t12.5 75v217
q0 61 -12.5 80.5t-66.5 37.5v18q26 2 46 5t39 8q1 116 54.5 185.5t149.5 69.5q81 0 126.5 -42t45.5 -115q0 -41 -29 -80t-96 -82q97 -41 147.5 -100t50.5 -131z" />
    <glyph glyph-name="agrave" unicode="&#xe0;" horiz-adv-x="505" 
d="M319 54q-38 -33 -74.5 -49.5t-70.5 -16.5q-57 0 -96.5 36t-39.5 89q0 82 69 125t211 53v62q0 55 -31.5 84.5t-90.5 29.5q-22 0 -48 -4.5t-40 -10.5v-5q22 -8 32.5 -20t10.5 -30q0 -21 -14 -34.5t-36 -13.5q-21 0 -35 14t-14 36q0 45 66.5 84t136.5 39q71 0 111 -37.5
t40 -103.5v-261q0 -24 4 -40t13 -25q8 -8 20.5 -12t43.5 -7v-18q-18 -8 -52 -17t-53 -9q-26 0 -43 16.5t-20 45.5zM129 143q0 -41 27.5 -65.5t73.5 -24.5q22 0 42.5 6t45.5 20v162q-7 1 -27 3t-31 2q-67 0 -99 -25t-32 -78zM310 595l-11 -20l-199 85l36 65z" />
    <glyph glyph-name="aacute" unicode="&#xe1;" horiz-adv-x="505" 
d="M319 54q-38 -33 -74.5 -49.5t-70.5 -16.5q-57 0 -96.5 36t-39.5 89q0 82 69 125t211 53v62q0 55 -31.5 84.5t-90.5 29.5q-22 0 -48 -4.5t-40 -10.5v-5q22 -8 32.5 -20t10.5 -30q0 -21 -14 -34.5t-36 -13.5q-21 0 -35 14t-14 36q0 45 66.5 84t136.5 39q71 0 111 -37.5
t40 -103.5v-261q0 -24 4 -40t13 -25q8 -8 20.5 -12t43.5 -7v-18q-18 -8 -52 -17t-53 -9q-26 0 -43 16.5t-20 45.5zM129 143q0 -41 27.5 -65.5t73.5 -24.5q22 0 42.5 6t45.5 20v162q-7 1 -27 3t-31 2q-67 0 -99 -25t-32 -78zM365 660l-199 -85l-11 20l174 130z" />
    <glyph glyph-name="acircumflex" unicode="&#xe2;" horiz-adv-x="505" 
d="M319 54q-38 -33 -74.5 -49.5t-70.5 -16.5q-57 0 -96.5 36t-39.5 89q0 82 69 125t211 53v62q0 55 -31.5 84.5t-90.5 29.5q-22 0 -48 -4.5t-40 -10.5v-5q22 -8 32.5 -20t10.5 -30q0 -21 -14 -34.5t-36 -13.5q-21 0 -35 14t-14 36q0 45 66.5 84t136.5 39q71 0 111 -37.5
t40 -103.5v-261q0 -24 4 -40t13 -25q8 -8 20.5 -12t43.5 -7v-18q-18 -8 -52 -17t-53 -9q-26 0 -43 16.5t-20 45.5zM129 143q0 -41 27.5 -65.5t73.5 -24.5q22 0 42.5 6t45.5 20v162q-7 1 -27 3t-31 2q-67 0 -99 -25t-32 -78zM139 574h-29l85 142h90l85 -142h-29l-101 86z" />
    <glyph glyph-name="atilde" unicode="&#xe3;" horiz-adv-x="505" 
d="M319 54q-38 -33 -74.5 -49.5t-70.5 -16.5q-57 0 -96.5 36t-39.5 89q0 82 69 125t211 53v62q0 55 -31.5 84.5t-90.5 29.5q-22 0 -48 -4.5t-40 -10.5v-5q22 -8 32.5 -20t10.5 -30q0 -21 -14 -34.5t-36 -13.5q-21 0 -35 14t-14 36q0 45 66.5 84t136.5 39q71 0 111 -37.5
t40 -103.5v-261q0 -24 4 -40t13 -25q8 -8 20.5 -12t43.5 -7v-18q-18 -8 -52 -17t-53 -9q-26 0 -43 16.5t-20 45.5zM129 143q0 -41 27.5 -65.5t73.5 -24.5q22 0 42.5 6t45.5 20v162q-7 1 -27 3t-31 2q-67 0 -99 -25t-32 -78zM160 641q-18 0 -29 -8t-18 -29l-27 4q3 34 32 64
t64 30q13 0 30 -3.5t50 -14.5q26 -9 38 -11.5t20 -2.5q18 0 28 6.5t18 27.5l28 -2q-3 -34 -32.5 -65t-64.5 -31q-14 0 -31.5 4t-50.5 16q-25 9 -36 12t-19 3z" />
    <glyph glyph-name="adieresis" unicode="&#xe4;" horiz-adv-x="505" 
d="M319 54q-38 -33 -74.5 -49.5t-70.5 -16.5q-57 0 -96.5 36t-39.5 89q0 82 69 125t211 53v62q0 55 -31.5 84.5t-90.5 29.5q-22 0 -48 -4.5t-40 -10.5v-5q22 -8 32.5 -20t10.5 -30q0 -21 -14 -34.5t-36 -13.5q-21 0 -35 14t-14 36q0 45 66.5 84t136.5 39q71 0 111 -37.5
t40 -103.5v-261q0 -24 4 -40t13 -25q8 -8 20.5 -12t43.5 -7v-18q-18 -8 -52 -17t-53 -9q-26 0 -43 16.5t-20 45.5zM129 143q0 -41 27.5 -65.5t73.5 -24.5q22 0 42.5 6t45.5 20v162q-7 1 -27 3t-31 2q-67 0 -99 -25t-32 -78zM215 650q0 -24 -15 -39.5t-38 -15.5
q-22 0 -37 15.5t-15 39.5t15 39.5t37 15.5q23 0 38 -15.5t15 -39.5zM370 650q0 -24 -15 -39.5t-38 -15.5q-22 0 -37 15.5t-15 39.5t15 39.5t37 15.5q23 0 38 -15.5t15 -39.5z" />
    <glyph glyph-name="aring" unicode="&#xe5;" horiz-adv-x="505" 
d="M319 54q-38 -33 -74.5 -49.5t-70.5 -16.5q-57 0 -96.5 36t-39.5 89q0 82 69 125t211 53v62q0 55 -31.5 84.5t-90.5 29.5q-22 0 -48 -4.5t-40 -10.5v-5q22 -8 32.5 -20t10.5 -30q0 -21 -14 -34.5t-36 -13.5q-21 0 -35 14t-14 36q0 45 66.5 84t136.5 39q71 0 111 -37.5
t40 -103.5v-261q0 -24 4 -40t13 -25q8 -8 20.5 -12t43.5 -7v-18q-18 -8 -52 -17t-53 -9q-26 0 -43 16.5t-20 45.5zM129 143q0 -41 27.5 -65.5t73.5 -24.5q22 0 42.5 6t45.5 20v162q-7 1 -27 3t-31 2q-67 0 -99 -25t-32 -78zM181 670q0 -24 18 -42.5t41 -18.5t41 18.5
t18 42.5t-17.5 42.5t-41.5 18.5q-23 0 -41 -18.5t-18 -42.5zM342 670q0 -41 -30.5 -70.5t-71.5 -29.5q-42 0 -72 29.5t-30 70.5q0 40 30.5 70t71.5 30t71.5 -30t30.5 -70z" />
    <glyph glyph-name="ae" unicode="&#xe6;" horiz-adv-x="739" 
d="M338 76q-50 -50 -88.5 -69t-86.5 -19q-50 0 -87.5 36.5t-37.5 86.5q0 80 64 124t193 55v63q0 58 -27 86t-83 28q-21 0 -41 -4t-35 -11q22 -8 31.5 -20t9.5 -29q0 -22 -14 -36t-35 -14t-35 15.5t-14 38.5q0 44 61 79.5t131 35.5q39 0 69 -18t47 -50q30 33 70.5 50.5
t84.5 17.5q90 0 134 -53.5t44 -162.5v-17t-1 -12h-313v-2.5v-2.5q0 -101 45 -157t122 -56q43 0 80 14t64 40l13 -10q-23 -45 -79 -80t-120 -35q-44 0 -89 24t-77 64zM129 140q0 -37 25.5 -61.5t65.5 -24.5q26 0 54 11.5t51 31.5q-14 28 -22 66t-8 77v2q-6 1 -24 2.5t-26 1.5
q-54 0 -85 -28t-31 -78zM506 470q-59 0 -90 -37t-37 -113l225 10q-1 72 -24.5 106t-73.5 34z" />
    <glyph glyph-name="ccedilla" unicode="&#xe7;" horiz-adv-x="453" 
d="M348 -134q0 -37 -28.5 -59t-68.5 -22q-25 0 -48 7.5t-41 21.5l17 17q15 -7 31 -10.5t30 -3.5q19 0 33.5 11t14.5 28q0 18 -30 31.5t-65 14.5l63 86h-1q-93 0 -152.5 70.5t-59.5 188.5q0 127 67 201t174 74q61 0 98 -25.5t37 -67.5q0 -27 -16.5 -45.5t-41.5 -18.5
q-24 0 -38 14t-14 38q0 15 4.5 26t14.5 21q-11 3 -23.5 5t-23.5 2q-70 0 -107.5 -49.5t-37.5 -143.5q0 -103 44.5 -161t117.5 -58q31 0 65 14t55 33l14 -13q-27 -39 -64.5 -66.5t-78.5 -35.5l-27 -41q36 -5 61 -28t25 -56z" />
    <glyph glyph-name="egrave" unicode="&#xe8;" horiz-adv-x="496" 
d="M262 -12q-99 0 -159 68.5t-60 185.5q0 125 66 202.5t163 77.5q90 0 134 -53.5t44 -162.5v-17t-1 -12h-313v-2.5v-2.5q0 -101 45 -157t122 -56q43 0 80 14t64 40l13 -10q-23 -46 -79 -80.5t-119 -34.5zM263 470q-59 0 -90 -37t-37 -113l225 10q-1 72 -24.5 106t-73.5 34z
M345 595l-11 -20l-199 85l36 65z" />
    <glyph glyph-name="eacute" unicode="&#xe9;" horiz-adv-x="496" 
d="M262 -12q-99 0 -159 68.5t-60 185.5q0 125 66 202.5t163 77.5q90 0 134 -53.5t44 -162.5v-17t-1 -12h-313v-2.5v-2.5q0 -101 45 -157t122 -56q43 0 80 14t64 40l13 -10q-23 -46 -79 -80.5t-119 -34.5zM263 470q-59 0 -90 -37t-37 -113l225 10q-1 72 -24.5 106t-73.5 34z
M385 660l-199 -85l-11 20l174 130z" />
    <glyph glyph-name="ecircumflex" unicode="&#xea;" horiz-adv-x="496" 
d="M262 -12q-99 0 -159 68.5t-60 185.5q0 125 66 202.5t163 77.5q90 0 134 -53.5t44 -162.5v-17t-1 -12h-313v-2.5v-2.5q0 -101 45 -157t122 -56q43 0 80 14t64 40l13 -10q-23 -46 -79 -80.5t-119 -34.5zM263 470q-59 0 -90 -37t-37 -113l225 10q-1 72 -24.5 106t-73.5 34z
M159 574h-29l85 142h90l85 -142h-29l-101 86z" />
    <glyph glyph-name="edieresis" unicode="&#xeb;" horiz-adv-x="496" 
d="M262 -12q-99 0 -159 68.5t-60 185.5q0 125 66 202.5t163 77.5q90 0 134 -53.5t44 -162.5v-17t-1 -12h-313v-2.5v-2.5q0 -101 45 -157t122 -56q43 0 80 14t64 40l13 -10q-23 -46 -79 -80.5t-119 -34.5zM263 470q-59 0 -90 -37t-37 -113l225 10q-1 72 -24.5 106t-73.5 34z
M235 650q0 -24 -15 -39.5t-38 -15.5q-22 0 -37 15.5t-15 39.5t15 39.5t37 15.5q23 0 38 -15.5t15 -39.5zM390 650q0 -24 -15 -39.5t-38 -15.5q-22 0 -37 15.5t-15 39.5t15 39.5t37 15.5q23 0 38 -15.5t15 -39.5z" />
    <glyph glyph-name="igrave" unicode="&#xec;" horiz-adv-x="295" 
d="M264 0h-225v18q44 14 56.5 35t12.5 75v217q0 61 -12.5 80.5t-66.5 37.5v18q33 2 74.5 13t81.5 28h11v-394q0 -54 12.5 -75t55.5 -35v-18zM212 595l-11 -20l-199 85l36 65z" />
    <glyph glyph-name="iacute" unicode="&#xed;" horiz-adv-x="295" 
d="M264 0h-225v18q44 14 56.5 35t12.5 75v217q0 61 -12.5 80.5t-66.5 37.5v18q33 2 74.5 13t81.5 28h11v-394q0 -54 12.5 -75t55.5 -35v-18zM272 660l-199 -85l-11 20l174 130z" />
    <glyph glyph-name="icircumflex" unicode="&#xee;" horiz-adv-x="295" 
d="M264 0h-225v18q44 14 56.5 35t12.5 75v217q0 61 -12.5 80.5t-66.5 37.5v18q33 2 74.5 13t81.5 28h11v-394q0 -54 12.5 -75t55.5 -35v-18zM46 574h-29l85 142h90l85 -142h-29l-101 86z" />
    <glyph glyph-name="idieresis" unicode="&#xef;" horiz-adv-x="295" 
d="M264 0h-225v18q44 14 56.5 35t12.5 75v217q0 61 -12.5 80.5t-66.5 37.5v18q33 2 74.5 13t81.5 28h11v-394q0 -54 12.5 -75t55.5 -35v-18zM122 650q0 -24 -15 -39.5t-38 -15.5q-22 0 -37 15.5t-15 39.5t15 39.5t37 15.5q23 0 38 -15.5t15 -39.5zM277 650q0 -24 -15 -39.5
t-38 -15.5q-22 0 -37 15.5t-15 39.5t15 39.5t37 15.5q23 0 38 -15.5t15 -39.5z" />
    <glyph glyph-name="eth" unicode="&#xf0;" horiz-adv-x="581" 
d="M536 255q0 -119 -70 -193t-177 -74q-106 0 -176 75t-70 194q0 118 70 191.5t176 73.5q19 0 37.5 -3t34.5 -9q-22 35 -52 65.5t-71 58.5l-62 -54l-26 28l55 48q-12 8 -26.5 16.5t-42.5 24.5v57q33 -15 61.5 -29t53.5 -29l64 56l27 -27l-57 -50q127 -80 189 -184t62 -236z
M144 256q0 -105 37 -160.5t108 -55.5t108 55.5t37 160.5t-37 159.5t-108 54.5t-108 -54.5t-37 -159.5z" />
    <glyph glyph-name="ntilde" unicode="&#xf1;" horiz-adv-x="614" 
d="M265 0h-225v18q43 14 55.5 35t12.5 75v217q0 61 -12.5 80.5t-66.5 37.5v18q33 2 74.5 13t81.5 28h9v-74q30 26 83 50t89 24q68 0 108.5 -45t40.5 -127v-222q0 -54 12.5 -75t55.5 -35v-18h-224v18q43 14 55.5 35t12.5 75v217q0 53 -28 81t-80 28q-29 0 -60.5 -9.5
t-62.5 -27.5v-289q0 -53 12.5 -74.5t56.5 -35.5v-18zM225 641q-18 0 -29 -8t-18 -29l-27 4q3 34 32 64t64 30q13 0 30 -3.5t50 -14.5q26 -9 38 -11.5t20 -2.5q18 0 28 6.5t18 27.5l28 -2q-3 -34 -32.5 -65t-64.5 -31q-14 0 -31.5 4t-50.5 16q-25 9 -36 12t-19 3z" />
    <glyph glyph-name="ograve" unicode="&#xf2;" horiz-adv-x="579" 
d="M536 257q0 -119 -70 -194t-177 -75q-106 0 -176 75t-70 194q0 118 70 191.5t176 73.5q107 0 177 -73.5t70 -191.5zM144 256q0 -105 37 -160.5t108 -55.5t108 55.5t37 160.5t-37 159.5t-108 54.5t-108 -54.5t-37 -159.5zM361 595l-11 -20l-199 85l36 65z" />
    <glyph glyph-name="oacute" unicode="&#xf3;" horiz-adv-x="579" 
d="M536 257q0 -119 -70 -194t-177 -75q-106 0 -176 75t-70 194q0 118 70 191.5t176 73.5q107 0 177 -73.5t70 -191.5zM144 256q0 -105 37 -160.5t108 -55.5t108 55.5t37 160.5t-37 159.5t-108 54.5t-108 -54.5t-37 -159.5zM411 660l-199 -85l-11 20l174 130z" />
    <glyph glyph-name="ocircumflex" unicode="&#xf4;" horiz-adv-x="579" 
d="M536 257q0 -119 -70 -194t-177 -75q-106 0 -176 75t-70 194q0 118 70 191.5t176 73.5q107 0 177 -73.5t70 -191.5zM144 256q0 -105 37 -160.5t108 -55.5t108 55.5t37 160.5t-37 159.5t-108 54.5t-108 -54.5t-37 -159.5zM190 574h-29l85 142h90l85 -142h-29l-101 86z" />
    <glyph glyph-name="otilde" unicode="&#xf5;" horiz-adv-x="579" 
d="M536 257q0 -119 -70 -194t-177 -75q-106 0 -176 75t-70 194q0 118 70 191.5t176 73.5q107 0 177 -73.5t70 -191.5zM144 256q0 -105 37 -160.5t108 -55.5t108 55.5t37 160.5t-37 159.5t-108 54.5t-108 -54.5t-37 -159.5zM211 641q-18 0 -29 -8t-18 -29l-27 4q3 34 32 64
t64 30q13 0 30 -3.5t50 -14.5q26 -9 38 -11.5t20 -2.5q18 0 28 6.5t18 27.5l28 -2q-3 -34 -32.5 -65t-64.5 -31q-14 0 -31.5 4t-50.5 16q-25 9 -36 12t-19 3z" />
    <glyph glyph-name="odieresis" unicode="&#xf6;" horiz-adv-x="579" 
d="M536 257q0 -119 -70 -194t-177 -75q-106 0 -176 75t-70 194q0 118 70 191.5t176 73.5q107 0 177 -73.5t70 -191.5zM144 256q0 -105 37 -160.5t108 -55.5t108 55.5t37 160.5t-37 159.5t-108 54.5t-108 -54.5t-37 -159.5zM266 650q0 -24 -15 -39.5t-38 -15.5
q-22 0 -37 15.5t-15 39.5t15 39.5t37 15.5q23 0 38 -15.5t15 -39.5zM421 650q0 -24 -15 -39.5t-38 -15.5q-22 0 -37 15.5t-15 39.5t15 39.5t37 15.5q23 0 38 -15.5t15 -39.5z" />
    <glyph glyph-name="divide" unicode="&#xf7;" 
d="M333 108q0 -25 -18.5 -43.5t-44.5 -18.5q-25 0 -43.5 18.5t-18.5 43.5q0 26 18.5 44.5t43.5 18.5q26 0 44.5 -18.5t18.5 -44.5zM464 243h-387v76h387v-76zM333 449q0 -25 -18.5 -43.5t-44.5 -18.5q-25 0 -43.5 18.5t-18.5 43.5q0 26 18.5 44.5t43.5 18.5q26 0 44.5 -18.5
t18.5 -44.5z" />
    <glyph glyph-name="oslash" unicode="&#xf8;" horiz-adv-x="579" 
d="M289 470q-71 0 -108 -54.5t-37 -159.5q0 -45 7 -81.5t21 -63.5l209 323q-17 18 -40 27t-52 9zM289 40q71 0 108 55.5t37 160.5q0 44 -6.5 79t-19.5 62l-209 -323q18 -17 40.5 -25.5t49.5 -8.5zM536 257q0 -119 -70 -194t-177 -75q-34 0 -65 8.5t-59 24.5l-43 -67l-37 22
l45 70q-42 37 -64.5 91t-22.5 120q0 118 70 191.5t176 73.5q33 0 65.5 -8.5t61.5 -25.5l42 65l36 -23l-43 -67q41 -37 63 -89.5t22 -116.5z" />
    <glyph glyph-name="ugrave" unicode="&#xf9;" horiz-adv-x="607" 
d="M240 -12q-70 0 -108 41t-38 120v196q0 68 -11.5 85t-59.5 33v18q35 2 76.5 13.5t76.5 27.5h6v-374q0 -41 24 -66.5t64 -25.5q37 0 75.5 11.5t68.5 30.5v247q0 60 -12.5 79.5t-66.5 38.5v18q36 2 83 14t78 27h6v-357q0 -56 11 -74t69 -39v-19q-42 -4 -75 -12.5t-83 -32.5
h-6v85q-40 -36 -89 -60.5t-89 -24.5zM365 595l-11 -20l-199 85l36 65z" />
    <glyph glyph-name="uacute" unicode="&#xfa;" horiz-adv-x="607" 
d="M240 -12q-70 0 -108 41t-38 120v196q0 68 -11.5 85t-59.5 33v18q35 2 76.5 13.5t76.5 27.5h6v-374q0 -41 24 -66.5t64 -25.5q37 0 75.5 11.5t68.5 30.5v247q0 60 -12.5 79.5t-66.5 38.5v18q36 2 83 14t78 27h6v-357q0 -56 11 -74t69 -39v-19q-42 -4 -75 -12.5t-83 -32.5
h-6v85q-40 -36 -89 -60.5t-89 -24.5zM435 660l-199 -85l-11 20l174 130z" />
    <glyph glyph-name="ucircumflex" unicode="&#xfb;" horiz-adv-x="607" 
d="M240 -12q-70 0 -108 41t-38 120v196q0 68 -11.5 85t-59.5 33v18q35 2 76.5 13.5t76.5 27.5h6v-374q0 -41 24 -66.5t64 -25.5q37 0 75.5 11.5t68.5 30.5v247q0 60 -12.5 79.5t-66.5 38.5v18q36 2 83 14t78 27h6v-357q0 -56 11 -74t69 -39v-19q-42 -4 -75 -12.5t-83 -32.5
h-6v85q-40 -36 -89 -60.5t-89 -24.5zM199 574h-29l85 142h90l85 -142h-29l-101 86z" />
    <glyph glyph-name="udieresis" unicode="&#xfc;" horiz-adv-x="607" 
d="M240 -12q-70 0 -108 41t-38 120v196q0 68 -11.5 85t-59.5 33v18q35 2 76.5 13.5t76.5 27.5h6v-374q0 -41 24 -66.5t64 -25.5q37 0 75.5 11.5t68.5 30.5v247q0 60 -12.5 79.5t-66.5 38.5v18q36 2 83 14t78 27h6v-357q0 -56 11 -74t69 -39v-19q-42 -4 -75 -12.5t-83 -32.5
h-6v85q-40 -36 -89 -60.5t-89 -24.5zM275 650q0 -24 -15 -39.5t-38 -15.5q-22 0 -37 15.5t-15 39.5t15 39.5t37 15.5q23 0 38 -15.5t15 -39.5zM430 650q0 -24 -15 -39.5t-38 -15.5q-22 0 -37 15.5t-15 39.5t15 39.5t37 15.5q23 0 38 -15.5t15 -39.5z" />
    <glyph glyph-name="yacute" unicode="&#xfd;" horiz-adv-x="536" 
d="M105 -235q-32 0 -53.5 19.5t-21.5 47.5q0 25 16.5 42t39.5 17q24 0 39.5 -15.5t15.5 -41.5v-8.5t-1 -4.5q33 12 56.5 46.5t42.5 94.5l12 38h-41l-86 274q-42 133 -62 168.5t-58 49.5v18h224v-19q-29 -9 -39 -19.5t-10 -29.5t7 -51.5t27 -102.5l65 -224l72 226
q18 57 25.5 88t7.5 52q0 26 -11.5 40t-41.5 21v19h202v-18q-41 -26 -61.5 -63.5t-62.5 -154.5l-121 -340q-30 -85 -75 -127t-107 -42zM405 660l-199 -85l-11 20l174 130z" />
    <glyph glyph-name="thorn" unicode="&#xfe;" horiz-adv-x="598" 
d="M259 -225h-237v18q44 13 56 33.5t12 76.5v674q0 61 -12.5 81t-65.5 38v18q35 2 78.5 13t80.5 27h10v-294q30 25 75.5 43.5t86.5 18.5q90 0 151 -68t61 -173q0 -138 -76 -216t-207 -78q-21 0 -48 3.5t-43 8.5v-96q0 -57 14 -77t64 -33v-18zM282 40q85 0 128.5 55.5
t43.5 161.5q0 91 -45.5 145.5t-117.5 54.5q-26 0 -59 -9t-51 -21v-359q15 -11 45.5 -19.5t55.5 -8.5z" />
    <glyph glyph-name="ydieresis" unicode="&#xff;" horiz-adv-x="536" 
d="M105 -235q-32 0 -53.5 19.5t-21.5 47.5q0 25 16.5 42t39.5 17q24 0 39.5 -15.5t15.5 -41.5v-8.5t-1 -4.5q33 12 56.5 46.5t42.5 94.5l12 38h-41l-86 274q-42 133 -62 168.5t-58 49.5v18h224v-19q-29 -9 -39 -19.5t-10 -29.5t7 -51.5t27 -102.5l65 -224l72 226
q18 57 25.5 88t7.5 52q0 26 -11.5 40t-41.5 21v19h202v-18q-41 -26 -61.5 -63.5t-62.5 -154.5l-121 -340q-30 -85 -75 -127t-107 -42zM245 650q0 -24 -15 -39.5t-38 -15.5q-22 0 -37 15.5t-15 39.5t15 39.5t37 15.5q23 0 38 -15.5t15 -39.5zM400 650q0 -24 -15 -39.5
t-38 -15.5q-22 0 -37 15.5t-15 39.5t15 39.5t37 15.5q23 0 38 -15.5t15 -39.5z" />
    <glyph glyph-name="Amacron" unicode="&#x100;" horiz-adv-x="709" 
d="M226 0h-218v18q34 13 50.5 33t36.5 65q9 21 20.5 51.5t27.5 75.5l159 447h117l157 -454q48 -138 67.5 -171t57.5 -47v-18h-235v18q33 8 44.5 20t11.5 35t-9.5 59t-33.5 106l-10 28h-252l-9 -27q-24 -71 -32.5 -104t-8.5 -60q0 -22 11.5 -34t47.5 -23v-18zM343 633
l-107 -313h215zM485 789h-260v62h260v-62z" />
    <glyph glyph-name="amacron" unicode="&#x101;" horiz-adv-x="505" 
d="M319 54q-38 -33 -74.5 -49.5t-70.5 -16.5q-57 0 -96.5 36t-39.5 89q0 82 69 125t211 53v62q0 55 -31.5 84.5t-90.5 29.5q-22 0 -48 -4.5t-40 -10.5v-5q22 -8 32.5 -20t10.5 -30q0 -21 -14 -34.5t-36 -13.5q-21 0 -35 14t-14 36q0 45 66.5 84t136.5 39q71 0 111 -37.5
t40 -103.5v-261q0 -24 4 -40t13 -25q8 -8 20.5 -12t43.5 -7v-18q-18 -8 -52 -17t-53 -9q-26 0 -43 16.5t-20 45.5zM129 143q0 -41 27.5 -65.5t73.5 -24.5q22 0 42.5 6t45.5 20v162q-7 1 -27 3t-31 2q-67 0 -99 -25t-32 -78zM370 619h-260v62h260v-62z" />
    <glyph glyph-name="Abreve" unicode="&#x102;" horiz-adv-x="709" 
d="M226 0h-218v18q34 13 50.5 33t36.5 65q9 21 20.5 51.5t27.5 75.5l159 447h117l157 -454q48 -138 67.5 -171t57.5 -47v-18h-235v18q33 8 44.5 20t11.5 35t-9.5 59t-33.5 106l-10 28h-252l-9 -27q-24 -71 -32.5 -104t-8.5 -60q0 -22 11.5 -34t47.5 -23v-18zM343 633
l-107 -313h215zM355 744q-51 0 -88 41t-42 101h20q13 -31 43 -49.5t67 -18.5t65.5 17.5t44.5 50.5h20q-7 -62 -43 -102t-87 -40z" />
    <glyph glyph-name="abreve" unicode="&#x103;" horiz-adv-x="505" 
d="M319 54q-38 -33 -74.5 -49.5t-70.5 -16.5q-57 0 -96.5 36t-39.5 89q0 82 69 125t211 53v62q0 55 -31.5 84.5t-90.5 29.5q-22 0 -48 -4.5t-40 -10.5v-5q22 -8 32.5 -20t10.5 -30q0 -21 -14 -34.5t-36 -13.5q-21 0 -35 14t-14 36q0 45 66.5 84t136.5 39q71 0 111 -37.5
t40 -103.5v-261q0 -24 4 -40t13 -25q8 -8 20.5 -12t43.5 -7v-18q-18 -8 -52 -17t-53 -9q-26 0 -43 16.5t-20 45.5zM129 143q0 -41 27.5 -65.5t73.5 -24.5q22 0 42.5 6t45.5 20v162q-7 1 -27 3t-31 2q-67 0 -99 -25t-32 -78zM240 574q-51 0 -88 41t-42 101h20
q13 -31 43 -49.5t67 -18.5t65.5 17.5t44.5 50.5h20q-7 -62 -43 -102t-87 -40z" />
    <glyph glyph-name="Aogonek" unicode="&#x104;" horiz-adv-x="709" 
d="M579 -60q18 13 51 33t43 27h-207v18q33 8 44.5 20t11.5 35t-9.5 59t-33.5 106l-10 28h-252l-9 -27q-24 -71 -32.5 -104t-8.5 -60q0 -22 11.5 -34t47.5 -23v-18h-218v18q34 13 50.5 33t36.5 65q9 21 20.5 51.5t27.5 75.5l159 447h117l157 -454q48 -138 67.5 -171t57.5 -47
v-18q-6 -7 -58 -56t-52 -77q0 -16 12.5 -27t31.5 -11q7 0 14 1.5t43 15.5v-12q-14 -19 -43 -34t-59 -15q-33 0 -53 19.5t-20 47.5q0 22 15 43.5t47 44.5zM343 633l-107 -313h215z" />
    <glyph glyph-name="aogonek" unicode="&#x105;" horiz-adv-x="505" 
d="M384 -215q-33 0 -53 19.5t-20 47.5q0 33 26 65t112 88q-27 -7 -42 -10t-25 -3q-26 0 -43 16.5t-20 45.5q-38 -33 -74.5 -49.5t-70.5 -16.5q-57 0 -96.5 36t-39.5 89q0 82 69 125t211 53v62q0 55 -31.5 84.5t-90.5 29.5q-22 0 -48 -4.5t-40 -10.5v-5q22 -8 32.5 -20
t10.5 -30q0 -21 -14 -34.5t-36 -13.5q-21 0 -35 14t-14 36q0 45 66.5 84t136.5 39q71 0 111 -37.5t40 -103.5v-261q0 -24 4 -40t13 -25q8 -8 20.5 -12t43.5 -7v-18q-7 -8 -28.5 -31.5t-33.5 -37.5q-20 -26 -30 -46t-10 -36t12.5 -27t31.5 -11q7 0 14 1.5t43 15.5v-12
q-14 -19 -43 -34t-59 -15zM129 143q0 -41 27.5 -65.5t73.5 -24.5q22 0 42.5 6t45.5 20v162q-7 1 -27 3t-31 2q-67 0 -99 -25t-32 -78z" />
    <glyph glyph-name="Cacute" unicode="&#x106;" horiz-adv-x="662" 
d="M401 -15q-161 0 -261 94.5t-100 254.5q0 81 25.5 148.5t75.5 117.5t119 77t145 27q46 0 108 -12.5t90 -26.5v-132h-23q-28 62 -68.5 91t-117.5 29q-108 0 -176 -84t-68 -222q0 -140 72 -225.5t185 -85.5q77 0 120.5 31t73.5 98h23l-16 -138q-29 -17 -91 -29.5t-116 -12.5
zM545 830l-199 -85l-11 20l174 130z" />
    <glyph glyph-name="cacute" unicode="&#x107;" horiz-adv-x="453" 
d="M255 -12q-93 0 -152.5 70.5t-59.5 188.5q0 127 67 201t174 74q61 0 98 -25.5t37 -67.5q0 -27 -16.5 -45.5t-41.5 -18.5q-24 0 -38 14t-14 38q0 15 4.5 26t14.5 21q-11 3 -23.5 5t-23.5 2q-70 0 -107.5 -49.5t-37.5 -143.5q0 -103 44.5 -161t117.5 -58q31 0 65 14t55 33
l14 -13q-34 -49 -80 -77t-97 -28zM401 660l-199 -85l-11 20l174 130z" />
    <glyph glyph-name="Ccircumflex" unicode="&#x108;" horiz-adv-x="662" 
d="M401 -15q-161 0 -261 94.5t-100 254.5q0 81 25.5 148.5t75.5 117.5t119 77t145 27q46 0 108 -12.5t90 -26.5v-132h-23q-28 62 -68.5 91t-117.5 29q-108 0 -176 -84t-68 -222q0 -140 72 -225.5t185 -85.5q77 0 120.5 31t73.5 98h23l-16 -138q-29 -17 -91 -29.5t-116 -12.5
zM289 744h-29l85 142h90l85 -142h-29l-101 86z" />
    <glyph glyph-name="ccircumflex" unicode="&#x109;" horiz-adv-x="453" 
d="M255 -12q-93 0 -152.5 70.5t-59.5 188.5q0 127 67 201t174 74q61 0 98 -25.5t37 -67.5q0 -27 -16.5 -45.5t-41.5 -18.5q-24 0 -38 14t-14 38q0 15 4.5 26t14.5 21q-11 3 -23.5 5t-23.5 2q-70 0 -107.5 -49.5t-37.5 -143.5q0 -103 44.5 -161t117.5 -58q31 0 65 14t55 33
l14 -13q-34 -49 -80 -77t-97 -28zM156 574h-29l85 142h90l85 -142h-29l-101 86z" />
    <glyph glyph-name="Cdotaccent" unicode="&#x10a;" horiz-adv-x="662" 
d="M401 -15q-161 0 -261 94.5t-100 254.5q0 81 25.5 148.5t75.5 117.5t119 77t145 27q46 0 108 -12.5t90 -26.5v-132h-23q-28 62 -68.5 91t-117.5 29q-108 0 -176 -84t-68 -222q0 -140 72 -225.5t185 -85.5q77 0 120.5 31t73.5 98h23l-16 -138q-29 -17 -91 -29.5t-116 -12.5
zM453 812q0 -24 -15 -39.5t-38 -15.5q-22 0 -37 15.5t-15 39.5t15 39.5t37 15.5q23 0 38 -15.5t15 -39.5z" />
    <glyph glyph-name="cdotaccent" unicode="&#x10b;" horiz-adv-x="453" 
d="M255 -12q-93 0 -152.5 70.5t-59.5 188.5q0 127 67 201t174 74q61 0 98 -25.5t37 -67.5q0 -27 -16.5 -45.5t-41.5 -18.5q-24 0 -38 14t-14 38q0 15 4.5 26t14.5 21q-11 3 -23.5 5t-23.5 2q-70 0 -107.5 -49.5t-37.5 -143.5q0 -103 44.5 -161t117.5 -58q31 0 65 14t55 33
l14 -13q-34 -49 -80 -77t-97 -28zM310 642q0 -24 -15 -39.5t-38 -15.5q-22 0 -37 15.5t-15 39.5t15 39.5t37 15.5q23 0 38 -15.5t15 -39.5z" />
    <glyph glyph-name="Ccaron" unicode="&#x10c;" horiz-adv-x="662" 
d="M401 -15q-161 0 -261 94.5t-100 254.5q0 81 25.5 148.5t75.5 117.5t119 77t145 27q46 0 108 -12.5t90 -26.5v-132h-23q-28 62 -68.5 91t-117.5 29q-108 0 -176 -84t-68 -222q0 -140 72 -225.5t185 -85.5q77 0 120.5 31t73.5 98h23l-16 -138q-29 -17 -91 -29.5t-116 -12.5
zM438 744h-90l-85 142h29l101 -86l101 86h29z" />
    <glyph glyph-name="ccaron" unicode="&#x10d;" horiz-adv-x="453" 
d="M255 -12q-93 0 -152.5 70.5t-59.5 188.5q0 127 67 201t174 74q61 0 98 -25.5t37 -67.5q0 -27 -16.5 -45.5t-41.5 -18.5q-24 0 -38 14t-14 38q0 15 4.5 26t14.5 21q-11 3 -23.5 5t-23.5 2q-70 0 -107.5 -49.5t-37.5 -143.5q0 -103 44.5 -161t117.5 -58q31 0 65 14t55 33
l14 -13q-34 -49 -80 -77t-97 -28zM302 574h-90l-85 142h29l101 -86l101 86h29z" />
    <glyph glyph-name="Dcaron" unicode="&#x10e;" horiz-adv-x="743" 
d="M337 0h-300v18q47 13 63.5 37.5t16.5 83.5v412q0 59 -16.5 83.5t-63.5 37.5v18h309q159 0 259 -90t100 -239q0 -168 -99.5 -264.5t-268.5 -96.5zM215 639v-588h125q116 0 186 84.5t70 221.5q0 117 -72 199.5t-173 82.5h-136zM411 744h-90l-85 142h29l101 -86l101 86h29z
" />
    <glyph glyph-name="dcaron" unicode="&#x10f;" horiz-adv-x="639" 
d="M236 -12q-79 0 -136 70.5t-57 174.5q0 131 76.5 210t189.5 79q22 0 47 -3.5t55 -11.5v71q0 60 -14 79.5t-75 39.5v17q40 2 92 14t81 26h6v-589q0 -60 12.5 -79.5t67.5 -39.5v-13q-39 -4 -73.5 -12.5t-91.5 -30.5h-5v79q-37 -36 -84.5 -58.5t-90.5 -22.5zM138 259
q0 -88 43.5 -145.5t104.5 -57.5q29 0 57 8.5t68 31.5v334q-26 20 -54 30t-57 10q-74 0 -118 -56.5t-44 -154.5zM614 498h-21q-1 23 -5.5 47t-15.5 65q-7 26 -9 37t-2 19q0 21 12.5 35.5t29.5 14.5q18 0 30.5 -14.5t12.5 -35.5q0 -8 -2 -19.5t-10 -39.5q-11 -41 -15 -64.5
t-5 -44.5z" />
    <glyph glyph-name="Dcroat" unicode="&#x110;" horiz-adv-x="743" 
d="M705 361q0 -168 -99.5 -264.5t-268.5 -96.5h-300v18q47 13 63.5 37.5t16.5 83.5v190h-71v50h71v172q0 59 -16.5 83.5t-63.5 37.5v18h309q159 0 259 -90t100 -239zM215 329v-278h125q116 0 186 84.5t70 221.5q0 117 -72 199.5t-173 82.5h-136v-260h121v-50h-121z" />
    <glyph glyph-name="dcroat" unicode="&#x111;" horiz-adv-x="596" 
d="M138 259q0 -88 43.5 -145.5t104.5 -57.5q29 0 57 8.5t68 31.5v334q-26 20 -54 30t-57 10q-74 0 -118 -56.5t-44 -154.5zM411 -10v79q-37 -36 -84.5 -58.5t-90.5 -22.5q-79 0 -136 70.5t-57 174.5q0 131 76.5 210t189.5 79q22 0 47 -3.5t55 -11.5v63h-163v43h162
q-3 34 -18 50t-70 34v17q40 2 92 14t81 26h6v-141h50v-43h-50v-405q0 -60 12.5 -79.5t67.5 -39.5v-13q-39 -4 -73.5 -12.5t-91.5 -30.5h-5z" />
    <glyph glyph-name="Emacron" unicode="&#x112;" horiz-adv-x="566" 
d="M510 0h-467v18q50 14 64.5 35.5t14.5 75.5v432q0 54 -14.5 75.5t-64.5 35.5v18h440v-141h-22q-19 29 -30.5 46.5t-14.5 21.5q-12 13 -24 17.5t-50 4.5h-123v-259h122q24 0 39 9t40 45h20v-161h-20q-28 39 -42.5 48t-36.5 9h-122v-279h150q35 0 49.5 6.5t32.5 25.5
q5 6 19 24t38 49h21zM430 789h-260v62h260v-62z" />
    <glyph glyph-name="emacron" unicode="&#x113;" horiz-adv-x="496" 
d="M262 -12q-99 0 -159 68.5t-60 185.5q0 125 66 202.5t163 77.5q90 0 134 -53.5t44 -162.5v-17t-1 -12h-313v-2.5v-2.5q0 -101 45 -157t122 -56q43 0 80 14t64 40l13 -10q-23 -46 -79 -80.5t-119 -34.5zM263 470q-59 0 -90 -37t-37 -113l225 10q-1 72 -24.5 106t-73.5 34z
M390 619h-260v62h260v-62z" />
    <glyph glyph-name="Ebreve" unicode="&#x114;" horiz-adv-x="566" 
d="M510 0h-467v18q50 14 64.5 35.5t14.5 75.5v432q0 54 -14.5 75.5t-64.5 35.5v18h440v-141h-22q-19 29 -30.5 46.5t-14.5 21.5q-12 13 -24 17.5t-50 4.5h-123v-259h122q24 0 39 9t40 45h20v-161h-20q-28 39 -42.5 48t-36.5 9h-122v-279h150q35 0 49.5 6.5t32.5 25.5
q5 6 19 24t38 49h21zM300 744q-51 0 -88 41t-42 101h20q13 -31 43 -49.5t67 -18.5t65.5 17.5t44.5 50.5h20q-7 -62 -43 -102t-87 -40z" />
    <glyph glyph-name="ebreve" unicode="&#x115;" horiz-adv-x="496" 
d="M262 -12q-99 0 -159 68.5t-60 185.5q0 125 66 202.5t163 77.5q90 0 134 -53.5t44 -162.5v-17t-1 -12h-313v-2.5v-2.5q0 -101 45 -157t122 -56q43 0 80 14t64 40l13 -10q-23 -46 -79 -80.5t-119 -34.5zM263 470q-59 0 -90 -37t-37 -113l225 10q-1 72 -24.5 106t-73.5 34z
M260 574q-51 0 -88 41t-42 101h20q13 -31 43 -49.5t67 -18.5t65.5 17.5t44.5 50.5h20q-7 -62 -43 -102t-87 -40z" />
    <glyph glyph-name="Edotaccent" unicode="&#x116;" horiz-adv-x="566" 
d="M510 0h-467v18q50 14 64.5 35.5t14.5 75.5v432q0 54 -14.5 75.5t-64.5 35.5v18h440v-141h-22q-19 29 -30.5 46.5t-14.5 21.5q-12 13 -24 17.5t-50 4.5h-123v-259h122q24 0 39 9t40 45h20v-161h-20q-28 39 -42.5 48t-36.5 9h-122v-279h150q35 0 49.5 6.5t32.5 25.5
q5 6 19 24t38 49h21zM353 812q0 -24 -15 -39.5t-38 -15.5q-22 0 -37 15.5t-15 39.5t15 39.5t37 15.5q23 0 38 -15.5t15 -39.5z" />
    <glyph glyph-name="edotaccent" unicode="&#x117;" horiz-adv-x="496" 
d="M262 -12q-99 0 -159 68.5t-60 185.5q0 125 66 202.5t163 77.5q90 0 134 -53.5t44 -162.5v-17t-1 -12h-313v-2.5v-2.5q0 -101 45 -157t122 -56q43 0 80 14t64 40l13 -10q-23 -46 -79 -80.5t-119 -34.5zM263 470q-59 0 -90 -37t-37 -113l225 10q-1 72 -24.5 106t-73.5 34z
M313 642q0 -24 -15 -39.5t-38 -15.5q-22 0 -37 15.5t-15 39.5t15 39.5t37 15.5q23 0 38 -15.5t15 -39.5z" />
    <glyph glyph-name="Eogonek" unicode="&#x118;" horiz-adv-x="566" 
d="M388 -60q18 13 51 33t43 27h-439v18q50 14 64.5 35.5t14.5 75.5v432q0 54 -14.5 75.5t-64.5 35.5v18h440v-141h-22q-19 29 -30.5 46.5t-14.5 21.5q-12 13 -24 17.5t-50 4.5h-123v-259h122q24 0 39 9t40 45h20v-161h-20q-28 39 -42.5 48t-36.5 9h-122v-279h150
q35 0 49.5 6.5t32.5 25.5q5 6 19 24t38 49h21l-19 -156q-6 -7 -58 -56t-52 -77q0 -16 12.5 -27t31.5 -11q7 0 14 1.5t43 15.5v-12q-14 -19 -43 -34t-59 -15q-33 0 -53 19.5t-20 47.5q0 22 15 43.5t47 44.5z" />
    <glyph glyph-name="eogonek" unicode="&#x119;" horiz-adv-x="496" 
d="M344 -215q-33 0 -53 19.5t-20 47.5q0 31 22.5 67.5t83.5 100.5q-27 -16 -56 -24t-59 -8q-99 0 -159 68.5t-60 185.5q0 125 66 202.5t163 77.5q90 0 134 -53.5t44 -162.5v-17t-1 -12h-313v-5q0 -101 45 -157t122 -56q43 0 80 14t64 40l13 -10q-10 -17 -32.5 -56t-33.5 -59
q-26 -47 -37.5 -75.5t-11.5 -45.5q0 -16 12.5 -27t31.5 -11q7 0 14 1.5t43 15.5v-12q-14 -19 -43 -34t-59 -15zM263 470q-59 0 -90 -37t-37 -113l225 10q-1 72 -24.5 106t-73.5 34z" />
    <glyph glyph-name="Ecaron" unicode="&#x11a;" horiz-adv-x="566" 
d="M510 0h-467v18q50 14 64.5 35.5t14.5 75.5v432q0 54 -14.5 75.5t-64.5 35.5v18h440v-141h-22q-19 29 -30.5 46.5t-14.5 21.5q-12 13 -24 17.5t-50 4.5h-123v-259h122q24 0 39 9t40 45h20v-161h-20q-28 39 -42.5 48t-36.5 9h-122v-279h150q35 0 49.5 6.5t32.5 25.5
q5 6 19 24t38 49h21zM345 744h-90l-85 142h29l101 -86l101 86h29z" />
    <glyph glyph-name="ecaron" unicode="&#x11b;" horiz-adv-x="496" 
d="M262 -12q-99 0 -159 68.5t-60 185.5q0 125 66 202.5t163 77.5q90 0 134 -53.5t44 -162.5v-17t-1 -12h-313v-2.5v-2.5q0 -101 45 -157t122 -56q43 0 80 14t64 40l13 -10q-23 -46 -79 -80.5t-119 -34.5zM263 470q-59 0 -90 -37t-37 -113l225 10q-1 72 -24.5 106t-73.5 34z
M305 574h-90l-85 142h29l101 -86l101 86h29z" />
    <glyph glyph-name="Gcircumflex" unicode="&#x11c;" horiz-adv-x="718" 
d="M399 -15q-156 0 -257.5 98.5t-101.5 258.5q0 80 27.5 146.5t80.5 115.5q52 48 122 74t145 26q47 0 107 -11.5t90 -25.5v-143h-25q-33 67 -75 98t-106 31q-116 0 -186 -81.5t-70 -224.5q0 -144 72 -225t194 -81q28 0 60 6.5t64 19.5v144q0 59 -16.5 83.5t-63.5 37.5v18
h233v-18q-40 -15 -51 -39t-11 -82v-181h-4q-22 -5 -101 -25t-127 -20zM304 744h-29l85 142h90l85 -142h-29l-101 86z" />
    <glyph glyph-name="gcircumflex" unicode="&#x11d;" horiz-adv-x="506" 
d="M484 -41q0 -86 -81.5 -140t-196.5 -54q-85 0 -142.5 31.5t-57.5 83.5q0 37 29 69t84 56q-20 10 -30.5 28.5t-10.5 41.5q0 29 18 57.5t51 51.5q-47 25 -70.5 63t-23.5 89q0 84 51 135t131 51q26 0 53.5 -7.5t51.5 -21.5l150 29h4l-8 -75l-106 8q20 -21 31 -49t11 -60
q0 -80 -52.5 -132t-130.5 -52q-17 0 -33.5 3t-34.5 9q-14 -16 -21 -29t-7 -24q0 -18 12.5 -30.5t34.5 -13.5l170 -9q63 -3 93.5 -30t30.5 -79zM88 -99q0 -41 38.5 -62t112.5 -21q73 0 121 28t48 70q0 32 -21.5 49t-64.5 19l-133 6q-16 1 -27.5 2.5t-17.5 3.5
q-27 -20 -41.5 -44.5t-14.5 -50.5zM149 340q0 -65 22 -98t66 -33q45 0 67 32.5t22 98.5q0 65 -22 97.5t-67 32.5q-44 0 -66 -32.5t-22 -97.5zM139 574h-29l85 142h90l85 -142h-29l-101 86z" />
    <glyph glyph-name="Gbreve" unicode="&#x11e;" horiz-adv-x="718" 
d="M399 -15q-156 0 -257.5 98.5t-101.5 258.5q0 80 27.5 146.5t80.5 115.5q52 48 122 74t145 26q47 0 107 -11.5t90 -25.5v-143h-25q-33 67 -75 98t-106 31q-116 0 -186 -81.5t-70 -224.5q0 -144 72 -225t194 -81q28 0 60 6.5t64 19.5v144q0 59 -16.5 83.5t-63.5 37.5v18
h233v-18q-40 -15 -51 -39t-11 -82v-181h-4q-22 -5 -101 -25t-127 -20zM405 744q-51 0 -88 41t-42 101h20q13 -31 43 -49.5t67 -18.5t65.5 17.5t44.5 50.5h20q-7 -62 -43 -102t-87 -40z" />
    <glyph glyph-name="gbreve" unicode="&#x11f;" horiz-adv-x="506" 
d="M484 -41q0 -86 -81.5 -140t-196.5 -54q-85 0 -142.5 31.5t-57.5 83.5q0 37 29 69t84 56q-20 10 -30.5 28.5t-10.5 41.5q0 29 18 57.5t51 51.5q-47 25 -70.5 63t-23.5 89q0 84 51 135t131 51q26 0 53.5 -7.5t51.5 -21.5l150 29h4l-8 -75l-106 8q20 -21 31 -49t11 -60
q0 -80 -52.5 -132t-130.5 -52q-17 0 -33.5 3t-34.5 9q-14 -16 -21 -29t-7 -24q0 -18 12.5 -30.5t34.5 -13.5l170 -9q63 -3 93.5 -30t30.5 -79zM88 -99q0 -41 38.5 -62t112.5 -21q73 0 121 28t48 70q0 32 -21.5 49t-64.5 19l-133 6q-16 1 -27.5 2.5t-17.5 3.5
q-27 -20 -41.5 -44.5t-14.5 -50.5zM149 340q0 -65 22 -98t66 -33q45 0 67 32.5t22 98.5q0 65 -22 97.5t-67 32.5q-44 0 -66 -32.5t-22 -97.5zM240 574q-51 0 -88 41t-42 101h20q13 -31 43 -49.5t67 -18.5t65.5 17.5t44.5 50.5h20q-7 -62 -43 -102t-87 -40z" />
    <glyph glyph-name="Gdotaccent" unicode="&#x120;" horiz-adv-x="718" 
d="M399 -15q-156 0 -257.5 98.5t-101.5 258.5q0 80 27.5 146.5t80.5 115.5q52 48 122 74t145 26q47 0 107 -11.5t90 -25.5v-143h-25q-33 67 -75 98t-106 31q-116 0 -186 -81.5t-70 -224.5q0 -144 72 -225t194 -81q28 0 60 6.5t64 19.5v144q0 59 -16.5 83.5t-63.5 37.5v18
h233v-18q-40 -15 -51 -39t-11 -82v-181h-4q-22 -5 -101 -25t-127 -20zM458 812q0 -24 -15 -39.5t-38 -15.5q-22 0 -37 15.5t-15 39.5t15 39.5t37 15.5q23 0 38 -15.5t15 -39.5z" />
    <glyph glyph-name="gdotaccent" unicode="&#x121;" horiz-adv-x="506" 
d="M484 -41q0 -86 -81.5 -140t-196.5 -54q-85 0 -142.5 31.5t-57.5 83.5q0 37 29 69t84 56q-20 10 -30.5 28.5t-10.5 41.5q0 29 18 57.5t51 51.5q-47 25 -70.5 63t-23.5 89q0 84 51 135t131 51q26 0 53.5 -7.5t51.5 -21.5l150 29h4l-8 -75l-106 8q20 -21 31 -49t11 -60
q0 -80 -52.5 -132t-130.5 -52q-17 0 -33.5 3t-34.5 9q-14 -16 -21 -29t-7 -24q0 -18 12.5 -30.5t34.5 -13.5l170 -9q63 -3 93.5 -30t30.5 -79zM88 -99q0 -41 38.5 -62t112.5 -21q73 0 121 28t48 70q0 32 -21.5 49t-64.5 19l-133 6q-16 1 -27.5 2.5t-17.5 3.5
q-27 -20 -41.5 -44.5t-14.5 -50.5zM149 340q0 -65 22 -98t66 -33q45 0 67 32.5t22 98.5q0 65 -22 97.5t-67 32.5q-44 0 -66 -32.5t-22 -97.5zM293 642q0 -24 -15 -39.5t-38 -15.5q-22 0 -37 15.5t-15 39.5t15 39.5t37 15.5q23 0 38 -15.5t15 -39.5z" />
    <glyph glyph-name="Gcommaaccent" unicode="&#x122;" horiz-adv-x="718" 
d="M399 -15q-156 0 -257.5 98.5t-101.5 258.5q0 80 27.5 146.5t80.5 115.5q52 48 122 74t145 26q47 0 107 -11.5t90 -25.5v-143h-25q-33 67 -75 98t-106 31q-116 0 -186 -81.5t-70 -224.5q0 -144 72 -225t194 -81q28 0 60 6.5t64 19.5v144q0 59 -16.5 83.5t-63.5 37.5v18
h233v-18q-40 -15 -51 -39t-11 -82v-181h-4q-22 -5 -101 -25t-127 -20zM383 -235h-30q18 26 27.5 46.5t9.5 34.5q0 7 -2.5 13.5t-10.5 18.5q-9 13 -12 21t-3 17q0 21 14.5 34.5t35.5 13.5q22 0 36.5 -16t14.5 -42q0 -30 -21 -67t-59 -74z" />
    <glyph glyph-name="gcommaaccent" unicode="&#x123;" horiz-adv-x="506" 
d="M484 -41q0 -86 -81.5 -140t-196.5 -54q-85 0 -142.5 31.5t-57.5 83.5q0 37 29 69t84 56q-20 10 -30.5 28.5t-10.5 41.5q0 29 18 57.5t51 51.5q-47 25 -70.5 63t-23.5 89q0 84 51 135t131 51q26 0 53.5 -7.5t51.5 -21.5l150 29h4l-8 -75l-106 8q20 -21 31 -49t11 -60
q0 -80 -52.5 -132t-130.5 -52q-17 0 -33.5 3t-34.5 9q-14 -16 -21 -29t-7 -24q0 -18 12.5 -30.5t34.5 -13.5l170 -9q63 -3 93.5 -30t30.5 -79zM88 -99q0 -41 38.5 -62t112.5 -21q73 0 121 28t48 70q0 32 -21.5 49t-64.5 19l-133 6q-16 1 -27.5 2.5t-17.5 3.5
q-27 -20 -41.5 -44.5t-14.5 -50.5zM149 340q0 -65 22 -98t66 -33q45 0 67 32.5t22 98.5q0 65 -22 97.5t-67 32.5q-44 0 -66 -32.5t-22 -97.5zM266 610q0 -22 -14 -36t-35 -14q-23 0 -37.5 16t-14.5 41q0 27 16.5 60t54.5 77h30q-13 -20 -20.5 -41.5t-7.5 -35.5
q0 -6 2.5 -12.5t10.5 -18.5q9 -13 12 -20.5t3 -15.5z" />
    <glyph glyph-name="Hcircumflex" unicode="&#x124;" horiz-adv-x="783" 
d="M298 0h-255v18q51 14 65.5 35t14.5 76v432q0 55 -14.5 76t-65.5 35v18h255v-18q-50 -14 -64.5 -35.5t-14.5 -75.5v-179h345v179q0 55 -14.5 76t-66.5 35v18h257v-18q-51 -14 -65.5 -35t-14.5 -76v-432q0 -55 14.5 -76t65.5 -35v-18h-257v18q52 14 66.5 35t14.5 76v198
h-345v-198q0 -54 14.5 -75.5t64.5 -35.5v-18zM289 744h-29l85 142h90l85 -142h-29l-101 86z" />
    <glyph glyph-name="hcircumflex" unicode="&#x125;" horiz-adv-x="607" 
d="M264 0h-228v18q44 14 56.5 35.5t12.5 74.5v450q0 60 -12.5 79.5t-66.5 39.5v17q37 2 84.5 13.5t78.5 26.5h6v-306q34 28 83 51t84 23q68 0 107 -45t39 -127v-222q0 -54 12.5 -75t55.5 -35v-18h-223v18q43 14 55 34.5t12 75.5v217q0 53 -26.5 81t-78.5 28
q-27 0 -58.5 -9.5t-61.5 -27.5v-289q0 -53 12.5 -74.5t56.5 -35.5v-18zM44 774h-29l85 142h90l85 -142h-29l-101 86z" />
    <glyph glyph-name="Hbar" unicode="&#x126;" horiz-adv-x="783" 
d="M219 474v-92h345v92h-345zM298 18v-18h-255v18q51 14 65.5 35t14.5 76v345h-78v43h78v44q0 55 -14.5 76t-65.5 35v18h255v-18q-50 -14 -64.5 -35.5t-14.5 -75.5v-44h345v44q0 55 -14.5 76t-66.5 35v18h257v-18q-51 -14 -65.5 -35t-14.5 -76v-44h80v-43h-80v-345
q0 -55 14.5 -76t65.5 -35v-18h-257v18q52 14 66.5 35t14.5 76v198h-345v-198q0 -54 14.5 -75.5t64.5 -35.5z" />
    <glyph glyph-name="hbar" unicode="&#x127;" horiz-adv-x="607" 
d="M264 18v-18h-228v18q44 14 56.5 35.5t12.5 74.5v442h-70v43h69q-3 34 -16 50t-62 34v17q37 2 84.5 13.5t78.5 26.5h6v-141h143v-43h-143v-122q34 28 83 51t84 23q68 0 107 -45t39 -127v-222q0 -54 12.5 -75t55.5 -35v-18h-223v18q43 14 55 34.5t12 75.5v217
q0 53 -26.5 81t-78.5 28q-27 0 -58.5 -9.5t-61.5 -27.5v-289q0 -53 12.5 -74.5t56.5 -35.5z" />
    <glyph glyph-name="Itilde" unicode="&#x128;" horiz-adv-x="343" 
d="M300 0h-257v18q52 14 66.5 35.5t14.5 75.5v432q0 54 -14.5 75.5t-66.5 35.5v18h257v-18q-51 -14 -65.5 -35.5t-14.5 -75.5v-432q0 -54 14.5 -75.5t65.5 -35.5v-18zM92 811q-18 0 -29 -8t-18 -29l-27 4q3 34 32 64t64 30q13 0 30 -3.5t50 -14.5q26 -9 38 -11.5t20 -2.5
q18 0 28 6.5t18 27.5l28 -2q-3 -34 -32.5 -65t-64.5 -31q-14 0 -31.5 4t-50.5 16q-25 9 -36 12t-19 3z" />
    <glyph glyph-name="itilde" unicode="&#x129;" horiz-adv-x="295" 
d="M264 0h-225v18q44 14 56.5 35t12.5 75v217q0 61 -12.5 80.5t-66.5 37.5v18q33 2 74.5 13t81.5 28h11v-394q0 -54 12.5 -75t55.5 -35v-18zM67 641q-18 0 -29 -8t-18 -29l-27 4q3 34 32 64t64 30q13 0 30 -3.5t50 -14.5q26 -9 38 -11.5t20 -2.5q18 0 28 6.5t18 27.5l28 -2
q-3 -34 -32.5 -65t-64.5 -31q-14 0 -31.5 4t-50.5 16q-25 9 -36 12t-19 3z" />
    <glyph glyph-name="Imacron" unicode="&#x12a;" horiz-adv-x="343" 
d="M300 0h-257v18q52 14 66.5 35.5t14.5 75.5v432q0 54 -14.5 75.5t-66.5 35.5v18h257v-18q-51 -14 -65.5 -35.5t-14.5 -75.5v-432q0 -54 14.5 -75.5t65.5 -35.5v-18zM302 789h-260v62h260v-62z" />
    <glyph glyph-name="imacron" unicode="&#x12b;" horiz-adv-x="295" 
d="M264 0h-225v18q44 14 56.5 35t12.5 75v217q0 61 -12.5 80.5t-66.5 37.5v18q33 2 74.5 13t81.5 28h11v-394q0 -54 12.5 -75t55.5 -35v-18zM277 619h-260v62h260v-62z" />
    <glyph glyph-name="Ibreve" unicode="&#x12c;" horiz-adv-x="343" 
d="M300 0h-257v18q52 14 66.5 35.5t14.5 75.5v432q0 54 -14.5 75.5t-66.5 35.5v18h257v-18q-51 -14 -65.5 -35.5t-14.5 -75.5v-432q0 -54 14.5 -75.5t65.5 -35.5v-18zM172 744q-51 0 -88 41t-42 101h20q13 -31 43 -49.5t67 -18.5t65.5 17.5t44.5 50.5h20q-7 -62 -43 -102
t-87 -40z" />
    <glyph glyph-name="ibreve" unicode="&#x12d;" horiz-adv-x="295" 
d="M264 0h-225v18q44 14 56.5 35t12.5 75v217q0 61 -12.5 80.5t-66.5 37.5v18q33 2 74.5 13t81.5 28h11v-394q0 -54 12.5 -75t55.5 -35v-18zM147 574q-51 0 -88 41t-42 101h20q13 -31 43 -49.5t67 -18.5t65.5 17.5t44.5 50.5h20q-7 -62 -43 -102t-87 -40z" />
    <glyph glyph-name="Iogonek" unicode="&#x12e;" horiz-adv-x="343" 
d="M178 -60q18 13 51 33t43 27h-229v18q52 14 66.5 35.5t14.5 75.5v432q0 54 -14.5 75.5t-66.5 35.5v18h257v-18q-51 -14 -65.5 -35.5t-14.5 -75.5v-432q0 -54 14.5 -75.5t65.5 -35.5v-18q-6 -7 -58 -56t-52 -77q0 -16 12.5 -27t31.5 -11q7 0 14 1.5t43 15.5v-12
q-14 -19 -43 -34t-59 -15q-33 0 -53 19.5t-20 47.5q0 22 15 43.5t47 44.5z" />
    <glyph glyph-name="iogonek" unicode="&#x12f;" horiz-adv-x="295" 
d="M200 678q0 -27 -16.5 -44t-42.5 -17q-25 0 -41.5 17t-16.5 44t16.5 44t41.5 17q26 0 42.5 -17t16.5 -44zM142 -60q18 13 51 33t43 27h-197v18q44 14 56.5 35t12.5 75v217q0 61 -12.5 80.5t-66.5 37.5v18q34 2 76.5 13t81.5 28h9v-394q0 -54 12.5 -75t55.5 -35v-18
q-6 -7 -58 -56t-52 -77q0 -16 12.5 -27t31.5 -11q7 0 14 1.5t43 15.5v-12q-14 -19 -43 -34t-59 -15q-33 0 -53 19.5t-20 47.5q0 22 15 43.5t47 44.5z" />
    <glyph glyph-name="Idotaccent" unicode="&#x130;" horiz-adv-x="343" 
d="M300 0h-257v18q52 14 66.5 35.5t14.5 75.5v432q0 54 -14.5 75.5t-66.5 35.5v18h257v-18q-51 -14 -65.5 -35.5t-14.5 -75.5v-432q0 -54 14.5 -75.5t65.5 -35.5v-18zM225 812q0 -24 -15 -39.5t-38 -15.5q-22 0 -37 15.5t-15 39.5t15 39.5t37 15.5q23 0 38 -15.5t15 -39.5z
" />
    <glyph glyph-name="dotlessi" unicode="&#x131;" horiz-adv-x="295" 
d="M264 0h-225v18q44 14 56.5 35t12.5 75v217q0 61 -12.5 80.5t-66.5 37.5v18q33 2 74.5 13t81.5 28h11v-394q0 -54 12.5 -75t55.5 -35v-18z" />
    <glyph glyph-name="IJ" unicode="&#x132;" horiz-adv-x="686" 
d="M300 0h-257v18q52 14 66.5 35.5t14.5 75.5v432q0 54 -14.5 75.5t-66.5 35.5v18h257v-18q-51 -14 -65.5 -35.5t-14.5 -75.5v-432q0 -54 14.5 -75.5t65.5 -35.5v-18zM385 -206l-14 20q47 33 70.5 86t23.5 124v537q0 54 -14.5 75.5t-66.5 35.5v18h257v-18
q-51 -14 -65.5 -35.5t-14.5 -75.5v-498q0 -90 -46.5 -159.5t-129.5 -109.5z" />
    <glyph glyph-name="ij" unicode="&#x133;" horiz-adv-x="587" 
d="M264 0h-225v18q44 14 56.5 35t12.5 75v217q0 61 -12.5 80.5t-66.5 37.5v18q34 2 76.5 13t81.5 28h9v-394q0 -54 12.5 -75t55.5 -35v-18zM200 678q0 -27 -16.5 -44t-42.5 -17q-25 0 -41.5 17t-16.5 44t16.5 44t41.5 17q26 0 42.5 -17t16.5 -44zM328 -235l-9 12
q37 23 59 73.5t22 112.5v382q0 61 -12.5 80.5t-67.5 37.5v18q34 2 79 13.5t82 27.5h9v-520q0 -86 -40.5 -145.5t-121.5 -91.5zM492 678q0 -27 -16.5 -44t-42.5 -17q-25 0 -41.5 17t-16.5 44t16.5 44t41.5 17q26 0 42.5 -17t16.5 -44z" />
    <glyph glyph-name="Jcircumflex" unicode="&#x134;" horiz-adv-x="339" 
d="M42 -206l-14 20q47 33 70.5 86t23.5 124v537q0 54 -14.5 75.5t-66.5 35.5v18h257v-18q-51 -14 -65.5 -35.5t-14.5 -75.5v-498q0 -90 -46.5 -159.5t-129.5 -109.5zM69 744h-29l85 142h90l85 -142h-29l-101 86z" />
    <glyph glyph-name="jcircumflex" unicode="&#x135;" horiz-adv-x="294" 
d="M34 -235l-9 12q37 23 59 73.5t22 112.5v382q0 61 -12.5 80.5t-67.5 37.5v18q34 2 77.5 13.5t81.5 27.5h11v-520q0 -86 -40.5 -145.5t-121.5 -91.5zM44 574h-29l85 142h90l85 -142h-29l-101 86z" />
    <glyph glyph-name="Kcommaaccent" unicode="&#x136;" horiz-adv-x="691" 
d="M292 0h-255v18q51 14 65.5 35t14.5 76v432q0 55 -14.5 76t-65.5 35v18h255v-18q-50 -14 -64 -35t-14 -76v-248h1l182 207q35 41 49 64t14 40q0 15 -12.5 26.5t-38.5 21.5v18h252v-18q-53 -18 -87.5 -45t-115.5 -115l-82 -89l163 -244q55 -81 87.5 -113.5t77.5 -47.5v-18
h-261v18q29 6 37.5 12.5t8.5 16.5q0 16 -15.5 46.5t-49.5 79.5l-118 175l-92 -99v-120q0 -55 14 -76t64 -35v-18zM341 -235h-30q18 26 27.5 46.5t9.5 34.5q0 7 -2.5 13.5t-10.5 18.5q-9 13 -12 21t-3 17q0 21 14.5 34.5t35.5 13.5q22 0 36.5 -16t14.5 -42q0 -30 -21 -67
t-59 -74z" />
    <glyph glyph-name="kcommaaccent" unicode="&#x137;" horiz-adv-x="566" 
d="M568 0h-94q-38 0 -61 13.5t-57 61.5l-133 187l92 100q25 28 36 47t11 34q0 17 -15.5 28.5t-45.5 17.5v21h250v-18q-29 -7 -64.5 -32t-75.5 -68l-96 -100l131 -173q38 -50 63 -71.5t59 -29.5v-18zM264 0h-228v18q44 14 56.5 35.5t12.5 74.5v450q0 60 -12.5 79.5
t-66.5 39.5v17q37 2 84.5 13.5t78.5 26.5h6v-626q0 -53 12.5 -74.5t56.5 -35.5v-18zM278 -235h-30q18 26 27.5 46.5t9.5 34.5q0 7 -2.5 13.5t-10.5 18.5q-9 13 -12 21t-3 17q0 21 14.5 34.5t35.5 13.5q22 0 36.5 -16t14.5 -42q0 -30 -21 -67t-59 -74z" />
    <glyph glyph-name="kgreenlandic" unicode="&#x138;" horiz-adv-x="561" 
d="M569 0h-94q-40 0 -65.5 15t-57.5 60l-133 187l90 100q55 62 50 89t-59 38v21h246v-18q-30 -7 -65.5 -32.5t-75.5 -67.5l-94 -100l131 -173q35 -46 63 -69t64 -32v-18zM265 0h-228v18q44 14 56.5 35.5t12.5 74.5v218q0 60 -12.5 79.5t-66.5 39.5v17q37 2 83.5 13.5
t78.5 26.5h7v-394q0 -53 12.5 -74.5t56.5 -35.5v-18z" />
    <glyph glyph-name="Lacute" unicode="&#x139;" horiz-adv-x="530" 
d="M485 0h-448v18q47 13 63 37.5t16 83.5v412q0 59 -16 83.5t-63 37.5v18h255v-18q-47 -13 -63 -37t-16 -84v-500h148q32 0 53 19t72 87h18zM265 830l-199 -85l-11 20l174 130z" />
    <glyph glyph-name="lacute" unicode="&#x13a;" horiz-adv-x="294" 
d="M263 0h-228v18q45 14 57.5 35t12.5 75v450q0 60 -12.5 79.5t-66.5 39.5v17q37 2 84.5 13.5t78.5 26.5h6v-626q0 -54 12.5 -75t55.5 -35v-18zM248 860l-199 -85l-11 20l174 130z" />
    <glyph glyph-name="Lcommaaccent" unicode="&#x13b;" horiz-adv-x="530" 
d="M485 0h-448v18q47 13 63 37.5t16 83.5v412q0 59 -16 83.5t-63 37.5v18h255v-18q-47 -13 -63 -37t-16 -84v-500h148q32 0 53 19t72 87h18zM263 -235h-30q18 26 27.5 46.5t9.5 34.5q0 7 -2.5 13.5t-10.5 18.5q-9 13 -12 21t-3 17q0 21 14.5 34.5t35.5 13.5q22 0 36.5 -16
t14.5 -42q0 -30 -21 -67t-59 -74z" />
    <glyph glyph-name="lcommaaccent" unicode="&#x13c;" horiz-adv-x="294" 
d="M263 0h-228v18q45 14 57.5 35t12.5 75v450q0 60 -12.5 79.5t-66.5 39.5v17q37 2 84.5 13.5t78.5 26.5h6v-626q0 -54 12.5 -75t55.5 -35v-18zM121 -235h-30q18 26 27.5 46.5t9.5 34.5q0 7 -2.5 13.5t-10.5 18.5q-9 13 -12 21t-3 17q0 21 14.5 34.5t35.5 13.5
q22 0 36.5 -16t14.5 -42q0 -30 -21 -67t-59 -74z" />
    <glyph glyph-name="Lcaron" unicode="&#x13d;" horiz-adv-x="530" 
d="M485 0h-448v18q47 13 63 37.5t16 83.5v412q0 59 -16 83.5t-63 37.5v18h255v-18q-47 -13 -63 -37t-16 -84v-500h148q32 0 53 19t72 87h18zM421 498h-21q-1 23 -5.5 47t-15.5 65q-7 26 -9 37t-2 19q0 21 12.5 35.5t29.5 14.5q18 0 30.5 -14.5t12.5 -35.5q0 -8 -2 -19.5
t-10 -39.5q-11 -41 -15 -64.5t-5 -44.5z" />
    <glyph glyph-name="lcaron" unicode="&#x13e;" horiz-adv-x="321" 
d="M263 0h-228v18q45 14 57.5 35t12.5 75v450q0 60 -12.5 79.5t-66.5 39.5v17q37 2 84.5 13.5t78.5 26.5h6v-626q0 -54 12.5 -75t55.5 -35v-18zM296 498h-21q-1 23 -5.5 47t-15.5 65q-7 26 -9 37t-2 19q0 21 12.5 35.5t29.5 14.5q18 0 30.5 -14.5t12.5 -35.5q0 -8 -2 -19.5
t-10 -39.5q-11 -41 -15 -64.5t-5 -44.5z" />
    <glyph glyph-name="Ldot" unicode="&#x13f;" horiz-adv-x="530" 
d="M485 0h-448v18q47 13 63 37.5t16 83.5v412q0 59 -16 83.5t-63 37.5v18h255v-18q-47 -13 -63 -37t-16 -84v-500h148q32 0 53 19t72 87h18zM423 362q0 -24 -15 -39.5t-38 -15.5q-22 0 -37 15.5t-15 39.5t15 39.5t37 15.5q23 0 38 -15.5t15 -39.5z" />
    <glyph glyph-name="ldot" unicode="&#x140;" horiz-adv-x="302" 
d="M263 0h-228v18q45 14 57.5 35t12.5 75v450q0 60 -12.5 79.5t-66.5 39.5v17q37 2 84.5 13.5t78.5 26.5h6v-626q0 -54 12.5 -75t55.5 -35v-18zM351 402q0 -24 -15 -39.5t-38 -15.5q-22 0 -37 15.5t-15 39.5t15 39.5t37 15.5q23 0 38 -15.5t15 -39.5z" />
    <glyph glyph-name="Lslash" unicode="&#x141;" horiz-adv-x="530" 
d="M504 157l-19 -157h-448v18q47 13 63 37.5t16 83.5v127l-68 -21v56l68 21v229q0 59 -16 83.5t-63 37.5v18h255v-18q-47 -13 -63 -37t-16 -84v-198l147 46v-57l-147 -46v-245h148q32 0 53 19t72 87h18z" />
    <glyph glyph-name="lslash" unicode="&#x142;" horiz-adv-x="294" 
d="M263 18v-18h-228v18q45 14 57.5 35t12.5 75v271l-76 -30v52l76 31v126q0 60 -12.5 79.5t-66.5 39.5v17q37 2 84.5 13.5t78.5 26.5h6v-266l76 31v-53l-76 -30v-308q0 -54 12.5 -75t55.5 -35z" />
    <glyph glyph-name="Nacute" unicode="&#x143;" horiz-adv-x="798" 
d="M692 -10h-66l-451 586h-1v-376q0 -40 1.5 -65.5t4.5 -42.5q6 -31 19.5 -46.5t49.5 -27.5v-18h-217v18q37 12 50 27.5t18 46.5q3 17 4.5 42.5t1.5 65.5v396q0 26 -23.5 45.5t-69.5 30.5v18h199l411 -531h2v331q0 39 -1.5 65t-4.5 43q-6 31 -19.5 46.5t-48.5 27.5v18h215
v-18q-36 -13 -49.5 -28.5t-18.5 -45.5q-3 -18 -4.5 -43.5t-1.5 -64.5v-500zM535 830l-199 -85l-11 20l174 130z" />
    <glyph glyph-name="nacute" unicode="&#x144;" horiz-adv-x="614" 
d="M265 0h-225v18q43 14 55.5 35t12.5 75v217q0 61 -12.5 80.5t-66.5 37.5v18q33 2 74.5 13t81.5 28h9v-74q30 26 83 50t89 24q68 0 108.5 -45t40.5 -127v-222q0 -54 12.5 -75t55.5 -35v-18h-224v18q43 14 55.5 35t12.5 75v217q0 53 -28 81t-80 28q-29 0 -60.5 -9.5
t-62.5 -27.5v-289q0 -53 12.5 -74.5t56.5 -35.5v-18zM445 660l-199 -85l-11 20l174 130z" />
    <glyph glyph-name="Ncommaaccent" unicode="&#x145;" horiz-adv-x="798" 
d="M692 -10h-66l-451 586h-1v-376q0 -40 1.5 -65.5t4.5 -42.5q6 -31 19.5 -46.5t49.5 -27.5v-18h-217v18q37 12 50 27.5t18 46.5q3 17 4.5 42.5t1.5 65.5v396q0 26 -23.5 45.5t-69.5 30.5v18h199l411 -531h2v331q0 39 -1.5 65t-4.5 43q-6 31 -19.5 46.5t-48.5 27.5v18h215
v-18q-36 -13 -49.5 -28.5t-18.5 -45.5q-3 -18 -4.5 -43.5t-1.5 -64.5v-500zM378 -235h-30q18 26 27.5 46.5t9.5 34.5q0 7 -2.5 13.5t-10.5 18.5q-9 13 -12 21t-3 17q0 21 14.5 34.5t35.5 13.5q22 0 36.5 -16t14.5 -42q0 -30 -21 -67t-59 -74z" />
    <glyph glyph-name="ncommaaccent" unicode="&#x146;" horiz-adv-x="614" 
d="M265 0h-225v18q43 14 55.5 35t12.5 75v217q0 61 -12.5 80.5t-66.5 37.5v18q33 2 74.5 13t81.5 28h9v-74q30 26 83 50t89 24q68 0 108.5 -45t40.5 -127v-222q0 -54 12.5 -75t55.5 -35v-18h-224v18q43 14 55.5 35t12.5 75v217q0 53 -28 81t-80 28q-29 0 -60.5 -9.5
t-62.5 -27.5v-289q0 -53 12.5 -74.5t56.5 -35.5v-18zM283 -235h-30q18 26 27.5 46.5t9.5 34.5q0 7 -2.5 13.5t-10.5 18.5q-9 13 -12 21t-3 17q0 21 14.5 34.5t35.5 13.5q22 0 36.5 -16t14.5 -42q0 -30 -21 -67t-59 -74z" />
    <glyph glyph-name="Ncaron" unicode="&#x147;" horiz-adv-x="798" 
d="M692 -10h-66l-451 586h-1v-376q0 -40 1.5 -65.5t4.5 -42.5q6 -31 19.5 -46.5t49.5 -27.5v-18h-217v18q37 12 50 27.5t18 46.5q3 17 4.5 42.5t1.5 65.5v396q0 26 -23.5 45.5t-69.5 30.5v18h199l411 -531h2v331q0 39 -1.5 65t-4.5 43q-6 31 -19.5 46.5t-48.5 27.5v18h215
v-18q-36 -13 -49.5 -28.5t-18.5 -45.5q-3 -18 -4.5 -43.5t-1.5 -64.5v-500zM445 744h-90l-85 142h29l101 -86l101 86h29z" />
    <glyph glyph-name="ncaron" unicode="&#x148;" horiz-adv-x="614" 
d="M265 0h-225v18q43 14 55.5 35t12.5 75v217q0 61 -12.5 80.5t-66.5 37.5v18q33 2 74.5 13t81.5 28h9v-74q30 26 83 50t89 24q68 0 108.5 -45t40.5 -127v-222q0 -54 12.5 -75t55.5 -35v-18h-224v18q43 14 55.5 35t12.5 75v217q0 53 -28 81t-80 28q-29 0 -60.5 -9.5
t-62.5 -27.5v-289q0 -53 12.5 -74.5t56.5 -35.5v-18zM350 574h-90l-85 142h29l101 -86l101 86h29z" />
    <glyph glyph-name="napostrophe" unicode="&#x149;" horiz-adv-x="614" 
d="M265 0h-225v18q43 14 55.5 35t12.5 75v217q0 61 -12.5 80.5t-66.5 37.5v18q33 2 74.5 13t81.5 28h9v-74q30 26 83 50t89 24q68 0 108.5 -45t40.5 -127v-222q0 -54 12.5 -75t55.5 -35v-18h-224v18q43 14 55.5 35t12.5 75v217q0 53 -28 81t-80 28q-29 0 -60.5 -9.5
t-62.5 -27.5v-289q0 -53 12.5 -74.5t56.5 -35.5v-18zM105 560h-30q13 20 20.5 41.5t7.5 35.5q0 6 -2.5 12.5t-10.5 18.5q-9 13 -12 20.5t-3 15.5q0 22 14 36t35 14q23 0 37.5 -16t14.5 -41q0 -27 -16.5 -60t-54.5 -77z" />
    <glyph glyph-name="Eng" unicode="&#x14a;" horiz-adv-x="786" 
d="M515 -160q-23 0 -34.5 11.5t-11.5 35.5q0 11 2.5 19.5t7.5 17.5q11 -4 18.5 -6t15.5 -2q36 0 64 25.5t36 65.5l-438 567h-1v-374q0 -40 1.5 -65.5t4.5 -42.5q6 -31 19.5 -46.5t49.5 -27.5v-18h-217v18q37 12 50 27.5t18 46.5q3 17 4.5 42.5t1.5 65.5v396q0 26 -23.5 45.5
t-69.5 30.5v18h199l412 -529h1v329q0 39 -1.5 65t-4.5 43q-6 31 -19.5 46.5t-48.5 27.5v18h215v-18q-36 -13 -49.5 -28.5t-18.5 -45.5q-3 -18 -4.5 -43.5t-1.5 -64.5v-377q0 -124 -48.5 -198.5t-128.5 -74.5z" />
    <glyph glyph-name="eng" unicode="&#x14b;" horiz-adv-x="602" 
d="M353 -235l-9 12q38 23 60.5 73.5t22.5 112.5v382q0 53 -28 81t-80 28q-29 0 -60.5 -9.5t-62.5 -27.5v-289q0 -53 12.5 -74.5t56.5 -35.5v-18h-225v18q43 14 55.5 35t12.5 75v217q0 61 -12.5 80.5t-66.5 37.5v18q34 2 76.5 13.5t78.5 27.5h10v-74q30 26 83 50t89 24
q68 0 108.5 -45t40.5 -127v-348q0 -86 -40.5 -145.5t-121.5 -91.5z" />
    <glyph glyph-name="Omacron" unicode="&#x14c;" horiz-adv-x="758" 
d="M718 347q0 -161 -95 -261.5t-244 -100.5t-244 99t-95 260q0 156 97.5 258t241.5 102t241.5 -100.5t97.5 -256.5zM149 344q0 -133 64 -220.5t166 -87.5t165.5 87.5t63.5 220.5q0 135 -63 222t-166 87t-166.5 -87t-63.5 -222zM510 789h-260v62h260v-62z" />
    <glyph glyph-name="omacron" unicode="&#x14d;" horiz-adv-x="579" 
d="M536 257q0 -119 -70 -194t-177 -75q-106 0 -176 75t-70 194q0 118 70 191.5t176 73.5q107 0 177 -73.5t70 -191.5zM144 256q0 -105 37 -160.5t108 -55.5t108 55.5t37 160.5t-37 159.5t-108 54.5t-108 -54.5t-37 -159.5zM421 619h-260v62h260v-62z" />
    <glyph glyph-name="Obreve" unicode="&#x14e;" horiz-adv-x="758" 
d="M718 347q0 -161 -95 -261.5t-244 -100.5t-244 99t-95 260q0 156 97.5 258t241.5 102t241.5 -100.5t97.5 -256.5zM149 344q0 -133 64 -220.5t166 -87.5t165.5 87.5t63.5 220.5q0 135 -63 222t-166 87t-166.5 -87t-63.5 -222zM380 744q-51 0 -88 41t-42 101h20
q13 -31 43 -49.5t67 -18.5t65.5 17.5t44.5 50.5h20q-7 -62 -43 -102t-87 -40z" />
    <glyph glyph-name="obreve" unicode="&#x14f;" horiz-adv-x="579" 
d="M536 257q0 -119 -70 -194t-177 -75q-106 0 -176 75t-70 194q0 118 70 191.5t176 73.5q107 0 177 -73.5t70 -191.5zM144 256q0 -105 37 -160.5t108 -55.5t108 55.5t37 160.5t-37 159.5t-108 54.5t-108 -54.5t-37 -159.5zM291 574q-51 0 -88 41t-42 101h20q13 -31 43 -49.5
t67 -18.5t65.5 17.5t44.5 50.5h20q-7 -62 -43 -102t-87 -40z" />
    <glyph glyph-name="Ohungarumlaut" unicode="&#x150;" horiz-adv-x="758" 
d="M718 347q0 -161 -95 -261.5t-244 -100.5t-244 99t-95 260q0 156 97.5 258t241.5 102t241.5 -100.5t97.5 -256.5zM149 344q0 -133 64 -220.5t166 -87.5t165.5 87.5t63.5 220.5q0 135 -63 222t-166 87t-166.5 -87t-63.5 -222zM318 744h-28l36 142h84zM458 744h-28l36 142
h84z" />
    <glyph glyph-name="ohungarumlaut" unicode="&#x151;" horiz-adv-x="579" 
d="M536 257q0 -119 -70 -194t-177 -75q-106 0 -176 75t-70 194q0 118 70 191.5t176 73.5q107 0 177 -73.5t70 -191.5zM144 256q0 -105 37 -160.5t108 -55.5t108 55.5t37 160.5t-37 159.5t-108 54.5t-108 -54.5t-37 -159.5zM234 574h-28l36 142h84zM374 574h-28l36 142h84z
" />
    <glyph glyph-name="OE" unicode="&#x152;" horiz-adv-x="1044" 
d="M382 -15q-149 0 -244 99t-95 260q0 156 97.5 258t241.5 102q71 0 129.5 -29t98.5 -83v98h351v-141h-22q-19 29 -30.5 46.5t-14.5 21.5q-12 13 -24 17.5t-50 4.5h-113v-259h112q25 0 41 9.5t40 44.5h18v-161h-18q-26 38 -42 47.5t-39 9.5h-112v-279h140q35 0 49.5 6.5
t32.5 25.5q5 6 19 24t38 49h21l-19 -156h-378v95q-39 -54 -97.5 -82t-130.5 -28zM152 344q0 -133 64 -220.5t166 -87.5t165.5 87.5t63.5 220.5q0 135 -63 222t-166 87t-166.5 -87t-63.5 -222z" />
    <glyph glyph-name="oe" unicode="&#x153;" horiz-adv-x="883" 
d="M473 91q-30 -50 -77.5 -76.5t-106.5 -26.5q-106 0 -176 75t-70 194q0 118 70 191.5t176 73.5q64 0 114 -28.5t78 -80.5q30 52 76.5 80.5t101.5 28.5q90 0 134 -53.5t44 -162.5v-17t-1 -12h-313v-2.5v-2.5q0 -101 45 -157t122 -56q43 0 80 14t64 40l13 -10
q-23 -46 -79 -80.5t-119 -34.5q-60 0 -105 26.5t-71 76.5zM144 256q0 -105 37 -160.5t108 -55.5t108 55.5t37 160.5t-37 159.5t-108 54.5t-108 -54.5t-37 -159.5zM650 470q-59 0 -90 -37t-37 -113l225 10q-1 72 -24.5 106t-73.5 34z" />
    <glyph glyph-name="Racute" unicode="&#x154;" horiz-adv-x="618" 
d="M291 0h-254v18q51 14 65 34.5t14 76.5v432q0 56 -14 76.5t-65 34.5v18h288q103 0 157.5 -45.5t54.5 -132.5q0 -66 -43.5 -113t-121.5 -68l143 -209q37 -54 57 -73t64 -31v-18h-63q-64 0 -91.5 13.5t-68.5 77.5l-140 217h-60v-179q0 -56 14 -76.5t64 -34.5v-18zM213 643
v-289h81q63 0 103 40.5t40 108.5q0 61 -35.5 100.5t-90.5 39.5h-98zM425 830l-199 -85l-11 20l174 130z" />
    <glyph glyph-name="racute" unicode="&#x155;" horiz-adv-x="394" 
d="M273 0h-233v18q43 14 55 35t12 75v217q0 61 -12.5 80.5t-65.5 37.5v18q33 2 74.5 13t81.5 28h10v-76q27 29 67.5 52.5t68.5 23.5q26 0 42 -17.5t16 -45.5q0 -26 -14.5 -41t-39.5 -15q-15 0 -25 6t-20 23q-6 10 -9.5 13t-8.5 3q-13 0 -32 -8.5t-45 -27.5v-284
q0 -55 14 -75.5t64 -34.5v-18zM351 660l-199 -85l-11 20l174 130z" />
    <glyph glyph-name="Rcommaaccent" unicode="&#x156;" horiz-adv-x="618" 
d="M291 0h-254v18q51 14 65 34.5t14 76.5v432q0 56 -14 76.5t-65 34.5v18h288q103 0 157.5 -45.5t54.5 -132.5q0 -66 -43.5 -113t-121.5 -68l143 -209q37 -54 57 -73t64 -31v-18h-63q-64 0 -91.5 13.5t-68.5 77.5l-140 217h-60v-179q0 -56 14 -76.5t64 -34.5v-18zM213 643
v-289h81q63 0 103 40.5t40 108.5q0 61 -35.5 100.5t-90.5 39.5h-98zM308 -235h-30q18 26 27.5 46.5t9.5 34.5q0 7 -2.5 13.5t-10.5 18.5q-9 13 -12 21t-3 17q0 21 14.5 34.5t35.5 13.5q22 0 36.5 -16t14.5 -42q0 -30 -21 -67t-59 -74z" />
    <glyph glyph-name="rcommaaccent" unicode="&#x157;" horiz-adv-x="394" 
d="M273 0h-233v18q43 14 55 35t12 75v217q0 61 -12.5 80.5t-65.5 37.5v18q33 2 74.5 13t81.5 28h10v-76q27 29 67.5 52.5t68.5 23.5q26 0 42 -17.5t16 -45.5q0 -26 -14.5 -41t-39.5 -15q-15 0 -25 6t-20 23q-6 10 -9.5 13t-8.5 3q-13 0 -32 -8.5t-45 -27.5v-284
q0 -55 14 -75.5t64 -34.5v-18zM119 -235h-30q18 26 27.5 46.5t9.5 34.5q0 7 -2.5 13.5t-10.5 18.5q-9 13 -12 21t-3 17q0 21 14.5 34.5t35.5 13.5q22 0 36.5 -16t14.5 -42q0 -30 -21 -67t-59 -74z" />
    <glyph glyph-name="Rcaron" unicode="&#x158;" horiz-adv-x="618" 
d="M291 0h-254v18q51 14 65 34.5t14 76.5v432q0 56 -14 76.5t-65 34.5v18h288q103 0 157.5 -45.5t54.5 -132.5q0 -66 -43.5 -113t-121.5 -68l143 -209q37 -54 57 -73t64 -31v-18h-63q-64 0 -91.5 13.5t-68.5 77.5l-140 217h-60v-179q0 -56 14 -76.5t64 -34.5v-18zM213 643
v-289h81q63 0 103 40.5t40 108.5q0 61 -35.5 100.5t-90.5 39.5h-98zM345 744h-90l-85 142h29l101 -86l101 86h29z" />
    <glyph glyph-name="rcaron" unicode="&#x159;" horiz-adv-x="394" 
d="M273 0h-233v18q43 14 55 35t12 75v217q0 61 -12.5 80.5t-65.5 37.5v18q33 2 74.5 13t81.5 28h10v-76q27 29 67.5 52.5t68.5 23.5q26 0 42 -17.5t16 -45.5q0 -26 -14.5 -41t-39.5 -15q-15 0 -25 6t-20 23q-6 10 -9.5 13t-8.5 3q-13 0 -32 -8.5t-45 -27.5v-284
q0 -55 14 -75.5t64 -34.5v-18zM261 574h-90l-85 142h29l101 -86l101 86h29z" />
    <glyph glyph-name="Sacute" unicode="&#x15a;" horiz-adv-x="499" 
d="M458 187q0 -87 -65 -144.5t-159 -57.5q-44 0 -94 12t-81 30l-13 148h24q36 -72 77.5 -105.5t97.5 -33.5q49 0 82.5 30.5t33.5 75.5q0 42 -27 78t-116 94q-48 31 -70.5 48t-38.5 34q-26 28 -39 58.5t-13 64.5q0 77 63.5 131t147.5 54q35 0 78.5 -11t85.5 -30v-125h-24
q-33 63 -67 89t-87 26q-45 0 -76.5 -27.5t-31.5 -66.5q0 -38 26.5 -71t113.5 -87q51 -32 75 -50t41 -35q28 -29 42 -61t14 -68zM395 830l-199 -85l-11 20l174 130z" />
    <glyph glyph-name="sacute" unicode="&#x15b;" horiz-adv-x="404" 
d="M372 152q0 -72 -53.5 -118t-138.5 -46q-36 0 -73.5 7.5t-67.5 20.5v121h21q29 -53 63 -79.5t72 -26.5q40 0 66 25t26 63q0 32 -21 55t-90 52q-82 34 -108 66t-26 78q0 67 49 109.5t124 42.5q31 0 65.5 -7t58.5 -19v-96h-22q-22 42 -47 60.5t-59 18.5q-39 0 -63 -21.5
t-24 -56.5q0 -30 20.5 -51.5t88.5 -49.5q85 -35 112 -67.5t27 -80.5zM335 660l-199 -85l-11 20l174 130z" />
    <glyph glyph-name="Scircumflex" unicode="&#x15c;" horiz-adv-x="499" 
d="M458 187q0 -87 -65 -144.5t-159 -57.5q-44 0 -94 12t-81 30l-13 148h24q36 -72 77.5 -105.5t97.5 -33.5q49 0 82.5 30.5t33.5 75.5q0 42 -27 78t-116 94q-48 31 -70.5 48t-38.5 34q-26 28 -39 58.5t-13 64.5q0 77 63.5 131t147.5 54q35 0 78.5 -11t85.5 -30v-125h-24
q-33 63 -67 89t-87 26q-45 0 -76.5 -27.5t-31.5 -66.5q0 -38 26.5 -71t113.5 -87q51 -32 75 -50t41 -35q28 -29 42 -61t14 -68zM154 744h-29l85 142h90l85 -142h-29l-101 86z" />
    <glyph glyph-name="scircumflex" unicode="&#x15d;" horiz-adv-x="404" 
d="M372 152q0 -72 -53.5 -118t-138.5 -46q-36 0 -73.5 7.5t-67.5 20.5v121h21q29 -53 63 -79.5t72 -26.5q40 0 66 25t26 63q0 32 -21 55t-90 52q-82 34 -108 66t-26 78q0 67 49 109.5t124 42.5q31 0 65.5 -7t58.5 -19v-96h-22q-22 42 -47 60.5t-59 18.5q-39 0 -63 -21.5
t-24 -56.5q0 -30 20.5 -51.5t88.5 -49.5q85 -35 112 -67.5t27 -80.5zM99 574h-29l85 142h90l85 -142h-29l-101 86z" />
    <glyph glyph-name="Scedilla" unicode="&#x15e;" horiz-adv-x="499" 
d="M333 -134q0 -37 -28.5 -59t-68.5 -22q-25 0 -48 7.5t-41 21.5l17 17q15 -7 31 -10.5t30 -3.5q19 0 33.5 11t14.5 28q0 18 -30 31.5t-65 14.5l61 83h-5q-44 0 -94 12t-81 30l-13 148h24q36 -72 77.5 -105.5t97.5 -33.5q49 0 82.5 30.5t33.5 75.5q0 42 -27 78t-116 94
q-48 31 -70.5 48t-38.5 34q-26 28 -39 58.5t-13 64.5q0 77 63.5 131t147.5 54q35 0 78.5 -11t85.5 -30v-125h-24q-33 63 -67 89t-87 26q-45 0 -76.5 -27.5t-31.5 -66.5q0 -38 26.5 -71t113.5 -87q51 -32 75 -50t41 -35q28 -29 42 -61t14 -68q0 -77 -52 -132t-134 -67
l-25 -38q36 -5 61 -28t25 -56z" />
    <glyph glyph-name="scedilla" unicode="&#x15f;" horiz-adv-x="404" 
d="M293 -134q0 -37 -28.5 -59t-68.5 -22q-25 0 -48 7.5t-41 21.5l17 17q15 -7 31 -10.5t30 -3.5q19 0 33.5 11t14.5 28q0 18 -30 31.5t-65 14.5l64 87q-4 -1 -8.5 -1h-13.5q-36 0 -73.5 7.5t-67.5 20.5v121h21q29 -53 63 -79.5t72 -26.5q40 0 66 25t26 63q0 32 -21 55
t-90 52q-82 34 -108 66t-26 78q0 67 49 109.5t124 42.5q31 0 65.5 -7t58.5 -19v-96h-22q-22 42 -47 60.5t-59 18.5q-39 0 -63 -21.5t-24 -56.5q0 -30 20.5 -51.5t88.5 -49.5q85 -35 112 -67.5t27 -80.5q0 -58 -37 -101t-99 -57l-29 -44q36 -5 61 -28t25 -56z" />
    <glyph glyph-name="Scaron" unicode="&#x160;" horiz-adv-x="499" 
d="M458 187q0 -87 -65 -144.5t-159 -57.5q-44 0 -94 12t-81 30l-13 148h24q36 -72 77.5 -105.5t97.5 -33.5q49 0 82.5 30.5t33.5 75.5q0 42 -27 78t-116 94q-48 31 -70.5 48t-38.5 34q-26 28 -39 58.5t-13 64.5q0 77 63.5 131t147.5 54q35 0 78.5 -11t85.5 -30v-125h-24
q-33 63 -67 89t-87 26q-45 0 -76.5 -27.5t-31.5 -66.5q0 -38 26.5 -71t113.5 -87q51 -32 75 -50t41 -35q28 -29 42 -61t14 -68zM300 744h-90l-85 142h29l101 -86l101 86h29z" />
    <glyph glyph-name="scaron" unicode="&#x161;" horiz-adv-x="404" 
d="M372 152q0 -72 -53.5 -118t-138.5 -46q-36 0 -73.5 7.5t-67.5 20.5v121h21q29 -53 63 -79.5t72 -26.5q40 0 66 25t26 63q0 32 -21 55t-90 52q-82 34 -108 66t-26 78q0 67 49 109.5t124 42.5q31 0 65.5 -7t58.5 -19v-96h-22q-22 42 -47 60.5t-59 18.5q-39 0 -63 -21.5
t-24 -56.5q0 -30 20.5 -51.5t88.5 -49.5q85 -35 112 -67.5t27 -80.5zM245 574h-90l-85 142h29l101 -86l101 86h29z" />
    <glyph glyph-name="uni0162" unicode="&#x162;" horiz-adv-x="620" 
d="M439 0h-257v18q51 14 65 35t14 76v510h-100q-27 0 -45 -19t-51 -71h-28l12 141h522l12 -141h-28q-33 52 -51 71t-45 19h-100v-510q0 -55 14.5 -76t65.5 -35v-18zM278 -235h-30q18 26 27.5 46.5t9.5 34.5q0 7 -2.5 13.5t-10.5 18.5q-9 13 -12 21t-3 17q0 21 14.5 34.5
t35.5 13.5q22 0 36.5 -16t14.5 -42q0 -30 -21 -67t-59 -74z" />
    <glyph glyph-name="uni0163" unicode="&#x163;" horiz-adv-x="351" 
d="M199 -8q-58 0 -83 32t-25 101v327h-70v20l37 28q26 19 46.5 42.5t57.5 84.5h17v-117h147v-58h-147v-330q0 -30 19.5 -48t53.5 -18q21 0 51 6.5t45 15.5v-24q-26 -26 -67.5 -44t-81.5 -18zM178 -235h-30q18 26 27.5 46.5t9.5 34.5q0 7 -2.5 13.5t-10.5 18.5q-9 13 -12 21
t-3 17q0 21 14.5 34.5t35.5 13.5q22 0 36.5 -16t14.5 -42q0 -30 -21 -67t-59 -74z" />
    <glyph glyph-name="Tcaron" unicode="&#x164;" horiz-adv-x="620" 
d="M439 0h-257v18q51 14 65 35t14 76v510h-100q-27 0 -45 -19t-51 -71h-28l12 141h522l12 -141h-28q-33 52 -51 71t-45 19h-100v-510q0 -55 14.5 -76t65.5 -35v-18zM357 744h-90l-85 142h29l101 -86l101 86h29z" />
    <glyph glyph-name="tcaron" unicode="&#x165;" horiz-adv-x="351" 
d="M199 -8q-58 0 -83 32t-25 101v327h-70v20l37 28q26 19 46.5 42.5t57.5 84.5h17v-117h147v-58h-147v-330q0 -30 19.5 -48t53.5 -18q21 0 51 6.5t45 15.5v-24q-26 -26 -67.5 -44t-81.5 -18zM291 548h-21q-1 23 -5.5 47t-15.5 65q-7 26 -9 37t-2 19q0 21 12.5 35.5
t29.5 14.5q18 0 30.5 -14.5t12.5 -35.5q0 -8 -2 -19.5t-10 -39.5q-11 -41 -15 -64.5t-5 -44.5z" />
    <glyph glyph-name="Tbar" unicode="&#x166;" horiz-adv-x="620" 
d="M439 18v-18h-257v18q51 14 65 35t14 76v200h-96v50h96v260h-100q-27 0 -45 -19t-51 -71h-28l12 141h522l12 -141h-28q-33 52 -51 71t-45 19h-100v-260h96v-50h-96v-200q0 -55 14.5 -76t65.5 -35z" />
    <glyph glyph-name="tbar" unicode="&#x167;" horiz-adv-x="351" 
d="M348 78v-24q-26 -26 -67.5 -44t-81.5 -18q-58 0 -83 32t-25 101v106h-61v43h61v178h-70v20l37 28q26 19 46.5 42.5t57.5 84.5h17v-117h147v-58h-147v-178h155v-43h-155v-109q0 -30 19.5 -48t53.5 -18q21 0 51 6.5t45 15.5z" />
    <glyph glyph-name="Utilde" unicode="&#x168;" horiz-adv-x="749" 
d="M367 -15q-116 0 -183 53.5t-67 149.5v373q0 55 -14.5 76t-65.5 35v18h256v-18q-50 -14 -64 -35t-14 -76v-379q0 -62 44 -97.5t123 -35.5q90 0 141 38.5t51 107.5v295q0 40 -1.5 66t-5.5 43q-5 30 -19 45.5t-50 27.5v18h218v-18q-37 -13 -50 -28t-19 -46q-3 -17 -4.5 -43
t-1.5 -65v-302q0 -93 -76 -148t-198 -55zM315 811q-18 0 -29 -8t-18 -29l-27 4q3 34 32 64t64 30q13 0 30 -3.5t50 -14.5q26 -9 38 -11.5t20 -2.5q18 0 28 6.5t18 27.5l28 -2q-3 -34 -32.5 -65t-64.5 -31q-14 0 -31.5 4t-50.5 16q-25 9 -36 12t-19 3z" />
    <glyph glyph-name="utilde" unicode="&#x169;" horiz-adv-x="607" 
d="M240 -12q-70 0 -108 41t-38 120v196q0 68 -11.5 85t-59.5 33v18q35 2 76.5 13.5t76.5 27.5h6v-374q0 -41 24 -66.5t64 -25.5q37 0 75.5 11.5t68.5 30.5v247q0 60 -12.5 79.5t-66.5 38.5v18q36 2 83 14t78 27h6v-357q0 -56 11 -74t69 -39v-19q-42 -4 -75 -12.5t-83 -32.5
h-6v85q-40 -36 -89 -60.5t-89 -24.5zM220 641q-18 0 -29 -8t-18 -29l-27 4q3 34 32 64t64 30q13 0 30 -3.5t50 -14.5q26 -9 38 -11.5t20 -2.5q18 0 28 6.5t18 27.5l28 -2q-3 -34 -32.5 -65t-64.5 -31q-14 0 -31.5 4t-50.5 16q-25 9 -36 12t-19 3z" />
    <glyph glyph-name="Umacron" unicode="&#x16a;" horiz-adv-x="749" 
d="M367 -15q-116 0 -183 53.5t-67 149.5v373q0 55 -14.5 76t-65.5 35v18h256v-18q-50 -14 -64 -35t-14 -76v-379q0 -62 44 -97.5t123 -35.5q90 0 141 38.5t51 107.5v295q0 40 -1.5 66t-5.5 43q-5 30 -19 45.5t-50 27.5v18h218v-18q-37 -13 -50 -28t-19 -46q-3 -17 -4.5 -43
t-1.5 -65v-302q0 -93 -76 -148t-198 -55zM525 789h-260v62h260v-62z" />
    <glyph glyph-name="umacron" unicode="&#x16b;" horiz-adv-x="607" 
d="M240 -12q-70 0 -108 41t-38 120v196q0 68 -11.5 85t-59.5 33v18q35 2 76.5 13.5t76.5 27.5h6v-374q0 -41 24 -66.5t64 -25.5q37 0 75.5 11.5t68.5 30.5v247q0 60 -12.5 79.5t-66.5 38.5v18q36 2 83 14t78 27h6v-357q0 -56 11 -74t69 -39v-19q-42 -4 -75 -12.5t-83 -32.5
h-6v85q-40 -36 -89 -60.5t-89 -24.5zM430 619h-260v62h260v-62z" />
    <glyph glyph-name="Ubreve" unicode="&#x16c;" horiz-adv-x="749" 
d="M367 -15q-116 0 -183 53.5t-67 149.5v373q0 55 -14.5 76t-65.5 35v18h256v-18q-50 -14 -64 -35t-14 -76v-379q0 -62 44 -97.5t123 -35.5q90 0 141 38.5t51 107.5v295q0 40 -1.5 66t-5.5 43q-5 30 -19 45.5t-50 27.5v18h218v-18q-37 -13 -50 -28t-19 -46q-3 -17 -4.5 -43
t-1.5 -65v-302q0 -93 -76 -148t-198 -55zM395 744q-51 0 -88 41t-42 101h20q13 -31 43 -49.5t67 -18.5t65.5 17.5t44.5 50.5h20q-7 -62 -43 -102t-87 -40z" />
    <glyph glyph-name="ubreve" unicode="&#x16d;" horiz-adv-x="607" 
d="M240 -12q-70 0 -108 41t-38 120v196q0 68 -11.5 85t-59.5 33v18q35 2 76.5 13.5t76.5 27.5h6v-374q0 -41 24 -66.5t64 -25.5q37 0 75.5 11.5t68.5 30.5v247q0 60 -12.5 79.5t-66.5 38.5v18q36 2 83 14t78 27h6v-357q0 -56 11 -74t69 -39v-19q-42 -4 -75 -12.5t-83 -32.5
h-6v85q-40 -36 -89 -60.5t-89 -24.5zM300 574q-51 0 -88 41t-42 101h20q13 -31 43 -49.5t67 -18.5t65.5 17.5t44.5 50.5h20q-7 -62 -43 -102t-87 -40z" />
    <glyph glyph-name="Uring" unicode="&#x16e;" horiz-adv-x="749" 
d="M367 -15q-116 0 -183 53.5t-67 149.5v373q0 55 -14.5 76t-65.5 35v18h256v-18q-50 -14 -64 -35t-14 -76v-379q0 -62 44 -97.5t123 -35.5q90 0 141 38.5t51 107.5v295q0 40 -1.5 66t-5.5 43q-5 30 -19 45.5t-50 27.5v18h218v-18q-37 -13 -50 -28t-19 -46q-3 -17 -4.5 -43
t-1.5 -65v-302q0 -93 -76 -148t-198 -55zM336 840q0 -24 18 -42.5t41 -18.5t41 18.5t18 42.5t-17.5 42.5t-41.5 18.5q-23 0 -41 -18.5t-18 -42.5zM497 840q0 -41 -30.5 -70.5t-71.5 -29.5q-42 0 -72 29.5t-30 70.5q0 40 30.5 70t71.5 30t71.5 -30t30.5 -70z" />
    <glyph glyph-name="uring" unicode="&#x16f;" horiz-adv-x="607" 
d="M240 -12q-70 0 -108 41t-38 120v196q0 68 -11.5 85t-59.5 33v18q35 2 76.5 13.5t76.5 27.5h6v-374q0 -41 24 -66.5t64 -25.5q37 0 75.5 11.5t68.5 30.5v247q0 60 -12.5 79.5t-66.5 38.5v18q36 2 83 14t78 27h6v-357q0 -56 11 -74t69 -39v-19q-42 -4 -75 -12.5t-83 -32.5
h-6v85q-40 -36 -89 -60.5t-89 -24.5zM241 670q0 -24 18 -42.5t41 -18.5t41 18.5t18 42.5t-17.5 42.5t-41.5 18.5q-23 0 -41 -18.5t-18 -42.5zM402 670q0 -41 -30.5 -70.5t-71.5 -29.5q-42 0 -72 29.5t-30 70.5q0 40 30.5 70t71.5 30t71.5 -30t30.5 -70z" />
    <glyph glyph-name="Uhungarumlaut" unicode="&#x170;" horiz-adv-x="749" 
d="M367 -15q-116 0 -183 53.5t-67 149.5v373q0 55 -14.5 76t-65.5 35v18h256v-18q-50 -14 -64 -35t-14 -76v-379q0 -62 44 -97.5t123 -35.5q90 0 141 38.5t51 107.5v295q0 40 -1.5 66t-5.5 43q-5 30 -19 45.5t-50 27.5v18h218v-18q-37 -13 -50 -28t-19 -46q-3 -17 -4.5 -43
t-1.5 -65v-302q0 -93 -76 -148t-198 -55zM338 744h-28l36 142h84zM478 744h-28l36 142h84z" />
    <glyph glyph-name="uhungarumlaut" unicode="&#x171;" horiz-adv-x="607" 
d="M240 -12q-70 0 -108 41t-38 120v196q0 68 -11.5 85t-59.5 33v18q35 2 76.5 13.5t76.5 27.5h6v-374q0 -41 24 -66.5t64 -25.5q37 0 75.5 11.5t68.5 30.5v247q0 60 -12.5 79.5t-66.5 38.5v18q36 2 83 14t78 27h6v-357q0 -56 11 -74t69 -39v-19q-42 -4 -75 -12.5t-83 -32.5
h-6v85q-40 -36 -89 -60.5t-89 -24.5zM238 574h-28l36 142h84zM378 574h-28l36 142h84z" />
    <glyph glyph-name="Uogonek" unicode="&#x172;" horiz-adv-x="749" 
d="M369 -215q-33 0 -53 19.5t-20 47.5q0 21 13.5 41t40.5 42q8 6 29.5 19.5t57.5 35.5q-18 -2 -35.5 -3.5t-34.5 -1.5q-116 0 -183 53.5t-67 149.5v373q0 55 -14.5 76t-65.5 35v18h256v-18q-50 -14 -64 -35t-14 -76v-379q0 -62 44 -97.5t123 -35.5q90 0 141 38.5t51 107.5
v295q0 40 -1.5 66t-5.5 43q-5 30 -19 45.5t-50 27.5v18h218v-18q-37 -13 -50 -28t-19 -46q-3 -17 -4.5 -43t-1.5 -65v-302q0 -68 -42.5 -117t-118.5 -71q-6 -7 -58 -56t-52 -77q0 -16 12.5 -27t31.5 -11q7 0 14 1.5t43 15.5v-12q-14 -19 -43 -34t-59 -15z" />
    <glyph glyph-name="uogonek" unicode="&#x173;" horiz-adv-x="607" 
d="M491 -215q-33 0 -53 19.5t-20 47.5q0 40 37 87t101 91q-32 -5 -59 -13t-73 -29h-6v85q-40 -36 -89 -60.5t-89 -24.5q-70 0 -108 41t-38 120v196q0 68 -11.5 85t-59.5 33v18q35 2 76.5 13.5t76.5 27.5h6v-374q0 -41 24 -66.5t64 -25.5q37 0 75.5 11.5t68.5 30.5v247
q0 60 -12.5 79.5t-66.5 38.5v18q36 2 83 14t78 27h6v-357q0 -56 11 -74t69 -39v-19q-47 -56 -68.5 -96t-21.5 -70q0 -16 12.5 -27t31.5 -11q7 0 14 1.5t43 15.5v-12q-14 -19 -43 -34t-59 -15z" />
    <glyph glyph-name="Wcircumflex" unicode="&#x174;" horiz-adv-x="986" 
d="M357 0h-113l-112 417q-13 49 -23 83t-19 59q-17 47 -33.5 70.5t-52.5 42.5v18h236v-18q-27 -11 -36.5 -24t-9.5 -41q0 -23 7.5 -61.5t28.5 -122.5l87 -349l96 352q17 62 25 101t8 65q0 29 -12.5 46.5t-47.5 33.5v18h214v-18q-29 -12 -40 -26.5t-11 -39.5q0 -24 8 -66
t28 -117l92 -331l101 334q20 66 29.5 108.5t9.5 66.5q0 27 -10.5 42t-40.5 29v18h216v-18q-34 -17 -50 -40t-36 -74q-9 -22 -20 -55t-28 -85l-137 -418h-102l-121 455zM389 744h-29l85 142h90l85 -142h-29l-101 86z" />
    <glyph glyph-name="wcircumflex" unicode="&#x175;" horiz-adv-x="858" 
d="M284 0h-93l-80 311q-25 99 -45.5 136t-57.5 45v18h220v-18q-30 -9 -39 -19t-9 -31t6 -55.5t19 -90.5l49 -212l140 426h87l122 -445l75 261q12 44 17.5 69.5t5.5 39.5q0 27 -10 38t-40 19v18h199v-18q-34 -7 -56 -41t-57 -140l-102 -311h-98l-116 414zM329 574h-29l85 142
h90l85 -142h-29l-101 86z" />
    <glyph glyph-name="Ycircumflex" unicode="&#x176;" horiz-adv-x="576" 
d="M416 0h-256v18q50 14 64.5 35.5t14.5 75.5v161l-94 196q-50 105 -77 141.5t-60 44.5v18h215v-18q-24 -6 -33 -14.5t-9 -24.5q0 -19 27 -75.5t31 -64.5l65 -138l62 139q29 66 39.5 96.5t10.5 46.5t-9.5 24t-33.5 11v18h195v-18q-39 -9 -67.5 -48.5t-73.5 -136.5l-91 -195
v-163q0 -54 14.5 -75.5t65.5 -35.5v-18zM194 744h-29l85 142h90l85 -142h-29l-101 86z" />
    <glyph glyph-name="ycircumflex" unicode="&#x177;" horiz-adv-x="536" 
d="M105 -235q-32 0 -53.5 19.5t-21.5 47.5q0 25 16.5 42t39.5 17q24 0 39.5 -15.5t15.5 -41.5v-8.5t-1 -4.5q33 12 56.5 46.5t42.5 94.5l12 38h-41l-86 274q-42 133 -62 168.5t-58 49.5v18h224v-19q-29 -9 -39 -19.5t-10 -29.5t7 -51.5t27 -102.5l65 -224l72 226
q18 57 25.5 88t7.5 52q0 26 -11.5 40t-41.5 21v19h202v-18q-41 -26 -61.5 -63.5t-62.5 -154.5l-121 -340q-30 -85 -75 -127t-107 -42zM169 574h-29l85 142h90l85 -142h-29l-101 86z" />
    <glyph glyph-name="Ydieresis" unicode="&#x178;" horiz-adv-x="576" 
d="M416 0h-256v18q50 14 64.5 35.5t14.5 75.5v161l-94 196q-50 105 -77 141.5t-60 44.5v18h215v-18q-24 -6 -33 -14.5t-9 -24.5q0 -19 27 -75.5t31 -64.5l65 -138l62 139q29 66 39.5 96.5t10.5 46.5t-9.5 24t-33.5 11v18h195v-18q-39 -9 -67.5 -48.5t-73.5 -136.5l-91 -195
v-163q0 -54 14.5 -75.5t65.5 -35.5v-18zM270 820q0 -24 -15 -39.5t-38 -15.5q-22 0 -37 15.5t-15 39.5t15 39.5t37 15.5q23 0 38 -15.5t15 -39.5zM425 820q0 -24 -15 -39.5t-38 -15.5q-22 0 -37 15.5t-15 39.5t15 39.5t37 15.5q23 0 38 -15.5t15 -39.5z" />
    <glyph glyph-name="Zacute" unicode="&#x179;" horiz-adv-x="538" 
d="M490 0h-464v21l352 615h-204q-24 0 -38.5 -9.5t-73.5 -77.5h-22l17 141h442v-21l-347 -615h215q33 0 55.5 20.5t65.5 81.5h21zM395 830l-199 -85l-11 20l174 130z" />
    <glyph glyph-name="zacute" unicode="&#x17a;" horiz-adv-x="481" 
d="M431 0h-396v40l295 414h-161q-29 0 -51.5 -14.5t-52.5 -49.5h-16l18 120h375v-39l-289 -415h172q31 0 54.5 17t54.5 55h16zM385 660l-199 -85l-11 20l174 130z" />
    <glyph glyph-name="Zdotaccent" unicode="&#x17b;" horiz-adv-x="538" 
d="M490 0h-464v21l352 615h-204q-24 0 -38.5 -9.5t-73.5 -77.5h-22l17 141h442v-21l-347 -615h215q33 0 55.5 20.5t65.5 81.5h21zM323 812q0 -24 -15 -39.5t-38 -15.5q-22 0 -37 15.5t-15 39.5t15 39.5t37 15.5q23 0 38 -15.5t15 -39.5z" />
    <glyph glyph-name="zdotaccent" unicode="&#x17c;" horiz-adv-x="481" 
d="M431 0h-396v40l295 414h-161q-29 0 -51.5 -14.5t-52.5 -49.5h-16l18 120h375v-39l-289 -415h172q31 0 54.5 17t54.5 55h16zM303 642q0 -24 -15 -39.5t-38 -15.5q-22 0 -37 15.5t-15 39.5t15 39.5t37 15.5q23 0 38 -15.5t15 -39.5z" />
    <glyph glyph-name="Zcaron" unicode="&#x17d;" horiz-adv-x="538" 
d="M490 0h-464v21l352 615h-204q-24 0 -38.5 -9.5t-73.5 -77.5h-22l17 141h442v-21l-347 -615h215q33 0 55.5 20.5t65.5 81.5h21zM315 744h-90l-85 142h29l101 -86l101 86h29z" />
    <glyph glyph-name="zcaron" unicode="&#x17e;" horiz-adv-x="481" 
d="M431 0h-396v40l295 414h-161q-29 0 -51.5 -14.5t-52.5 -49.5h-16l18 120h375v-39l-289 -415h172q31 0 54.5 17t54.5 55h16zM295 574h-90l-85 142h29l101 -86l101 86h29z" />
    <glyph glyph-name="longs" unicode="&#x17f;" horiz-adv-x="304" 
d="M271 0h-237v18q44 14 56.5 35.5t12.5 74.5v324h-83v58h83v54q0 89 51.5 139.5t135.5 50.5q51 0 80 -19.5t29 -54.5q0 -24 -14.5 -38.5t-39.5 -14.5q-23 0 -36 11.5t-13 32.5q0 12 5.5 23t20.5 25q-3 0 -9.5 0.5t-17.5 0.5q-53 0 -77.5 -34.5t-24.5 -108.5v-449
q0 -55 14 -75.5t64 -34.5v-18z" />
    <glyph glyph-name="florin" unicode="&#x192;" 
d="M141 -235q-49 0 -77 20.5t-28 55.5q0 25 15.5 40t40.5 15q23 0 35.5 -12.5t12.5 -36.5q0 -14 -4 -24t-14 -20h5.5h4.5q41 0 58 36.5t17 117.5v337h-90v51h90v152q0 100 42.5 153.5t119.5 53.5q48 0 75 -21t27 -57q0 -26 -14 -41t-39 -15q-23 0 -37 13.5t-14 37.5
q0 13 4 23t14 21h-4.5h-5.5q-41 0 -58 -36.5t-17 -117.5v-166h107v-51h-107v-324q0 -100 -41 -152.5t-118 -52.5z" />
    <glyph glyph-name="Scommaaccent" unicode="&#x218;" horiz-adv-x="499" 
d="M458 187q0 -87 -65 -144.5t-159 -57.5q-44 0 -94 12t-81 30l-13 148h24q36 -72 77.5 -105.5t97.5 -33.5q49 0 82.5 30.5t33.5 75.5q0 42 -27 78t-116 94q-48 31 -70.5 48t-38.5 34q-26 28 -39 58.5t-13 64.5q0 77 63.5 131t147.5 54q35 0 78.5 -11t85.5 -30v-125h-24
q-33 63 -67 89t-87 26q-45 0 -76.5 -27.5t-31.5 -66.5q0 -38 26.5 -71t113.5 -87q51 -32 75 -50t41 -35q28 -29 42 -61t14 -68zM218 -235h-30q18 26 27.5 46.5t9.5 34.5q0 7 -2.5 13.5t-10.5 18.5q-9 13 -12 21t-3 17q0 21 14.5 34.5t35.5 13.5q22 0 36.5 -16t14.5 -42
q0 -30 -21 -67t-59 -74z" />
    <glyph glyph-name="scommaaccent" unicode="&#x219;" horiz-adv-x="404" 
d="M372 152q0 -72 -53.5 -118t-138.5 -46q-36 0 -73.5 7.5t-67.5 20.5v121h21q29 -53 63 -79.5t72 -26.5q40 0 66 25t26 63q0 32 -21 55t-90 52q-82 34 -108 66t-26 78q0 67 49 109.5t124 42.5q31 0 65.5 -7t58.5 -19v-96h-22q-22 42 -47 60.5t-59 18.5q-39 0 -63 -21.5
t-24 -56.5q0 -30 20.5 -51.5t88.5 -49.5q85 -35 112 -67.5t27 -80.5zM178 -235h-30q18 26 27.5 46.5t9.5 34.5q0 7 -2.5 13.5t-10.5 18.5q-9 13 -12 21t-3 17q0 21 14.5 34.5t35.5 13.5q22 0 36.5 -16t14.5 -42q0 -30 -21 -67t-59 -74z" />
    <glyph glyph-name="uni021A" unicode="&#x21a;" horiz-adv-x="620" 
d="M439 0h-257v18q51 14 65 35t14 76v510h-100q-27 0 -45 -19t-51 -71h-28l12 141h522l12 -141h-28q-33 52 -51 71t-45 19h-100v-510q0 -55 14.5 -76t65.5 -35v-18zM278 -235h-30q18 26 27.5 46.5t9.5 34.5q0 7 -2.5 13.5t-10.5 18.5q-9 13 -12 21t-3 17q0 21 14.5 34.5
t35.5 13.5q22 0 36.5 -16t14.5 -42q0 -30 -21 -67t-59 -74z" />
    <glyph glyph-name="uni021B" unicode="&#x21b;" horiz-adv-x="351" 
d="M199 -8q-58 0 -83 32t-25 101v327h-70v20l37 28q26 19 46.5 42.5t57.5 84.5h17v-117h147v-58h-147v-330q0 -30 19.5 -48t53.5 -18q21 0 51 6.5t45 15.5v-24q-26 -26 -67.5 -44t-81.5 -18zM178 -235h-30q18 26 27.5 46.5t9.5 34.5q0 7 -2.5 13.5t-10.5 18.5q-9 13 -12 21
t-3 17q0 21 14.5 34.5t35.5 13.5q22 0 36.5 -16t14.5 -42q0 -30 -21 -67t-59 -74z" />
    <glyph glyph-name="dotlessj" unicode="&#x237;" horiz-adv-x="294" 
d="M34 -235l-9 12q37 23 59 73.5t22 112.5v382q0 61 -12.5 80.5t-67.5 37.5v18q34 2 77.5 13.5t81.5 27.5h11v-520q0 -86 -40.5 -145.5t-121.5 -91.5z" />
    <glyph glyph-name="apostrophe" unicode="&#x2bc;" horiz-adv-x="212" 
d="M85 560h-30q13 20 20.5 41.5t7.5 35.5q0 6 -2.5 12.5t-10.5 18.5q-9 13 -12 20.5t-3 15.5q0 22 14 36t35 14q23 0 37.5 -16t14.5 -41q0 -27 -16.5 -60t-54.5 -77z" />
    <glyph glyph-name="circumflex" unicode="&#x2c6;" horiz-adv-x="300" 
d="M49 574h-29l85 142h90l85 -142h-29l-101 86z" />
    <glyph glyph-name="caron" unicode="&#x2c7;" horiz-adv-x="300" 
d="M195 574h-90l-85 142h29l101 -86l101 86h29z" />
    <glyph glyph-name="breve" unicode="&#x2d8;" horiz-adv-x="300" 
d="M150 574q-51 0 -88 41t-42 101h20q13 -31 43 -49.5t67 -18.5t65.5 17.5t44.5 50.5h20q-7 -62 -43 -102t-87 -40z" />
    <glyph glyph-name="dotaccent" unicode="&#x2d9;" horiz-adv-x="300" 
d="M203 642q0 -24 -15 -39.5t-38 -15.5q-22 0 -37 15.5t-15 39.5t15 39.5t37 15.5q23 0 38 -15.5t15 -39.5z" />
    <glyph glyph-name="ring" unicode="&#x2da;" horiz-adv-x="300" 
d="M91 670q0 -24 18 -42.5t41 -18.5t41 18.5t18 42.5t-17.5 42.5t-41.5 18.5q-23 0 -41 -18.5t-18 -42.5zM252 670q0 -41 -30.5 -70.5t-71.5 -29.5q-42 0 -72 29.5t-30 70.5q0 40 30.5 70t71.5 30t71.5 -30t30.5 -70z" />
    <glyph glyph-name="ogonek" unicode="&#x2db;" horiz-adv-x="300" 
d="M131 -215q-33 0 -53 19.5t-20 47.5q0 22 15 43.5t47 44.5q18 13 51 33t43 27h28q-6 -7 -58 -56t-52 -77q0 -16 12.5 -27t31.5 -11q7 0 14 1.5t43 15.5v-12q-14 -19 -43 -34t-59 -15z" />
    <glyph glyph-name="tilde" unicode="&#x2dc;" horiz-adv-x="300" 
d="M70 641q-18 0 -29 -8t-18 -29l-27 4q3 34 32 64t64 30q13 0 30 -3.5t50 -14.5q26 -9 38 -11.5t20 -2.5q18 0 28 6.5t18 27.5l28 -2q-3 -34 -32.5 -65t-64.5 -31q-14 0 -31.5 4t-50.5 16q-25 9 -36 12t-19 3z" />
    <glyph glyph-name="hungarumlaut" unicode="&#x2dd;" horiz-adv-x="300" 
d="M48 574h-28l36 142h84zM188 574h-28l36 142h84z" />
    <glyph glyph-name="pi" unicode="&#x3c0;" horiz-adv-x="609" 
d="M71 -12q-26 0 -40 12t-14 33q0 10 4 20t12 20q6 -1 14 -2t13 -1q23 0 37.5 23t20.5 71l36 288h-121v58h565v-58h-128v-303q0 -45 15.5 -67t46.5 -22q19 0 38 5.5t38 17.5v-28q-24 -30 -55.5 -46.5t-67.5 -16.5q-55 0 -82 37t-27 112v311h-180l-30 -290
q-10 -97 -31 -135.5t-64 -38.5z" />
    <glyph glyph-name="Wgrave" unicode="&#x1e80;" horiz-adv-x="986" 
d="M357 0h-113l-112 417q-13 49 -23 83t-19 59q-17 47 -33.5 70.5t-52.5 42.5v18h236v-18q-27 -11 -36.5 -24t-9.5 -41q0 -23 7.5 -61.5t28.5 -122.5l87 -349l96 352q17 62 25 101t8 65q0 29 -12.5 46.5t-47.5 33.5v18h214v-18q-29 -12 -40 -26.5t-11 -39.5q0 -24 8 -66
t28 -117l92 -331l101 334q20 66 29.5 108.5t9.5 66.5q0 27 -10.5 42t-40.5 29v18h216v-18q-34 -17 -50 -40t-36 -74q-9 -22 -20 -55t-28 -85l-137 -418h-102l-121 455zM585 765l-11 -20l-199 85l36 65z" />
    <glyph glyph-name="wgrave" unicode="&#x1e81;" horiz-adv-x="858" 
d="M284 0h-93l-80 311q-25 99 -45.5 136t-57.5 45v18h220v-18q-30 -9 -39 -19t-9 -31t6 -55.5t19 -90.5l49 -212l140 426h87l122 -445l75 261q12 44 17.5 69.5t5.5 39.5q0 27 -10 38t-40 19v18h199v-18q-34 -7 -56 -41t-57 -140l-102 -311h-98l-116 414zM495 595l-11 -20
l-199 85l36 65z" />
    <glyph glyph-name="Wacute" unicode="&#x1e82;" horiz-adv-x="986" 
d="M357 0h-113l-112 417q-13 49 -23 83t-19 59q-17 47 -33.5 70.5t-52.5 42.5v18h236v-18q-27 -11 -36.5 -24t-9.5 -41q0 -23 7.5 -61.5t28.5 -122.5l87 -349l96 352q17 62 25 101t8 65q0 29 -12.5 46.5t-47.5 33.5v18h214v-18q-29 -12 -40 -26.5t-11 -39.5q0 -24 8 -66
t28 -117l92 -331l101 334q20 66 29.5 108.5t9.5 66.5q0 27 -10.5 42t-40.5 29v18h216v-18q-34 -17 -50 -40t-36 -74q-9 -22 -20 -55t-28 -85l-137 -418h-102l-121 455zM605 830l-199 -85l-11 20l174 130z" />
    <glyph glyph-name="wacute" unicode="&#x1e83;" horiz-adv-x="858" 
d="M284 0h-93l-80 311q-25 99 -45.5 136t-57.5 45v18h220v-18q-30 -9 -39 -19t-9 -31t6 -55.5t19 -90.5l49 -212l140 426h87l122 -445l75 261q12 44 17.5 69.5t5.5 39.5q0 27 -10 38t-40 19v18h199v-18q-34 -7 -56 -41t-57 -140l-102 -311h-98l-116 414zM585 660l-199 -85
l-11 20l174 130z" />
    <glyph glyph-name="Wdieresis" unicode="&#x1e84;" horiz-adv-x="986" 
d="M357 0h-113l-112 417q-13 49 -23 83t-19 59q-17 47 -33.5 70.5t-52.5 42.5v18h236v-18q-27 -11 -36.5 -24t-9.5 -41q0 -23 7.5 -61.5t28.5 -122.5l87 -349l96 352q17 62 25 101t8 65q0 29 -12.5 46.5t-47.5 33.5v18h214v-18q-29 -12 -40 -26.5t-11 -39.5q0 -24 8 -66
t28 -117l92 -331l101 334q20 66 29.5 108.5t9.5 66.5q0 27 -10.5 42t-40.5 29v18h216v-18q-34 -17 -50 -40t-36 -74q-9 -22 -20 -55t-28 -85l-137 -418h-102l-121 455zM465 820q0 -24 -15 -39.5t-38 -15.5q-22 0 -37 15.5t-15 39.5t15 39.5t37 15.5q23 0 38 -15.5t15 -39.5z
M620 820q0 -24 -15 -39.5t-38 -15.5q-22 0 -37 15.5t-15 39.5t15 39.5t37 15.5q23 0 38 -15.5t15 -39.5z" />
    <glyph glyph-name="wdieresis" unicode="&#x1e85;" horiz-adv-x="858" 
d="M284 0h-93l-80 311q-25 99 -45.5 136t-57.5 45v18h220v-18q-30 -9 -39 -19t-9 -31t6 -55.5t19 -90.5l49 -212l140 426h87l122 -445l75 261q12 44 17.5 69.5t5.5 39.5q0 27 -10 38t-40 19v18h199v-18q-34 -7 -56 -41t-57 -140l-102 -311h-98l-116 414zM405 650
q0 -24 -15 -39.5t-38 -15.5q-22 0 -37 15.5t-15 39.5t15 39.5t37 15.5q23 0 38 -15.5t15 -39.5zM560 650q0 -24 -15 -39.5t-38 -15.5q-22 0 -37 15.5t-15 39.5t15 39.5t37 15.5q23 0 38 -15.5t15 -39.5z" />
    <glyph glyph-name="Ygrave" unicode="&#x1ef2;" horiz-adv-x="576" 
d="M416 0h-256v18q50 14 64.5 35.5t14.5 75.5v161l-94 196q-50 105 -77 141.5t-60 44.5v18h215v-18q-24 -6 -33 -14.5t-9 -24.5q0 -19 27 -75.5t31 -64.5l65 -138l62 139q29 66 39.5 96.5t10.5 46.5t-9.5 24t-33.5 11v18h195v-18q-39 -9 -67.5 -48.5t-73.5 -136.5l-91 -195
v-163q0 -54 14.5 -75.5t65.5 -35.5v-18zM360 765l-11 -20l-199 85l36 65z" />
    <glyph glyph-name="ygrave" unicode="&#x1ef3;" horiz-adv-x="536" 
d="M105 -235q-32 0 -53.5 19.5t-21.5 47.5q0 25 16.5 42t39.5 17q24 0 39.5 -15.5t15.5 -41.5v-8.5t-1 -4.5q33 12 56.5 46.5t42.5 94.5l12 38h-41l-86 274q-42 133 -62 168.5t-58 49.5v18h224v-19q-29 -9 -39 -19.5t-10 -29.5t7 -51.5t27 -102.5l65 -224l72 226
q18 57 25.5 88t7.5 52q0 26 -11.5 40t-41.5 21v19h202v-18q-41 -26 -61.5 -63.5t-62.5 -154.5l-121 -340q-30 -85 -75 -127t-107 -42zM350 595l-11 -20l-199 85l36 65z" />
    <glyph glyph-name="endash" unicode="&#x2013;" horiz-adv-x="500" 
d="M500 253h-500v69h500v-69z" />
    <glyph glyph-name="emdash" unicode="&#x2014;" horiz-adv-x="1000" 
d="M1000 253h-1000v69h1000v-69z" />
    <glyph glyph-name="quoteleft" unicode="&#x2018;" horiz-adv-x="212" 
d="M152 506q0 -26 -16.5 -43t-39.5 -17q-26 0 -42.5 19t-16.5 48q0 45 33.5 101t76.5 87h19q-22 -29 -35 -60.5t-13 -54.5q0 -6 2.5 -11.5t11.5 -17.5q12 -16 16 -27t4 -24z" />
    <glyph glyph-name="quoteright" unicode="&#x2019;" horiz-adv-x="212" 
d="M53 446h-19q22 29 35 60.5t13 54.5q0 6 -2.5 11.5t-11.5 17.5q-12 16 -16 27t-4 24q0 26 16.5 43t39.5 17q26 0 42.5 -19t16.5 -48q0 -45 -33.5 -101t-76.5 -87z" />
    <glyph glyph-name="quotesinglbase" unicode="&#x201a;" horiz-adv-x="212" 
d="M53 -130h-19q22 29 35 60.5t13 54.5q0 6 -2.5 11.5t-11.5 17.5q-12 16 -16 27t-4 24q0 26 16.5 43t39.5 17q26 0 42.5 -19t16.5 -48q0 -45 -33.5 -101t-76.5 -87z" />
    <glyph glyph-name="quotedblleft" unicode="&#x201c;" horiz-adv-x="383" 
d="M152 506q0 -26 -16.5 -43t-39.5 -17q-26 0 -42.5 19t-16.5 48q0 45 33.5 101t76.5 87h19q-22 -29 -35 -60.5t-13 -54.5q0 -6 2.5 -11.5t11.5 -17.5q12 -16 16 -27t4 -24zM323 506q0 -26 -16.5 -43t-39.5 -17q-26 0 -42.5 19t-16.5 48q0 45 33.5 101t76.5 87h19
q-22 -29 -35 -60.5t-13 -54.5q0 -6 2.5 -11.5t11.5 -17.5q12 -16 16 -27t4 -24z" />
    <glyph glyph-name="quotedblright" unicode="&#x201d;" horiz-adv-x="383" 
d="M53 446h-19q22 29 35 60.5t13 54.5q0 6 -2.5 11.5t-11.5 17.5q-12 16 -16 27t-4 24q0 26 16.5 43t39.5 17q26 0 42.5 -19t16.5 -48q0 -45 -33.5 -101t-76.5 -87zM224 446h-19q22 29 35 60.5t13 54.5q0 6 -2.5 11.5t-11.5 17.5q-12 16 -16 27t-4 24q0 26 16.5 43t39.5 17
q26 0 42.5 -19t16.5 -48q0 -45 -33.5 -101t-76.5 -87z" />
    <glyph glyph-name="quotedblbase" unicode="&#x201e;" horiz-adv-x="383" 
d="M53 -130h-19q22 29 35 60.5t13 54.5q0 6 -2.5 11.5t-11.5 17.5q-12 16 -16 27t-4 24q0 26 16.5 43t39.5 17q26 0 42.5 -19t16.5 -48q0 -45 -33.5 -101t-76.5 -87zM224 -130h-19q22 29 35 60.5t13 54.5q0 6 -2.5 11.5t-11.5 17.5q-12 16 -16 27t-4 24q0 26 16.5 43
t39.5 17q26 0 42.5 -19t16.5 -48q0 -45 -33.5 -101t-76.5 -87z" />
    <glyph glyph-name="dagger" unicode="&#x2020;" 
d="M297 -225h-44l-19 410l19 233l-186 -42v117l185 -41l-35 238h105l-35 -238l187 40v-116l-188 42l26 -233z" />
    <glyph glyph-name="daggerdbl" unicode="&#x2021;" 
d="M324 -225h-105l35 238l-187 -40v116l188 -42l63 172l-31 145h4q51 -49 71 -79t20 -64q0 -21 -10 -44.5t-43 -67.5q-19 -25 -27 -38t-14 -24l186 42v-117l-185 41zM254 101h-4q-51 49 -71 79t-20 64q0 21 10 44.5t43 67.5q19 25 27 38t14 24l-186 -42v117l185 -41l-35 238
h105l-35 -238l187 40v-116l-188 42l-63 -172z" />
    <glyph glyph-name="bullet" unicode="&#x2022;" horiz-adv-x="465" 
d="M427 351q0 -82 -57.5 -139.5t-139.5 -57.5t-139.5 57.5t-57.5 139.5t57.5 139.5t139.5 57.5t139.5 -57.5t57.5 -139.5z" />
    <glyph glyph-name="ellipsis" unicode="&#x2026;" horiz-adv-x="636" 
d="M170 53q0 -27 -19.5 -46t-46.5 -19t-46 19t-19 46t19 46.5t46 19.5t46.5 -19.5t19.5 -46.5zM382 53q0 -27 -19.5 -46t-46.5 -19t-46 19t-19 46t19 46.5t46 19.5t46.5 -19.5t19.5 -46.5zM594 53q0 -27 -19.5 -46t-46.5 -19t-46 19t-19 46t19 46.5t46 19.5t46.5 -19.5
t19.5 -46.5z" />
    <glyph glyph-name="perthousand" unicode="&#x2030;" horiz-adv-x="1163" 
d="M219 -46h-58l407 674h-1q-25 -19 -53 -30.5t-50 -11.5q-16 0 -33.5 3.5t-33.5 10.5q3 -14 4.5 -27t1.5 -24q0 -88 -49.5 -164t-117.5 -76q-63 0 -103.5 45t-40.5 114q0 86 56.5 159.5t129.5 73.5q23 0 42.5 -6.5t50.5 -27.5q30 -21 49 -27.5t42 -6.5q46 0 91 24t83 70h50
zM178 444q0 -37 16.5 -62.5t44.5 -25.5q53 0 90 61.5t37 136.5q0 39 -20.5 69.5t-52.5 30.5q-49 0 -82 -64.5t-33 -145.5zM764 233q0 -95 -49 -170t-121 -75q-61 0 -101 44t-40 111q0 90 57 163t134 73q54 0 87 -40.5t33 -105.5zM539 123q0 -35 17.5 -61t43.5 -26
q53 0 90.5 61.5t37.5 135.5q0 39 -20.5 69.5t-51.5 30.5q-50 0 -83.5 -64t-33.5 -146zM1111 233q0 -95 -49 -170t-121 -75q-61 0 -101 44t-40 111q0 90 57 163t134 73q54 0 87 -40.5t33 -105.5zM886 123q0 -35 17.5 -61t43.5 -26q53 0 90.5 61.5t37.5 135.5q0 39 -20.5 69.5
t-51.5 30.5q-50 0 -83.5 -64t-33.5 -146z" />
    <glyph glyph-name="guilsinglleft" unicode="&#x2039;" horiz-adv-x="293" 
d="M258 88h-44l-189 177l189 178h44l-125 -178z" />
    <glyph glyph-name="guilsinglright" unicode="&#x203a;" horiz-adv-x="293" 
d="M76 88h-44l125 177l-125 178h44l189 -178z" />
    <glyph glyph-name="fraction" unicode="&#x2044;" horiz-adv-x="127" 
d="M-126 -46h-62l440 773h63z" />
    <glyph glyph-name="zerosuperior" unicode="&#x2070;" horiz-adv-x="374" 
d="M337 474q0 -86 -43.5 -156t-108.5 -70q-66 0 -109.5 66.5t-43.5 151.5t44.5 156t108.5 71t108 -68t44 -151zM119 466q0 -82 17 -129.5t49 -47.5t49 46.5t17 130.5q0 81 -17.5 134t-48.5 53t-48.5 -53t-17.5 -134z" />
    <glyph glyph-name="foursuperior" unicode="&#x2074;" horiz-adv-x="374" 
d="M346 260h-201v14q45 13 57 30t12 63v9h-195v19q52 75 110 151t124 154h38v-274h55v-50h-55v-8q0 -51 9.5 -66.5t45.5 -27.5v-14zM84 426h130v175q-31 -36 -70 -88t-60 -87z" />
    <glyph glyph-name="fivesuperior" unicode="&#x2075;" horiz-adv-x="376" 
d="M329 406q0 -66 -49.5 -112t-121.5 -46q-49 0 -81.5 20t-32.5 52q0 23 15 37t39 14q23 0 36.5 -12t13.5 -33q0 -12 -5 -23t-15 -21q5 -2 15 -3.5t21 -1.5q37 0 61 32.5t24 83.5q0 48 -23 74t-64 26q-19 0 -37 -6t-34 -18h-29l28 221h212v-74h-180l-15 -108q17 12 42 19
t51 7q56 0 92.5 -36.5t36.5 -91.5z" />
    <glyph glyph-name="sixsuperior" unicode="&#x2076;" horiz-adv-x="374" 
d="M336 402q0 -62 -42.5 -108t-103.5 -46q-67 0 -110.5 53t-43.5 130q0 102 71 177t181 86v-30q-54 -7 -95 -44t-59 -95q16 6 31.5 9t32.5 3q60 0 99 -38t39 -97zM122 442q0 -80 18.5 -118.5t55.5 -38.5q29 0 44.5 26t15.5 75q0 48 -26.5 81.5t-67.5 33.5q-4 0 -9 -0.5
l-15 -1.5q-5 -1 -7.5 -1h-3.5q-2 -8 -3.5 -24t-1.5 -32z" />
    <glyph glyph-name="sevensuperior" unicode="&#x2077;" horiz-adv-x="374" 
d="M163 260h-80q19 71 56 145t133 211h-238v74h306v-12q-67 -112 -112.5 -219t-64.5 -199z" />
    <glyph glyph-name="eightsuperior" unicode="&#x2078;" horiz-adv-x="374" 
d="M339 376q0 -55 -45 -91.5t-111 -36.5q-63 0 -106.5 33t-43.5 84q0 35 22 62t66 46q-38 19 -58 46.5t-20 59.5q0 48 41 81t103 33q60 0 98.5 -31.5t38.5 -74.5q0 -28 -20.5 -50.5t-60.5 -38.5q50 -25 73 -55t23 -67zM111 372q0 -41 20.5 -63t57.5 -22q34 0 55.5 18
t21.5 46t-25.5 52t-90.5 56q-19 -14 -29 -36.5t-10 -50.5zM116 599q0 -25 21.5 -45.5t72.5 -42.5q17 15 28 38.5t11 42.5q0 26 -20 44t-50 18q-28 0 -45.5 -15.5t-17.5 -39.5z" />
    <glyph glyph-name="ninesuperior" unicode="&#x2079;" horiz-adv-x="374" 
d="M328 511q0 -103 -70 -177.5t-181 -85.5v30q58 7 103.5 51t55.5 101q-17 -8 -33.5 -11.5t-32.5 -3.5q-62 0 -101.5 34t-39.5 91q0 62 42.5 108t103.5 46q67 0 110 -52.5t43 -130.5zM109 555q0 -44 27.5 -74.5t69.5 -30.5q4 0 9.5 1t26.5 6q1 8 1.5 16t0.5 27
q0 79 -18.5 118t-56.5 39q-29 0 -44.5 -26.5t-15.5 -75.5z" />
    <glyph glyph-name="zeroinferior" unicode="&#x2080;" horiz-adv-x="374" 
d="M337 214q0 -86 -43.5 -156t-108.5 -70q-66 0 -109.5 66.5t-43.5 151.5t44.5 156t108.5 71t108 -68t44 -151zM119 206q0 -82 17 -129.5t49 -47.5t49 46.5t17 130.5q0 81 -17.5 134t-48.5 53t-48.5 -53t-17.5 -134z" />
    <glyph glyph-name="oneinferior" unicode="&#x2081;" horiz-adv-x="295" 
d="M265 0h-213v14q46 15 57 34t11 70v223h-2q-20 -9 -42.5 -15.5t-42.5 -10.5l-9 25q39 12 76.5 33t87.5 60h14v-315q0 -54 10 -72t53 -32v-14z" />
    <glyph glyph-name="twoinferior" unicode="&#x2082;" horiz-adv-x="374" 
d="M322 0h-267v32l122 132q36 38 55 77.5t19 73.5q0 37 -21.5 58.5t-58.5 21.5q-14 0 -27.5 -3.5t-21.5 -8.5q16 -6 25 -19t9 -31q0 -23 -14.5 -37t-36.5 -14q-23 0 -38.5 15.5t-15.5 37.5q0 40 42 71.5t101 31.5q61 0 101.5 -32.5t40.5 -84.5q0 -36 -21 -72.5t-89 -100.5
l-79 -75h175v-73z" />
    <glyph glyph-name="threeinferior" unicode="&#x2083;" horiz-adv-x="374" 
d="M343 145q0 -72 -49 -114.5t-122 -42.5q-51 0 -85 22t-34 57q0 23 15 37t39 14q22 0 34.5 -12.5t12.5 -34.5q0 -11 -4 -20.5t-14 -22.5q8 -4 18.5 -6.5t21.5 -2.5q37 0 60.5 28.5t23.5 76.5q0 47 -25 70t-76 23h-18v33l76 105h-151v75h250v-12l-96 -130q58 -10 90.5 -47.5
t32.5 -95.5z" />
    <glyph glyph-name="fourinferior" unicode="&#x2084;" horiz-adv-x="374" 
d="M346 0h-201v14q45 13 57 30t12 63v9h-195v19q52 75 110 151t124 154h38v-274h55v-50h-55v-8q0 -51 9.5 -66.5t45.5 -27.5v-14zM84 166h130v175q-31 -36 -70 -88t-60 -87z" />
    <glyph glyph-name="fiveinferior" unicode="&#x2085;" horiz-adv-x="376" 
d="M329 146q0 -66 -49.5 -112t-121.5 -46q-49 0 -81.5 20t-32.5 52q0 23 15 37t39 14q23 0 36.5 -12t13.5 -33q0 -12 -5 -23t-15 -21q5 -2 15 -3.5t21 -1.5q37 0 61 32.5t24 83.5q0 48 -23 74t-64 26q-19 0 -37 -6t-34 -18h-29l28 221h212v-74h-180l-15 -108q17 12 42 19
t51 7q56 0 92.5 -36.5t36.5 -91.5z" />
    <glyph glyph-name="sixinferior" unicode="&#x2086;" horiz-adv-x="374" 
d="M336 142q0 -62 -42.5 -108t-103.5 -46q-67 0 -110.5 53t-43.5 130q0 102 71 177t181 86v-30q-54 -7 -95 -44t-59 -95q16 6 31.5 9t32.5 3q60 0 99 -38t39 -97zM122 182q0 -80 18.5 -118.5t55.5 -38.5q29 0 44.5 26t15.5 75q0 48 -26.5 81.5t-67.5 33.5q-4 0 -9 -0.5
l-15 -1.5q-5 -1 -7.5 -1h-3.5q-2 -8 -3.5 -24t-1.5 -32z" />
    <glyph glyph-name="seveninferior" unicode="&#x2087;" horiz-adv-x="374" 
d="M163 0h-80q19 71 56 145t133 211h-238v74h306v-12q-67 -112 -112.5 -219t-64.5 -199z" />
    <glyph glyph-name="eightinferior" unicode="&#x2088;" horiz-adv-x="374" 
d="M339 116q0 -55 -45 -91.5t-111 -36.5q-63 0 -106.5 33t-43.5 84q0 35 22 62t66 46q-38 19 -58 46.5t-20 59.5q0 48 41 81t103 33q60 0 98.5 -31.5t38.5 -74.5q0 -28 -20.5 -50.5t-60.5 -38.5q50 -25 73 -55t23 -67zM111 112q0 -41 20.5 -63t57.5 -22q34 0 55.5 18
t21.5 46t-25.5 52t-90.5 56q-19 -14 -29 -36.5t-10 -50.5zM116 339q0 -25 21.5 -45.5t72.5 -42.5q17 15 28 38.5t11 42.5q0 26 -20 44t-50 18q-28 0 -45.5 -15.5t-17.5 -39.5z" />
    <glyph glyph-name="nineinferior" unicode="&#x2089;" horiz-adv-x="374" 
d="M328 251q0 -103 -70 -177.5t-181 -85.5v30q58 7 103.5 51t55.5 101q-17 -8 -33.5 -11.5t-32.5 -3.5q-62 0 -101.5 34t-39.5 91q0 62 42.5 108t103.5 46q67 0 110 -52.5t43 -130.5zM109 295q0 -44 27.5 -74.5t69.5 -30.5q4 0 9.5 1t26.5 6q1 8 1.5 16t0.5 27
q0 79 -18.5 118t-56.5 39q-29 0 -44.5 -26.5t-15.5 -75.5z" />
    <glyph glyph-name="Euro" unicode="&#x20ac;" 
d="M335 -15q-89 0 -147.5 70.5t-75.5 194.5h-64v52h59q-1 6 -1 14v23q0 12 1 25l2 26h-61v52h70q25 121 90.5 191.5t156.5 70.5q56 0 88.5 -28.5t32.5 -75.5q0 -30 -18.5 -49.5t-45.5 -19.5q-26 0 -43 15t-17 40q0 28 20.5 43t56.5 15q-15 10 -34 15.5t-39 5.5
q-65 0 -105.5 -60t-45.5 -163h206l-8 -52h-204q-1 -9 -1 -20v-31v-18.5v-18.5h191l-8 -52h-180q5 -102 42 -157.5t102 -55.5q48 0 79.5 49t31.5 110h42q0 -87 -48.5 -149t-124.5 -62z" />
    <glyph glyph-name="uni2113" unicode="&#x2113;" horiz-adv-x="441" 
d="M249 -15q-64 0 -99.5 41.5t-40.5 122.5l-1 11l-76 -63v49l76 59v304q0 92 41 143.5t112 51.5q60 0 94 -39t34 -109q0 -84 -52 -172.5t-151 -174.5v-17q0 -69 25.5 -105.5t73.5 -36.5q31 0 63.5 15t50.5 36l16 -12q-36 -54 -76.5 -79t-89.5 -25zM186 521v-263
q70 65 107.5 141t37.5 154q0 54 -18 81.5t-53 27.5q-38 0 -56 -34.5t-18 -106.5z" />
    <glyph glyph-name="trademark" unicode="&#x2122;" horiz-adv-x="655" 
d="M353 418h-102v14q23 8 30.5 22.5t9.5 46.5l7 104q1 4 1 7.5v10.5q0 23 -6.5 34.5t-26.5 18.5v14h98l77 -188l70 188h90v-14q-19 -6 -25.5 -18.5t-6.5 -36.5v-7.5v-7.5l6 -105q2 -30 8 -43.5t31 -25.5v-14h-124v14q23 10 28.5 20.5t5.5 31.5q0 2 -0.5 8t-0.5 9l-8 124
l-77 -207h-28l-82 208l-8 -125v-6v-6q0 -24 6.5 -36.5t26.5 -20.5v-14zM200 418h-129v14q24 9 29 21.5t5 47.5v161h-22q-14 0 -23 -6t-29 -31h-10l6 65h217l6 -65h-10q-20 25 -29 31t-23 6h-22v-161q0 -35 5 -47.5t29 -21.5v-14z" />
    <glyph glyph-name="Omega" unicode="&#x2126;" horiz-adv-x="781" 
d="M298 0h-236l-16 120h19q22 -29 37.5 -35.5t53.5 -6.5h57q-15 22 -54 73t-58 81q-30 48 -44 91.5t-14 87.5q0 63 28.5 117.5t82.5 96.5q49 37 110.5 58t122.5 21t122.5 -21t110.5 -58q54 -42 82.5 -96.5t28.5 -117.5q0 -44 -14 -87.5t-44 -91.5q-19 -30 -58 -81t-54 -73
h57q38 0 53.5 6.5t37.5 35.5h19l-16 -120h-236v12q68 102 107 207t39 192q0 104 -68.5 173t-166.5 69t-166.5 -69t-68.5 -173q0 -87 39 -192t107 -207v-12z" />
    <glyph glyph-name="estimated" unicode="&#x212e;" horiz-adv-x="685" 
d="M346 -8q-122 0 -209 78.5t-87 188.5q0 108 87.5 186t208.5 78q124 0 210.5 -79t86.5 -192h-475q-4 0 -6 -2t-2 -6v-131q0 -41 62.5 -73.5t123.5 -32.5q54 0 103 23t88 66h42q-41 -50 -101 -77t-132 -27zM168 266h357q5 0 6.5 1t1.5 5v132q0 9 -3 18t-10 18
q-21 29 -72 49.5t-102 20.5t-99.5 -19.5t-71.5 -50.5q-8 -11 -11.5 -20t-3.5 -16v-132q0 -3 2 -4.5t6 -1.5z" />
    <glyph glyph-name="onethird" unicode="&#x2153;" horiz-adv-x="828" 
d="M797 145q0 -72 -49 -114.5t-122 -42.5q-51 0 -85 22t-34 57q0 23 15 37t39 14q22 0 34.5 -12.5t12.5 -34.5q0 -11 -4 -20.5t-14 -22.5q8 -4 18.5 -6.5t21.5 -2.5q37 0 60.5 28.5t23.5 76.5q0 47 -25 70t-76 23h-18v33l76 105h-151v75h250v-12l-96 -130q58 -10 90.5 -47.5
t32.5 -95.5zM265 260h-213v14q46 15 57 34t11 70v223h-2q-20 -9 -42.5 -15.5t-42.5 -10.5l-9 25q39 12 76.5 33t87.5 60h14v-315q0 -54 10 -72t53 -32v-14zM198 -46h-62l440 773h63z" />
    <glyph glyph-name="twothirds" unicode="&#x2154;" horiz-adv-x="888" 
d="M322 260h-267v32l122 132q36 38 55 77.5t19 73.5q0 37 -21.5 58.5t-58.5 21.5q-14 0 -27.5 -3.5t-21.5 -8.5q16 -6 25 -19t9 -31q0 -23 -14.5 -37t-36.5 -14q-23 0 -38.5 15.5t-15.5 37.5q0 40 42 71.5t101 31.5q61 0 101.5 -32.5t40.5 -84.5q0 -36 -21 -72.5t-89 -100.5
l-79 -75h175v-73zM258 -46h-62l440 773h63zM857 145q0 -72 -49 -114.5t-122 -42.5q-51 0 -85 22t-34 57q0 23 15 37t39 14q22 0 34.5 -12.5t12.5 -34.5q0 -11 -4 -20.5t-14 -22.5q8 -4 18.5 -6.5t21.5 -2.5q37 0 60.5 28.5t23.5 76.5q0 47 -25 70t-76 23h-18v33l76 105h-151
v75h250v-12l-96 -130q58 -10 90.5 -47.5t32.5 -95.5z" />
    <glyph glyph-name="oneeighth" unicode="&#x215b;" horiz-adv-x="818" 
d="M783 116q0 -55 -45 -91.5t-111 -36.5q-63 0 -106.5 33t-43.5 84q0 35 22 62t66 46q-38 19 -58 46.5t-20 59.5q0 48 41 81t103 33q60 0 98.5 -31.5t38.5 -74.5q0 -28 -20.5 -50.5t-60.5 -38.5q50 -25 73 -55t23 -67zM555 112q0 -41 20.5 -63t57.5 -22q34 0 55.5 18
t21.5 46t-25.5 52t-90.5 56q-19 -14 -29 -36.5t-10 -50.5zM560 339q0 -25 21.5 -45.5t72.5 -42.5q17 15 28 38.5t11 42.5q0 26 -20 44t-50 18q-28 0 -45.5 -15.5t-17.5 -39.5zM265 260h-213v14q46 15 57 34t11 70v223h-2q-20 -9 -42.5 -15.5t-42.5 -10.5l-9 25
q39 12 76.5 33t87.5 60h14v-315q0 -54 10 -72t53 -32v-14zM198 -46h-62l440 773h63z" />
    <glyph glyph-name="threeeighths" unicode="&#x215c;" horiz-adv-x="878" 
d="M343 405q0 -72 -49 -114.5t-122 -42.5q-51 0 -85 22t-34 57q0 23 15 37t39 14q22 0 34.5 -12.5t12.5 -34.5q0 -11 -4 -20.5t-14 -22.5q8 -4 18.5 -6.5t21.5 -2.5q37 0 60.5 28.5t23.5 76.5q0 47 -25 70t-76 23h-18v33l76 105h-151v75h250v-12l-96 -130q58 -10 90.5 -47.5
t32.5 -95.5zM258 -46h-62l440 773h63zM843 116q0 -55 -45 -91.5t-111 -36.5q-63 0 -106.5 33t-43.5 84q0 35 22 62t66 46q-38 19 -58 46.5t-20 59.5q0 48 41 81t103 33q60 0 98.5 -31.5t38.5 -74.5q0 -28 -20.5 -50.5t-60.5 -38.5q50 -25 73 -55t23 -67zM615 112
q0 -41 20.5 -63t57.5 -22q34 0 55.5 18t21.5 46t-25.5 52t-90.5 56q-19 -14 -29 -36.5t-10 -50.5zM620 339q0 -25 21.5 -45.5t72.5 -42.5q17 15 28 38.5t11 42.5q0 26 -20 44t-50 18q-28 0 -45.5 -15.5t-17.5 -39.5z" />
    <glyph glyph-name="fiveeighths" unicode="&#x215d;" horiz-adv-x="869" 
d="M329 406q0 -66 -49.5 -112t-121.5 -46q-49 0 -81.5 20t-32.5 52q0 23 15 37t39 14q23 0 36.5 -12t13.5 -33q0 -12 -5 -23t-15 -21q5 -2 15 -3.5t21 -1.5q37 0 61 32.5t24 83.5q0 48 -23 74t-64 26q-19 0 -37 -6t-34 -18h-29l28 221h212v-74h-180l-15 -108q17 12 42 19
t51 7q56 0 92.5 -36.5t36.5 -91.5zM249 -46h-62l440 773h63zM834 116q0 -55 -45 -91.5t-111 -36.5q-63 0 -106.5 33t-43.5 84q0 35 22 62t66 46q-38 19 -58 46.5t-20 59.5q0 48 41 81t103 33q60 0 98.5 -31.5t38.5 -74.5q0 -28 -20.5 -50.5t-60.5 -38.5q50 -25 73 -55
t23 -67zM606 112q0 -41 20.5 -63t57.5 -22q34 0 55.5 18t21.5 46t-25.5 52t-90.5 56q-19 -14 -29 -36.5t-10 -50.5zM611 339q0 -25 21.5 -45.5t72.5 -42.5q17 15 28 38.5t11 42.5q0 26 -20 44t-50 18q-28 0 -45.5 -15.5t-17.5 -39.5z" />
    <glyph glyph-name="seveneighths" unicode="&#x215e;" horiz-adv-x="818" 
d="M783 116q0 -55 -45 -91.5t-111 -36.5q-63 0 -106.5 33t-43.5 84q0 35 22 62t66 46q-38 19 -58 46.5t-20 59.5q0 48 41 81t103 33q60 0 98.5 -31.5t38.5 -74.5q0 -28 -20.5 -50.5t-60.5 -38.5q50 -25 73 -55t23 -67zM555 112q0 -41 20.5 -63t57.5 -22q34 0 55.5 18
t21.5 46t-25.5 52t-90.5 56q-19 -14 -29 -36.5t-10 -50.5zM560 339q0 -25 21.5 -45.5t72.5 -42.5q17 15 28 38.5t11 42.5q0 26 -20 44t-50 18q-28 0 -45.5 -15.5t-17.5 -39.5zM163 260h-80q19 71 56 145t133 211h-238v74h306v-12q-67 -112 -112.5 -219t-64.5 -199zM198 -46
h-62l440 773h63z" />
    <glyph glyph-name="partialdiff" unicode="&#x2202;" horiz-adv-x="577" 
d="M532 255q0 -119 -70 -193t-177 -74q-106 0 -176 75t-70 194q0 118 70 191.5t176 73.5q19 0 37.5 -3t34.5 -9q-32 51 -83 94t-142 93v57q211 -94 305.5 -215t94.5 -284zM140 256q0 -105 37 -160.5t108 -55.5t108 55.5t37 160.5t-37 159.5t-108 54.5t-108 -54.5t-37 -159.5
z" />
    <glyph glyph-name="Delta" unicode="&#x2206;" horiz-adv-x="709" 
d="M701 0h-693v18q34 13 50.5 33t36.5 65q9 21 20.5 51.5t27.5 75.5l159 447h117l157 -454q48 -138 67.5 -171t57.5 -47v-18zM191 51h307q22 0 19 41.5t-38 145.5l-136 395l-135 -394q-35 -97 -38.5 -142.5t21.5 -45.5z" />
    <glyph glyph-name="product" unicode="&#x220f;" horiz-adv-x="788" 
d="M298 0h-255v14q46 13 63 38.5t17 85.5v411q0 60 -17 85.5t-63 38.5v17h694v-17q-46 -13 -63 -38t-17 -86v-411q0 -61 17 -86t63 -38v-14h-256v14q46 13 62.5 38.5t16.5 85.5v411q0 48 -12.5 71.5t-38.5 23.5h-239q-26 0 -38.5 -23.5t-12.5 -71.5v-411q0 -59 17 -85
t62 -39v-14z" />
    <glyph glyph-name="summation" unicode="&#x2211;" 
d="M474 0h-462v12l266 322l-265 343v13h470v-141h-23q-35 66 -50.5 78t-66.5 12h-175l195 -260v-13l-235 -291h211q49 0 71.5 14t64.5 67h21z" />
    <glyph glyph-name="minus" unicode="&#x2212;" 
d="M464 243h-387v76h387v-76z" />
    <glyph glyph-name="uni2215" unicode="&#x2215;" horiz-adv-x="127" 
d="M-126 -46h-62l440 773h63z" />
    <glyph glyph-name="radical" unicode="&#x221a;" 
d="M302 -6h-40l-160 469h-57v47h133l120 -332l139 571h53z" />
    <glyph glyph-name="infinity" unicode="&#x221e;" horiz-adv-x="570" 
d="M283 235q-45 -45 -75.5 -61.5t-62.5 -16.5q-42 0 -73 30.5t-31 76.5q0 50 36.5 81.5t82.5 31.5q28 0 58 -16.5t75 -59.5q34 39 66 57.5t65 18.5q41 0 73 -30.5t32 -76.5q0 -50 -37.5 -81.5t-81.5 -31.5q-23 0 -49 15t-78 63zM100 265q0 -22 17.5 -37t40.5 -15
q20 0 45.5 12.5t51.5 34.5q-35 32 -57.5 44.5t-41.5 12.5q-23 0 -39.5 -15t-16.5 -37zM321 275q35 -34 55.5 -46.5t37.5 -12.5q21 0 38 15t17 37t-17 37t-42 15q-20 0 -42.5 -11.5t-46.5 -33.5z" />
    <glyph glyph-name="integral" unicode="&#x222b;" 
d="M141 -235q-49 0 -77 20.5t-28 55.5q0 25 15.5 40t40.5 15q23 0 35.5 -12.5t12.5 -36.5q0 -14 -4 -24t-14 -20h5.5h4.5q41 0 58 36.5t17 117.5v540q0 100 42.5 153.5t119.5 53.5q48 0 75 -21t27 -57q0 -26 -14 -41t-39 -15q-23 0 -37 13.5t-14 37.5q0 13 4 23t14 21h-4.5
h-5.5q-41 0 -58 -36.5t-17 -117.5v-541q0 -100 -41 -152.5t-118 -52.5z" />
    <glyph glyph-name="approxequal" unicode="&#x2248;" 
d="M162 182q-21 0 -38.5 -12t-25.5 -30l-36 4q18 54 49 82.5t72 28.5q18 0 42 -5.5t74 -22.5q38 -12 53.5 -16t25.5 -4q19 0 37 12.5t25 29.5l36 -4q-18 -53 -49 -82t-71 -29q-17 0 -40 5t-70 22q-40 13 -56.5 17t-27.5 4zM162 382q-21 0 -38.5 -12t-25.5 -30l-36 4
q18 54 49 82.5t72 28.5q18 0 42 -5.5t74 -22.5q38 -12 53.5 -16t25.5 -4q19 0 37 12.5t25 29.5l36 -4q-18 -53 -49 -82t-71 -29q-17 0 -40 5t-70 22q-40 13 -56.5 17t-27.5 4z" />
    <glyph glyph-name="notequal" unicode="&#x2260;" 
d="M152 34h-75l69 109h-69v76h118l79 124h-197v76h246l66 103h75l-66 -103h66v-76h-115l-79 -124h194v-76h-243z" />
    <glyph glyph-name="lessequal" unicode="&#x2264;" 
d="M463 176v-77l-386 182v62l386 180v-77l-286 -133zM467 0h-387v76h387v-76z" />
    <glyph glyph-name="greaterequal" unicode="&#x2265;" 
d="M464 76v-76h-387v76h387zM463 281l-386 -182v77l286 137l-286 133v77l386 -180v-62z" />
    <glyph glyph-name="lozenge" unicode="&#x25ca;" horiz-adv-x="553" 
d="M316 0h-84l-214 344l229 356h74l214 -356zM87 384l217 -342l163 255l-210 354z" />
    <glyph glyph-name="commaaccent" unicode="&#xf6c3;" horiz-adv-x="300" 
d="M128 -235h-30q18 26 27.5 46.5t9.5 34.5q0 7 -2.5 13.5t-10.5 18.5q-9 13 -12 21t-3 17q0 21 14.5 34.5t35.5 13.5q22 0 36.5 -16t14.5 -42q0 -30 -21 -67t-59 -74z" />
    <glyph glyph-name="fi" unicode="&#xfb01;" horiz-adv-x="584" 
d="M270 0h-234v18q43 14 55 34.5t12 75.5v324h-83v58h83v39q0 96 67 150.5t172 54.5q70 0 105.5 -20.5t35.5 -61.5q0 -26 -14 -42.5t-36 -16.5q-25 0 -39.5 13.5t-14.5 38.5q0 14 5.5 25t21.5 24q-17 3 -32 4.5t-29 1.5q-72 0 -112 -40.5t-40 -117.5v-52h147q50 0 94 4t52 8
h6v-394q0 -54 12.5 -75t55.5 -35v-18h-224v18q43 14 55.5 35t12.5 75v207q0 78 -15.5 97.5t-65.5 19.5h-130v-324q0 -56 14 -76t63 -34v-18z" />
    <glyph glyph-name="fl" unicode="&#xfb02;" horiz-adv-x="586" 
d="M270 0h-234v18q43 14 55 34.5t12 75.5v324h-83v58h83v34q0 98 62 154t159 56q47 0 76.5 -10t42.5 -30q12 8 22 18t19 22h10v-626q0 -54 12.5 -75t55.5 -35v-18h-226v18q43 14 55.5 35t12.5 75v473q-23 2 -38 17t-15 38q0 16 7 30t20 25q-14 3 -27.5 4.5t-25.5 1.5
q-63 0 -97.5 -41t-34.5 -119v-47h110v-58h-110v-324q0 -56 14 -76t63 -34v-18z" />
    <glyph glyph-name="caron.alt" horiz-adv-x="300" 
d="M161 498h-21q-1 23 -5.5 47t-15.5 65q-7 26 -9 37t-2 19q0 21 12.5 35.5t29.5 14.5q18 0 30.5 -14.5t12.5 -35.5q0 -8 -2 -19.5t-10 -39.5q-11 -41 -15 -64.5t-5 -44.5z" />
    <glyph glyph-name="revcommaaccent" horiz-adv-x="212" 
d="M156 610q0 -22 -14 -36t-35 -14q-23 0 -37.5 16t-14.5 41q0 27 16.5 60t54.5 77h30q-13 -20 -20.5 -41.5t-7.5 -35.5q0 -6 2.5 -12.5t10.5 -18.5q9 -13 12 -20.5t3 -15.5z" />
    </font>
</defs>
</svg>
